<ttFont>
<head>
    <!-- Most of this table will be recalculated by the compiler -->
    <tableVersion value="1.0"/>
    <fontRevision value="1.013"/>
    <checkSumAdjustment value="0xf7be1c0a"/>
    <magicNumber value="0x5f0f3cf5"/>
    <flags value="00000000 00000011"/>
    <unitsPerEm value="1000"/>
    <created value="Mon Jul  1 17:06:30 2019"/>
    <modified value="Mon Jul  1 17:06:32 2019"/>
    <xMin value="11"/>
    <yMin value="-250"/>
    <xMax value="600"/>
    <yMax value="781"/>
    <macStyle value="00000000 00000001"/>
    <lowestRecPPEM value="6"/>
    <fontDirectionHint value="2"/>
    <indexToLocFormat value="0"/>
    <glyphDataFormat value="0"/>
  </head>
    <TTGlyph name=".notdef" xMin="50" yMin="-250" xMax="450" yMax="750">
      <contour>
        <pt x="50" y="-250" on="1"/>
        <pt x="450" y="-250" on="1"/>
        <pt x="450" y="750" on="1"/>
        <pt x="50" y="750" on="1"/>
      </contour>
      <contour>
        <pt x="100" y="-200" on="1"/>
        <pt x="100" y="700" on="1"/>
        <pt x="400" y="700" on="1"/>
        <pt x="400" y="-200" on="1"/>
      </contour>
    </TTGlyph>
    <TTGlyph name="A" xMin="25" yMin="-10" xMax="550" yMax="710">
      <contour>
        <pt x="25" y="290" on="1"/>
        <pt x="264" y="290" on="1"/>
        <pt x="296" y="290" on="0"/>
        <pt x="347" y="276" on="0"/>
        <pt x="366" y="261" on="1"/>
        <pt x="401" y="276" on="1"/>
        <pt x="401" y="150" on="1"/>
        <pt x="85" y="150" on="1"/>
        <pt x="60" y="150" on="0"/>
        <pt x="34" y="176" on="0"/>
        <pt x="25" y="228" on="0"/>
        <pt x="25" y="265" on="1"/>
      </contour>
      <contour>
        <pt x="217" y="0" on="1"/>
        <pt x="199" y="-4" on="0"/>
        <pt x="162" y="-10" on="0"/>
        <pt x="145" y="-10" on="1"/>
        <pt x="103" y="-10" on="0"/>
        <pt x="52" y="20" on="0"/>
        <pt x="52" y="57" on="1"/>
        <pt x="52" y="197" on="0"/>
        <pt x="93" y="449" on="0"/>
        <pt x="164" y="645" on="0"/>
        <pt x="207" y="700" on="1"/>
        <pt x="223" y="705" on="0"/>
        <pt x="264" y="710" on="0"/>
        <pt x="283" y="710" on="1"/>
        <pt x="342" y="710" on="0"/>
        <pt x="414" y="680" on="0"/>
        <pt x="459" y="615" on="0"/>
        <pt x="477" y="563" on="1"/>
        <pt x="503" y="487" on="0"/>
        <pt x="534" y="280" on="0"/>
        <pt x="543" y="146" on="1"/>
        <pt x="545" y="112" on="0"/>
        <pt x="549" y="38" on="0"/>
        <pt x="550" y="0" on="1"/>
        <pt x="536" y="-5" on="0"/>
        <pt x="502" y="-10" on="0"/>
        <pt x="484" y="-10" on="1"/>
        <pt x="451" y="-10" on="0"/>
        <pt x="408" y="6" on="0"/>
        <pt x="386" y="36" on="0"/>
        <pt x="384" y="58" on="1"/>
        <pt x="378" y="171" on="0"/>
        <pt x="366" y="335" on="0"/>
        <pt x="348" y="458" on="0"/>
        <pt x="319" y="565" on="0"/>
        <pt x="297" y="621" on="1"/>
        <pt x="338" y="591" on="1"/>
        <pt x="272" y="591" on="1"/>
        <pt x="315" y="621" on="1"/>
        <pt x="289" y="563" on="0"/>
        <pt x="253" y="444" on="0"/>
        <pt x="229" y="302" on="0"/>
        <pt x="218" y="121" on="0"/>
      </contour>
    </TTGlyph>
    <TTGlyph name="B" xMin="15" yMin="-10" xMax="540" yMax="720">
      <contour>
        <pt x="276" y="-10" on="1"/>
        <pt x="224" y="-10" on="0"/>
        <pt x="135" y="25" on="0"/>
        <pt x="109" y="51" on="1"/>
        <pt x="75" y="85" on="0"/>
        <pt x="75" y="125" on="1"/>
        <pt x="75" y="184" on="0"/>
        <pt x="75" y="301" on="0"/>
        <pt x="75" y="417" on="0"/>
        <pt x="75" y="534" on="0"/>
        <pt x="75" y="593" on="1"/>
        <pt x="199" y="593" on="1"/>
        <pt x="199" y="561" on="1"/>
        <pt x="235" y="528" on="0"/>
        <pt x="235" y="455" on="1"/>
        <pt x="235" y="402" on="0"/>
        <pt x="235" y="295" on="0"/>
        <pt x="235" y="189" on="0"/>
        <pt x="235" y="136" on="1"/>
        <pt x="243" y="133" on="0"/>
        <pt x="260" y="131" on="0"/>
        <pt x="269" y="131" on="1"/>
        <pt x="320" y="131" on="0"/>
        <pt x="380" y="175" on="0"/>
        <pt x="380" y="220" on="1"/>
        <pt x="380" y="228" on="1"/>
        <pt x="380" y="258" on="0"/>
        <pt x="346" y="307" on="0"/>
        <pt x="286" y="329" on="1"/>
        <pt x="276" y="329" on="1"/>
        <pt x="276" y="361" on="1"/>
        <pt x="449" y="339" on="1"/>
        <pt x="449" y="320" on="1"/>
        <pt x="485" y="301" on="0"/>
        <pt x="530" y="237" on="0"/>
        <pt x="530" y="202" on="1"/>
        <pt x="530" y="198" on="1"/>
        <pt x="530" y="132" on="0"/>
        <pt x="461" y="39" on="0"/>
        <pt x="346" y="-10" on="0"/>
      </contour>
      <contour>
        <pt x="21" y="700" on="1"/>
        <pt x="85" y="711" on="0"/>
        <pt x="228" y="720" on="0"/>
        <pt x="295" y="720" on="1"/>
        <pt x="355" y="720" on="0"/>
        <pt x="447" y="680" on="0"/>
        <pt x="509" y="616" on="0"/>
        <pt x="540" y="542" on="0"/>
        <pt x="540" y="508" on="1"/>
        <pt x="540" y="501" on="1"/>
        <pt x="540" y="437" on="0"/>
        <pt x="475" y="337" on="0"/>
        <pt x="363" y="279" on="0"/>
        <pt x="293" y="279" on="1"/>
        <pt x="275" y="279" on="0"/>
        <pt x="250" y="287" on="0"/>
        <pt x="241" y="296" on="1"/>
        <pt x="213" y="296" on="1"/>
        <pt x="213" y="403" on="1"/>
        <pt x="227" y="395" on="0"/>
        <pt x="245" y="390" on="0"/>
        <pt x="266" y="390" on="1"/>
        <pt x="322" y="390" on="0"/>
        <pt x="390" y="444" on="0"/>
        <pt x="390" y="501" on="1"/>
        <pt x="390" y="509" on="1"/>
        <pt x="390" y="537" on="0"/>
        <pt x="383" y="558" on="1"/>
        <pt x="364" y="564" on="0"/>
        <pt x="309" y="570" on="0"/>
        <pt x="274" y="570" on="1"/>
        <pt x="219" y="570" on="0"/>
        <pt x="129" y="560" on="0"/>
        <pt x="70" y="550" on="0"/>
        <pt x="59" y="550" on="1"/>
        <pt x="36" y="550" on="0"/>
        <pt x="15" y="595" on="0"/>
        <pt x="15" y="643" on="1"/>
        <pt x="15" y="660" on="0"/>
        <pt x="18" y="687" on="0"/>
      </contour>
    </TTGlyph>
    <TTGlyph name="C" xMin="56" yMin="-20" xMax="550" yMax="720">
      <contour>
        <pt x="336" y="-20" on="1"/>
        <pt x="252" y="-20" on="0"/>
        <pt x="126" y="53" on="0"/>
        <pt x="56" y="183" on="0"/>
        <pt x="56" y="268" on="1"/>
        <pt x="56" y="294" on="1"/>
        <pt x="56" y="419" on="0"/>
        <pt x="131" y="611" on="0"/>
        <pt x="267" y="720" on="0"/>
        <pt x="357" y="720" on="1"/>
        <pt x="400" y="720" on="0"/>
        <pt x="459" y="691" on="0"/>
        <pt x="484" y="665" on="1"/>
        <pt x="504" y="646" on="0"/>
        <pt x="526" y="604" on="0"/>
        <pt x="535" y="558" on="0"/>
        <pt x="535" y="531" on="1"/>
        <pt x="535" y="498" on="0"/>
        <pt x="535" y="433" on="0"/>
        <pt x="535" y="404" on="1"/>
        <pt x="510" y="394" on="0"/>
        <pt x="471" y="394" on="1"/>
        <pt x="425" y="394" on="0"/>
        <pt x="375" y="426" on="0"/>
        <pt x="375" y="466" on="1"/>
        <pt x="375" y="490" on="0"/>
        <pt x="385" y="556" on="0"/>
        <pt x="395" y="609" on="1"/>
        <pt x="404" y="569" on="1"/>
        <pt x="383" y="582" on="0"/>
        <pt x="363" y="582" on="1"/>
        <pt x="322" y="582" on="0"/>
        <pt x="254" y="504" on="0"/>
        <pt x="214" y="374" on="0"/>
        <pt x="214" y="295" on="1"/>
        <pt x="214" y="277" on="1"/>
        <pt x="214" y="246" on="0"/>
        <pt x="217" y="196" on="0"/>
        <pt x="221" y="172" on="1"/>
        <pt x="247" y="150" on="0"/>
        <pt x="309" y="130" on="0"/>
        <pt x="349" y="130" on="1"/>
        <pt x="399" y="130" on="0"/>
        <pt x="499" y="175" on="0"/>
        <pt x="537" y="218" on="1"/>
        <pt x="543" y="218" on="1"/>
        <pt x="547" y="205" on="0"/>
        <pt x="550" y="175" on="0"/>
        <pt x="550" y="162" on="1"/>
        <pt x="550" y="114" on="0"/>
        <pt x="523" y="53" on="0"/>
        <pt x="506" y="36" on="1"/>
        <pt x="480" y="10" on="0"/>
        <pt x="398" y="-20" on="0"/>
      </contour>
    </TTGlyph>
    <TTGlyph name="D" xMin="20" yMin="-10" xMax="558" yMax="720">
      <contour>
        <pt x="558" y="403" on="1"/>
        <pt x="558" y="275" on="0"/>
        <pt x="485" y="90" on="0"/>
        <pt x="354" y="-10" on="0"/>
        <pt x="265" y="-10" on="1"/>
        <pt x="223" y="-10" on="0"/>
        <pt x="139" y="22" on="0"/>
        <pt x="111" y="50" on="1"/>
        <pt x="95" y="67" on="0"/>
        <pt x="75" y="106" on="0"/>
        <pt x="75" y="128" on="1"/>
        <pt x="75" y="186" on="0"/>
        <pt x="75" y="301" on="0"/>
        <pt x="75" y="416" on="0"/>
        <pt x="75" y="531" on="0"/>
        <pt x="75" y="589" on="1"/>
        <pt x="196" y="589" on="1"/>
        <pt x="196" y="561" on="1"/>
        <pt x="215" y="547" on="0"/>
        <pt x="235" y="505" on="0"/>
        <pt x="235" y="475" on="1"/>
        <pt x="235" y="420" on="0"/>
        <pt x="235" y="310" on="0"/>
        <pt x="235" y="200" on="0"/>
        <pt x="235" y="145" on="1"/>
        <pt x="238" y="145" on="0"/>
        <pt x="243" y="145" on="0"/>
        <pt x="246" y="145" on="1"/>
        <pt x="320" y="145" on="0"/>
        <pt x="400" y="274" on="0"/>
        <pt x="400" y="393" on="1"/>
        <pt x="400" y="403" on="1"/>
        <pt x="400" y="453" on="0"/>
        <pt x="394" y="525" on="0"/>
        <pt x="384" y="550" on="1"/>
        <pt x="364" y="560" on="0"/>
        <pt x="315" y="570" on="0"/>
        <pt x="282" y="570" on="1"/>
        <pt x="188" y="570" on="0"/>
        <pt x="80" y="550" on="0"/>
        <pt x="64" y="550" on="1"/>
        <pt x="20" y="550" on="0"/>
        <pt x="20" y="643" on="1"/>
        <pt x="20" y="660" on="0"/>
        <pt x="23" y="687" on="0"/>
        <pt x="26" y="700" on="1"/>
        <pt x="90" y="711" on="0"/>
        <pt x="228" y="720" on="0"/>
        <pt x="296" y="720" on="1"/>
        <pt x="370" y="720" on="0"/>
        <pt x="489" y="654" on="0"/>
        <pt x="558" y="524" on="0"/>
        <pt x="558" y="428" on="1"/>
      </contour>
    </TTGlyph>
    <TTGlyph name="E" xMin="30" yMin="0" xMax="541" yMax="700">
      <contour>
        <pt x="35" y="700" on="1"/>
        <pt x="469" y="700" on="1"/>
        <pt x="499" y="700" on="0"/>
        <pt x="529" y="665" on="0"/>
        <pt x="540" y="620" on="0"/>
        <pt x="540" y="604" on="1"/>
        <pt x="540" y="588" on="0"/>
        <pt x="537" y="561" on="0"/>
        <pt x="533" y="550" on="1"/>
        <pt x="76" y="550" on="1"/>
        <pt x="58" y="550" on="0"/>
        <pt x="38" y="579" on="0"/>
        <pt x="30" y="623" on="0"/>
        <pt x="30" y="645" on="1"/>
        <pt x="30" y="658" on="0"/>
        <pt x="33" y="686" on="0"/>
      </contour>
      <contour>
        <pt x="190" y="400" on="1"/>
        <pt x="409" y="400" on="1"/>
        <pt x="438" y="400" on="0"/>
        <pt x="474" y="372" on="0"/>
        <pt x="490" y="328" on="0"/>
        <pt x="490" y="304" on="1"/>
        <pt x="490" y="293" on="0"/>
        <pt x="489" y="278" on="0"/>
        <pt x="487" y="270" on="1"/>
        <pt x="190" y="270" on="1"/>
      </contour>
      <contour>
        <pt x="250" y="0" on="1"/>
        <pt x="217" y="0" on="0"/>
        <pt x="158" y="24" on="0"/>
        <pt x="111" y="64" on="0"/>
        <pt x="85" y="110" on="0"/>
        <pt x="85" y="132" on="1"/>
        <pt x="85" y="187" on="0"/>
        <pt x="85" y="297" on="0"/>
        <pt x="85" y="408" on="0"/>
        <pt x="85" y="518" on="0"/>
        <pt x="85" y="573" on="1"/>
        <pt x="207" y="573" on="1"/>
        <pt x="207" y="544" on="1"/>
        <pt x="227" y="531" on="0"/>
        <pt x="245" y="489" on="0"/>
        <pt x="245" y="457" on="1"/>
        <pt x="245" y="406" on="0"/>
        <pt x="245" y="304" on="0"/>
        <pt x="245" y="201" on="0"/>
        <pt x="245" y="150" on="1"/>
        <pt x="429" y="150" on="1"/>
        <pt x="474" y="150" on="0"/>
        <pt x="541" y="108" on="0"/>
        <pt x="541" y="58" on="1"/>
        <pt x="541" y="42" on="0"/>
        <pt x="538" y="11" on="0"/>
        <pt x="535" y="0" on="1"/>
      </contour>
    </TTGlyph>
    <TTGlyph name="F" xMin="30" yMin="-6" xMax="540" yMax="700">
      <contour>
        <pt x="276" y="0" on="1"/>
        <pt x="263" y="-3" on="0"/>
        <pt x="240" y="-6" on="0"/>
        <pt x="223" y="-6" on="1"/>
        <pt x="162" y="-6" on="0"/>
        <pt x="105" y="45" on="0"/>
        <pt x="105" y="103" on="1"/>
        <pt x="105" y="162" on="0"/>
        <pt x="105" y="280" on="0"/>
        <pt x="105" y="397" on="0"/>
        <pt x="105" y="515" on="0"/>
        <pt x="105" y="574" on="1"/>
        <pt x="227" y="574" on="1"/>
        <pt x="227" y="544" on="1"/>
        <pt x="247" y="532" on="0"/>
        <pt x="265" y="487" on="0"/>
        <pt x="265" y="455" on="1"/>
        <pt x="265" y="395" on="0"/>
        <pt x="265" y="276" on="0"/>
        <pt x="265" y="156" on="0"/>
        <pt x="265" y="96" on="1"/>
        <pt x="265" y="73" on="0"/>
        <pt x="269" y="23" on="0"/>
      </contour>
      <contour>
        <pt x="35" y="700" on="1"/>
        <pt x="469" y="700" on="1"/>
        <pt x="499" y="700" on="0"/>
        <pt x="529" y="665" on="0"/>
        <pt x="540" y="620" on="0"/>
        <pt x="540" y="604" on="1"/>
        <pt x="540" y="588" on="0"/>
        <pt x="537" y="561" on="0"/>
        <pt x="533" y="550" on="1"/>
        <pt x="83" y="550" on="1"/>
        <pt x="62" y="550" on="0"/>
        <pt x="39" y="579" on="0"/>
        <pt x="30" y="623" on="0"/>
        <pt x="30" y="645" on="1"/>
        <pt x="30" y="658" on="0"/>
        <pt x="33" y="686" on="0"/>
      </contour>
      <contour>
        <pt x="200" y="350" on="1"/>
        <pt x="391" y="350" on="1"/>
        <pt x="440" y="350" on="0"/>
        <pt x="490" y="290" on="0"/>
        <pt x="490" y="249" on="1"/>
        <pt x="490" y="238" on="0"/>
        <pt x="488" y="219" on="0"/>
        <pt x="486" y="210" on="1"/>
        <pt x="200" y="210" on="1"/>
      </contour>
    </TTGlyph>
    <TTGlyph name="G" xMin="52" yMin="-20" xMax="571" yMax="720">
      <contour>
        <pt x="318" y="355" on="1"/>
        <pt x="503" y="355" on="1"/>
        <pt x="542" y="355" on="0"/>
        <pt x="571" y="303" on="0"/>
        <pt x="571" y="235" on="1"/>
        <pt x="571" y="226" on="1"/>
        <pt x="471" y="226" on="1"/>
        <pt x="413" y="226" on="0"/>
        <pt x="345" y="247" on="0"/>
        <pt x="315" y="293" on="0"/>
        <pt x="315" y="328" on="1"/>
        <pt x="315" y="335" on="0"/>
        <pt x="317" y="351" on="0"/>
      </contour>
      <contour>
        <pt x="347" y="720" on="1"/>
        <pt x="390" y="720" on="0"/>
        <pt x="449" y="691" on="0"/>
        <pt x="474" y="665" on="1"/>
        <pt x="503" y="636" on="0"/>
        <pt x="525" y="578" on="0"/>
        <pt x="525" y="531" on="1"/>
        <pt x="525" y="512" on="0"/>
        <pt x="525" y="476" on="0"/>
        <pt x="525" y="459" on="1"/>
        <pt x="500" y="449" on="0"/>
        <pt x="461" y="449" on="1"/>
        <pt x="419" y="449" on="0"/>
        <pt x="373" y="479" on="0"/>
        <pt x="373" y="516" on="1"/>
        <pt x="373" y="532" on="0"/>
        <pt x="383" y="575" on="0"/>
        <pt x="396" y="609" on="1"/>
        <pt x="393" y="575" on="1"/>
        <pt x="385" y="580" on="0"/>
        <pt x="369" y="584" on="0"/>
        <pt x="359" y="584" on="1"/>
        <pt x="315" y="584" on="0"/>
        <pt x="242" y="505" on="0"/>
        <pt x="200" y="374" on="0"/>
        <pt x="200" y="295" on="1"/>
        <pt x="200" y="277" on="1"/>
        <pt x="200" y="246" on="0"/>
        <pt x="203" y="196" on="0"/>
        <pt x="207" y="172" on="1"/>
        <pt x="235" y="150" on="0"/>
        <pt x="302" y="130" on="0"/>
        <pt x="345" y="130" on="1"/>
        <pt x="383" y="130" on="0"/>
        <pt x="441" y="176" on="0"/>
        <pt x="441" y="213" on="1"/>
        <pt x="441" y="223" on="0"/>
        <pt x="439" y="238" on="0"/>
        <pt x="437" y="245" on="1"/>
        <pt x="510" y="245" on="1"/>
        <pt x="510" y="220" on="1"/>
        <pt x="527" y="208" on="0"/>
        <pt x="546" y="173" on="0"/>
        <pt x="546" y="144" on="1"/>
        <pt x="546" y="110" on="0"/>
        <pt x="517" y="54" on="0"/>
        <pt x="500" y="37" on="1"/>
        <pt x="475" y="12" on="0"/>
        <pt x="393" y="-20" on="0"/>
        <pt x="332" y="-20" on="1"/>
        <pt x="269" y="-20" on="0"/>
        <pt x="166" y="22" on="0"/>
        <pt x="92" y="98" on="0"/>
        <pt x="52" y="204" on="0"/>
        <pt x="52" y="268" on="1"/>
        <pt x="52" y="294" on="1"/>
        <pt x="52" y="419" on="0"/>
        <pt x="127" y="611" on="0"/>
        <pt x="261" y="720" on="0"/>
      </contour>
    </TTGlyph>
    <TTGlyph name="H" xMin="25" yMin="-8" xMax="549" yMax="708">
      <contour>
        <pt x="62" y="700" on="1"/>
        <pt x="79" y="704" on="0"/>
        <pt x="110" y="708" on="0"/>
        <pt x="129" y="708" on="1"/>
        <pt x="185" y="708" on="0"/>
        <pt x="231" y="653" on="0"/>
        <pt x="231" y="607" on="1"/>
        <pt x="231" y="531" on="0"/>
        <pt x="231" y="379" on="0"/>
        <pt x="231" y="228" on="0"/>
        <pt x="231" y="76" on="0"/>
        <pt x="231" y="0" on="1"/>
        <pt x="215" y="-4" on="0"/>
        <pt x="188" y="-8" on="0"/>
        <pt x="170" y="-8" on="1"/>
        <pt x="122" y="-8" on="0"/>
        <pt x="75" y="45" on="0"/>
        <pt x="75" y="120" on="1"/>
        <pt x="75" y="199" on="0"/>
        <pt x="75" y="355" on="0"/>
        <pt x="75" y="511" on="0"/>
        <pt x="75" y="590" on="1"/>
        <pt x="75" y="620" on="0"/>
        <pt x="69" y="675" on="0"/>
      </contour>
      <contour>
        <pt x="25" y="400" on="1"/>
        <pt x="272" y="400" on="1"/>
        <pt x="304" y="400" on="0"/>
        <pt x="355" y="386" on="0"/>
        <pt x="374" y="370" on="1"/>
        <pt x="409" y="385" on="1"/>
        <pt x="409" y="260" on="1"/>
        <pt x="85" y="260" on="1"/>
        <pt x="47" y="260" on="0"/>
        <pt x="25" y="319" on="0"/>
        <pt x="25" y="375" on="1"/>
      </contour>
      <contour>
        <pt x="549" y="0" on="1"/>
        <pt x="532" y="-4" on="0"/>
        <pt x="501" y="-8" on="0"/>
        <pt x="482" y="-8" on="1"/>
        <pt x="435" y="-8" on="0"/>
        <pt x="380" y="52" on="0"/>
        <pt x="380" y="111" on="1"/>
        <pt x="380" y="184" on="0"/>
        <pt x="380" y="330" on="0"/>
        <pt x="380" y="476" on="0"/>
        <pt x="380" y="624" on="0"/>
        <pt x="380" y="700" on="1"/>
        <pt x="395" y="704" on="0"/>
        <pt x="425" y="708" on="0"/>
        <pt x="442" y="708" on="1"/>
        <pt x="465" y="708" on="0"/>
        <pt x="500" y="699" on="0"/>
        <pt x="524" y="675" on="0"/>
        <pt x="536" y="635" on="0"/>
        <pt x="536" y="603" on="1"/>
        <pt x="536" y="535" on="0"/>
        <pt x="536" y="375" on="0"/>
        <pt x="536" y="201" on="0"/>
        <pt x="536" y="113" on="1"/>
        <pt x="536" y="83" on="0"/>
        <pt x="542" y="27" on="0"/>
      </contour>
    </TTGlyph>
    <TTGlyph name="I" xMin="45" yMin="0" xMax="555" yMax="700">
      <contour>
        <pt x="380" y="122" on="1"/>
        <pt x="248" y="122" on="1"/>
        <pt x="258" y="156" on="1"/>
        <pt x="240" y="167" on="0"/>
        <pt x="220" y="218" on="0"/>
        <pt x="220" y="252" on="1"/>
        <pt x="220" y="307" on="0"/>
        <pt x="220" y="415" on="0"/>
        <pt x="220" y="524" on="0"/>
        <pt x="220" y="578" on="1"/>
        <pt x="352" y="578" on="1"/>
        <pt x="342" y="544" on="1"/>
        <pt x="360" y="533" on="0"/>
        <pt x="380" y="482" on="0"/>
        <pt x="380" y="448" on="1"/>
        <pt x="380" y="407" on="0"/>
        <pt x="380" y="326" on="0"/>
        <pt x="380" y="244" on="0"/>
        <pt x="380" y="163" on="0"/>
      </contour>
      <contour>
        <pt x="548" y="0" on="1"/>
        <pt x="107" y="0" on="1"/>
        <pt x="73" y="0" on="0"/>
        <pt x="45" y="47" on="0"/>
        <pt x="45" y="88" on="1"/>
        <pt x="45" y="105" on="0"/>
        <pt x="49" y="139" on="0"/>
        <pt x="52" y="150" on="1"/>
        <pt x="402" y="150" on="1"/>
        <pt x="463" y="150" on="0"/>
        <pt x="529" y="122" on="0"/>
        <pt x="555" y="74" on="0"/>
        <pt x="555" y="45" on="1"/>
        <pt x="555" y="33" on="0"/>
        <pt x="551" y="11" on="0"/>
      </contour>
      <contour>
        <pt x="50" y="700" on="1"/>
        <pt x="493" y="700" on="1"/>
        <pt x="534" y="700" on="0"/>
        <pt x="555" y="646" on="0"/>
        <pt x="555" y="608" on="1"/>
        <pt x="555" y="595" on="0"/>
        <pt x="551" y="565" on="0"/>
        <pt x="547" y="550" on="1"/>
        <pt x="199" y="550" on="1"/>
        <pt x="120" y="550" on="0"/>
        <pt x="45" y="600" on="0"/>
        <pt x="45" y="658" on="1"/>
        <pt x="45" y="669" on="0"/>
        <pt x="48" y="693" on="0"/>
      </contour>
    </TTGlyph>
    <TTGlyph name="J" xMin="90" yMin="-20" xMax="515" yMax="710">
      <contour>
        <pt x="278" y="130" on="1"/>
        <pt x="300" y="130" on="0"/>
        <pt x="334" y="137" on="0"/>
        <pt x="350" y="144" on="1"/>
        <pt x="354" y="163" on="0"/>
        <pt x="356" y="205" on="0"/>
        <pt x="356" y="230" on="1"/>
        <pt x="356" y="285" on="0"/>
        <pt x="356" y="399" on="0"/>
        <pt x="356" y="528" on="0"/>
        <pt x="356" y="603" on="1"/>
        <pt x="383" y="559" on="1"/>
        <pt x="325" y="587" on="1"/>
        <pt x="379" y="588" on="1"/>
        <pt x="322" y="563" on="0"/>
        <pt x="230" y="540" on="0"/>
        <pt x="191" y="540" on="1"/>
        <pt x="157" y="540" on="0"/>
        <pt x="120" y="588" on="0"/>
        <pt x="120" y="637" on="1"/>
        <pt x="120" y="657" on="0"/>
        <pt x="123" y="689" on="0"/>
        <pt x="126" y="700" on="1"/>
        <pt x="187" y="705" on="0"/>
        <pt x="309" y="710" on="0"/>
        <pt x="370" y="710" on="1"/>
        <pt x="447" y="710" on="0"/>
        <pt x="515" y="663" on="0"/>
        <pt x="515" y="614" on="1"/>
        <pt x="515" y="572" on="0"/>
        <pt x="515" y="477" on="0"/>
        <pt x="515" y="374" on="0"/>
        <pt x="515" y="265" on="0"/>
        <pt x="515" y="210" on="1"/>
        <pt x="515" y="173" on="0"/>
        <pt x="483" y="92" on="0"/>
        <pt x="420" y="23" on="0"/>
        <pt x="327" y="-20" on="0"/>
        <pt x="265" y="-20" on="1"/>
        <pt x="218" y="-20" on="0"/>
        <pt x="143" y="2" on="0"/>
        <pt x="123" y="21" on="1"/>
        <pt x="107" y="38" on="0"/>
        <pt x="90" y="82" on="0"/>
        <pt x="90" y="116" on="1"/>
        <pt x="90" y="140" on="0"/>
        <pt x="94" y="173" on="0"/>
        <pt x="97" y="185" on="1"/>
        <pt x="103" y="185" on="1"/>
        <pt x="146" y="157" on="0"/>
        <pt x="230" y="130" on="0"/>
      </contour>
    </TTGlyph>
    <TTGlyph name="K" xMin="62" yMin="-20" xMax="574" yMax="710">
      <contour>
        <pt x="361" y="376" on="1"/>
        <pt x="384" y="333" on="0"/>
        <pt x="432" y="246" on="0"/>
        <pt x="455" y="202" on="1"/>
        <pt x="470" y="174" on="0"/>
        <pt x="503" y="149" on="0"/>
        <pt x="522" y="149" on="1"/>
        <pt x="536" y="149" on="0"/>
        <pt x="554" y="154" on="0"/>
        <pt x="561" y="159" on="1"/>
        <pt x="567" y="159" on="1"/>
        <pt x="571" y="143" on="0"/>
        <pt x="574" y="112" on="0"/>
        <pt x="574" y="89" on="1"/>
        <pt x="574" y="25" on="0"/>
        <pt x="549" y="0" on="1"/>
        <pt x="529" y="-20" on="0"/>
        <pt x="489" y="-20" on="1"/>
        <pt x="452" y="-20" on="0"/>
        <pt x="392" y="20" on="0"/>
        <pt x="366" y="68" on="1"/>
        <pt x="351" y="97" on="0"/>
        <pt x="329" y="141" on="0"/>
        <pt x="306" y="200" on="0"/>
        <pt x="287" y="250" on="1"/>
        <pt x="247" y="250" on="1"/>
      </contour>
      <contour>
        <pt x="427" y="710" on="1"/>
        <pt x="492" y="710" on="0"/>
        <pt x="561" y="669" on="0"/>
        <pt x="561" y="640" on="1"/>
        <pt x="561" y="610" on="0"/>
        <pt x="548" y="547" on="0"/>
        <pt x="526" y="498" on="1"/>
        <pt x="507" y="452" on="0"/>
        <pt x="434" y="363" on="0"/>
        <pt x="343" y="287" on="0"/>
        <pt x="249" y="231" on="0"/>
        <pt x="207" y="217" on="1"/>
        <pt x="207" y="352" on="1"/>
        <pt x="237" y="352" on="1"/>
        <pt x="265" y="378" on="0"/>
        <pt x="317" y="445" on="0"/>
        <pt x="342" y="491" on="1"/>
        <pt x="365" y="532" on="0"/>
        <pt x="401" y="644" on="0"/>
        <pt x="408" y="710" on="1"/>
      </contour>
      <contour>
        <pt x="62" y="700" on="1"/>
        <pt x="79" y="704" on="0"/>
        <pt x="110" y="708" on="0"/>
        <pt x="129" y="708" on="1"/>
        <pt x="185" y="708" on="0"/>
        <pt x="231" y="653" on="0"/>
        <pt x="231" y="607" on="1"/>
        <pt x="231" y="531" on="0"/>
        <pt x="231" y="379" on="0"/>
        <pt x="231" y="228" on="0"/>
        <pt x="231" y="76" on="0"/>
        <pt x="231" y="0" on="1"/>
        <pt x="215" y="-4" on="0"/>
        <pt x="188" y="-8" on="0"/>
        <pt x="170" y="-8" on="1"/>
        <pt x="122" y="-8" on="0"/>
        <pt x="75" y="45" on="0"/>
        <pt x="75" y="120" on="1"/>
        <pt x="75" y="199" on="0"/>
        <pt x="75" y="355" on="0"/>
        <pt x="75" y="511" on="0"/>
        <pt x="75" y="590" on="1"/>
        <pt x="75" y="620" on="0"/>
        <pt x="69" y="675" on="0"/>
      </contour>
    </TTGlyph>
    <TTGlyph name="L" xMin="52" yMin="-45" xMax="559" yMax="710">
      <contour>
        <pt x="163" y="0" on="1"/>
        <pt x="129" y="0" on="0"/>
        <pt x="86" y="50" on="0"/>
        <pt x="65" y="124" on="0"/>
        <pt x="65" y="159" on="1"/>
        <pt x="65" y="231" on="0"/>
        <pt x="65" y="375" on="0"/>
        <pt x="65" y="518" on="0"/>
        <pt x="65" y="590" on="1"/>
        <pt x="65" y="620" on="0"/>
        <pt x="59" y="674" on="0"/>
        <pt x="52" y="700" on="1"/>
        <pt x="69" y="705" on="0"/>
        <pt x="108" y="710" on="0"/>
        <pt x="130" y="710" on="1"/>
        <pt x="166" y="710" on="0"/>
        <pt x="207" y="695" on="0"/>
        <pt x="225" y="657" on="0"/>
        <pt x="225" y="620" on="1"/>
        <pt x="225" y="550" on="0"/>
        <pt x="225" y="393" on="0"/>
        <pt x="225" y="230" on="0"/>
        <pt x="225" y="150" on="1"/>
        <pt x="433" y="150" on="1"/>
        <pt x="463" y="150" on="0"/>
        <pt x="497" y="118" on="0"/>
        <pt x="509" y="51" on="0"/>
        <pt x="503" y="0" on="1"/>
      </contour>
      <contour>
        <pt x="421" y="237" on="1"/>
        <pt x="444" y="243" on="0"/>
        <pt x="479" y="243" on="1"/>
        <pt x="509" y="243" on="0"/>
        <pt x="544" y="231" on="0"/>
        <pt x="559" y="204" on="0"/>
        <pt x="559" y="181" on="1"/>
        <pt x="559" y="120" on="0"/>
        <pt x="522" y="6" on="0"/>
        <pt x="497" y="-45" on="1"/>
        <pt x="460" y="-45" on="0"/>
        <pt x="416" y="-35" on="0"/>
        <pt x="396" y="-16" on="0"/>
        <pt x="396" y="-4" on="1"/>
        <pt x="396" y="32" on="0"/>
        <pt x="409" y="96" on="0"/>
        <pt x="421" y="176" on="0"/>
      </contour>
    </TTGlyph>
    <TTGlyph name="M" xMin="43" yMin="-8" xMax="556" yMax="708">
      <contour>
        <pt x="195" y="0" on="1"/>
        <pt x="187" y="-4" on="0"/>
        <pt x="159" y="-8" on="0"/>
        <pt x="144" y="-8" on="1"/>
        <pt x="121" y="-8" on="0"/>
        <pt x="80" y="8" on="0"/>
        <pt x="55" y="45" on="0"/>
        <pt x="55" y="77" on="1"/>
        <pt x="55" y="164" on="0"/>
        <pt x="55" y="339" on="0"/>
        <pt x="55" y="513" on="0"/>
        <pt x="55" y="600" on="1"/>
        <pt x="55" y="627" on="0"/>
        <pt x="48" y="678" on="0"/>
        <pt x="43" y="700" on="1"/>
        <pt x="62" y="705" on="0"/>
        <pt x="97" y="708" on="0"/>
        <pt x="113" y="708" on="1"/>
        <pt x="148" y="708" on="0"/>
        <pt x="193" y="693" on="0"/>
        <pt x="220" y="660" on="0"/>
        <pt x="226" y="632" on="1"/>
        <pt x="241" y="564" on="0"/>
        <pt x="277" y="445" on="0"/>
        <pt x="314" y="386" on="1"/>
        <pt x="272" y="411" on="1"/>
        <pt x="335" y="411" on="1"/>
        <pt x="290" y="387" on="1"/>
        <pt x="317" y="425" on="0"/>
        <pt x="354" y="517" on="0"/>
        <pt x="379" y="631" on="0"/>
        <pt x="386" y="700" on="1"/>
        <pt x="400" y="704" on="0"/>
        <pt x="428" y="708" on="0"/>
        <pt x="443" y="708" on="1"/>
        <pt x="480" y="708" on="0"/>
        <pt x="524" y="692" on="0"/>
        <pt x="545" y="653" on="0"/>
        <pt x="545" y="620" on="1"/>
        <pt x="545" y="534" on="0"/>
        <pt x="545" y="361" on="0"/>
        <pt x="545" y="188" on="0"/>
        <pt x="545" y="102" on="1"/>
        <pt x="545" y="74" on="0"/>
        <pt x="550" y="23" on="0"/>
        <pt x="556" y="0" on="1"/>
        <pt x="544" y="-4" on="0"/>
        <pt x="522" y="-8" on="0"/>
        <pt x="503" y="-8" on="1"/>
        <pt x="480" y="-8" on="0"/>
        <pt x="435" y="8" on="0"/>
        <pt x="405" y="45" on="0"/>
        <pt x="405" y="77" on="1"/>
        <pt x="405" y="95" on="0"/>
        <pt x="405" y="132" on="0"/>
        <pt x="405" y="150" on="1"/>
        <pt x="405" y="180" on="0"/>
        <pt x="409" y="261" on="0"/>
        <pt x="423" y="390" on="0"/>
        <pt x="439" y="492" on="1"/>
        <pt x="462" y="462" on="1"/>
        <pt x="399" y="462" on="1"/>
        <pt x="437" y="488" on="1"/>
        <pt x="404" y="395" on="0"/>
        <pt x="340" y="274" on="0"/>
        <pt x="306" y="245" on="1"/>
        <pt x="297" y="245" on="1"/>
        <pt x="289" y="245" on="0"/>
        <pt x="284" y="250" on="1"/>
        <pt x="260" y="274" on="0"/>
        <pt x="201" y="393" on="0"/>
        <pt x="164" y="489" on="1"/>
        <pt x="203" y="462" on="1"/>
        <pt x="140" y="462" on="1"/>
        <pt x="164" y="492" on="1"/>
        <pt x="175" y="416" on="0"/>
        <pt x="187" y="309" on="0"/>
        <pt x="193" y="234" on="0"/>
        <pt x="195" y="176" on="0"/>
        <pt x="195" y="150" on="1"/>
        <pt x="195" y="113" on="0"/>
        <pt x="195" y="38" on="0"/>
      </contour>
    </TTGlyph>
    <TTGlyph name="N" xMin="62" yMin="-10" xMax="547" yMax="708">
      <contour>
        <pt x="215" y="0" on="1"/>
        <pt x="205" y="-3" on="0"/>
        <pt x="183" y="-7" on="0"/>
        <pt x="166" y="-7" on="1"/>
        <pt x="135" y="-7" on="0"/>
        <pt x="94" y="18" on="0"/>
        <pt x="75" y="69" on="0"/>
        <pt x="75" y="107" on="1"/>
        <pt x="75" y="167" on="0"/>
        <pt x="75" y="288" on="0"/>
        <pt x="75" y="409" on="0"/>
        <pt x="75" y="530" on="0"/>
        <pt x="75" y="590" on="1"/>
        <pt x="75" y="648" on="0"/>
        <pt x="62" y="700" on="1"/>
        <pt x="82" y="705" on="0"/>
        <pt x="111" y="708" on="0"/>
        <pt x="130" y="708" on="1"/>
        <pt x="187" y="708" on="0"/>
        <pt x="265" y="665" on="0"/>
        <pt x="274" y="615" on="1"/>
        <pt x="285" y="553" on="0"/>
        <pt x="320" y="426" on="0"/>
        <pt x="377" y="282" on="0"/>
        <pt x="422" y="195" on="1"/>
        <pt x="381" y="215" on="1"/>
        <pt x="451" y="215" on="1"/>
        <pt x="423" y="192" on="1"/>
        <pt x="411" y="255" on="0"/>
        <pt x="399" y="357" on="0"/>
        <pt x="395" y="458" on="0"/>
        <pt x="395" y="520" on="1"/>
        <pt x="395" y="566" on="0"/>
        <pt x="395" y="655" on="0"/>
        <pt x="395" y="700" on="1"/>
        <pt x="403" y="704" on="0"/>
        <pt x="429" y="708" on="0"/>
        <pt x="448" y="708" on="1"/>
        <pt x="486" y="708" on="0"/>
        <pt x="535" y="661" on="0"/>
        <pt x="535" y="608" on="1"/>
        <pt x="535" y="527" on="0"/>
        <pt x="535" y="360" on="0"/>
        <pt x="535" y="191" on="0"/>
        <pt x="535" y="106" on="1"/>
        <pt x="535" y="80" on="0"/>
        <pt x="540" y="26" on="0"/>
        <pt x="547" y="0" on="1"/>
        <pt x="533" y="-4" on="0"/>
        <pt x="505" y="-10" on="0"/>
        <pt x="491" y="-10" on="1"/>
        <pt x="465" y="-10" on="0"/>
        <pt x="412" y="10" on="0"/>
        <pt x="386" y="35" on="1"/>
        <pt x="345" y="76" on="0"/>
        <pt x="242" y="305" on="0"/>
        <pt x="192" y="487" on="1"/>
        <pt x="230" y="458" on="1"/>
        <pt x="166" y="458" on="1"/>
        <pt x="189" y="488" on="1"/>
        <pt x="206" y="379" on="0"/>
        <pt x="215" y="199" on="0"/>
        <pt x="215" y="101" on="1"/>
        <pt x="215" y="76" on="0"/>
        <pt x="215" y="26" on="0"/>
      </contour>
    </TTGlyph>
    <TTGlyph name="O" xMin="50" yMin="-20" xMax="550" yMax="720">
      <contour>
        <pt x="303" y="720" on="1"/>
        <pt x="382" y="720" on="0"/>
        <pt x="492" y="644" on="0"/>
        <pt x="550" y="491" on="0"/>
        <pt x="550" y="374" on="1"/>
        <pt x="550" y="358" on="1"/>
        <pt x="550" y="235" on="0"/>
        <pt x="488" y="67" on="0"/>
        <pt x="377" y="-20" on="0"/>
        <pt x="304" y="-20" on="1"/>
        <pt x="180" y="-20" on="0"/>
        <pt x="50" y="151" on="0"/>
        <pt x="50" y="326" on="1"/>
        <pt x="50" y="342" on="1"/>
        <pt x="50" y="527" on="0"/>
        <pt x="188" y="720" on="0"/>
      </contour>
      <contour>
        <pt x="200" y="299" on="1"/>
        <pt x="200" y="240" on="0"/>
        <pt x="219" y="159" on="0"/>
        <pt x="231" y="138" on="1"/>
        <pt x="248" y="132" on="0"/>
        <pt x="274" y="129" on="0"/>
        <pt x="292" y="129" on="1"/>
        <pt x="346" y="129" on="0"/>
        <pt x="400" y="262" on="0"/>
        <pt x="400" y="388" on="1"/>
        <pt x="400" y="401" on="1"/>
        <pt x="400" y="460" on="0"/>
        <pt x="382" y="539" on="0"/>
        <pt x="371" y="559" on="1"/>
        <pt x="353" y="567" on="0"/>
        <pt x="328" y="571" on="0"/>
        <pt x="308" y="571" on="1"/>
        <pt x="254" y="571" on="0"/>
        <pt x="200" y="438" on="0"/>
        <pt x="200" y="312" on="1"/>
      </contour>
    </TTGlyph>
    <TTGlyph name="P" xMin="15" yMin="-6" xMax="550" yMax="720">
      <contour>
        <pt x="246" y="0" on="1"/>
        <pt x="233" y="-3" on="0"/>
        <pt x="210" y="-6" on="0"/>
        <pt x="193" y="-6" on="1"/>
        <pt x="132" y="-6" on="0"/>
        <pt x="75" y="45" on="0"/>
        <pt x="75" y="103" on="1"/>
        <pt x="75" y="164" on="0"/>
        <pt x="75" y="286" on="0"/>
        <pt x="75" y="408" on="0"/>
        <pt x="75" y="530" on="0"/>
        <pt x="75" y="591" on="1"/>
        <pt x="197" y="591" on="1"/>
        <pt x="197" y="560" on="1"/>
        <pt x="235" y="537" on="0"/>
        <pt x="235" y="472" on="1"/>
        <pt x="235" y="409" on="0"/>
        <pt x="235" y="284" on="0"/>
        <pt x="235" y="159" on="0"/>
        <pt x="235" y="96" on="1"/>
        <pt x="235" y="73" on="0"/>
        <pt x="239" y="23" on="0"/>
      </contour>
      <contour>
        <pt x="21" y="700" on="1"/>
        <pt x="85" y="711" on="0"/>
        <pt x="228" y="720" on="0"/>
        <pt x="295" y="720" on="1"/>
        <pt x="369" y="720" on="0"/>
        <pt x="484" y="660" on="0"/>
        <pt x="550" y="559" on="0"/>
        <pt x="550" y="499" on="1"/>
        <pt x="550" y="492" on="1"/>
        <pt x="550" y="378" on="0"/>
        <pt x="488" y="230" on="0"/>
        <pt x="387" y="158" on="0"/>
        <pt x="329" y="158" on="1"/>
        <pt x="302" y="158" on="0"/>
        <pt x="257" y="188" on="0"/>
        <pt x="241" y="215" on="1"/>
        <pt x="210" y="215" on="1"/>
        <pt x="210" y="311" on="1"/>
        <pt x="228" y="306" on="0"/>
        <pt x="266" y="300" on="0"/>
        <pt x="288" y="300" on="1"/>
        <pt x="335" y="300" on="0"/>
        <pt x="392" y="387" on="0"/>
        <pt x="392" y="488" on="1"/>
        <pt x="392" y="503" on="1"/>
        <pt x="392" y="516" on="0"/>
        <pt x="390" y="539" on="0"/>
        <pt x="388" y="549" on="1"/>
        <pt x="369" y="560" on="0"/>
        <pt x="317" y="570" on="0"/>
        <pt x="282" y="570" on="1"/>
        <pt x="225" y="570" on="0"/>
        <pt x="132" y="560" on="0"/>
        <pt x="70" y="550" on="0"/>
        <pt x="59" y="550" on="1"/>
        <pt x="15" y="550" on="0"/>
        <pt x="15" y="643" on="1"/>
        <pt x="15" y="675" on="0"/>
      </contour>
    </TTGlyph>
    <TTGlyph name="Q" xMin="50" yMin="-178" xMax="582" yMax="720">
      <contour>
        <pt x="435" y="132" on="1"/>
        <pt x="438" y="108" on="0"/>
        <pt x="452" y="63" on="0"/>
        <pt x="463" y="42" on="1"/>
        <pt x="478" y="14" on="0"/>
        <pt x="512" y="-10" on="0"/>
        <pt x="534" y="-10" on="1"/>
        <pt x="547" y="-10" on="0"/>
        <pt x="560" y="-6" on="0"/>
        <pt x="569" y="-1" on="1"/>
        <pt x="575" y="-1" on="1"/>
        <pt x="582" y="-30" on="0"/>
        <pt x="582" y="-63" on="1"/>
        <pt x="582" y="-100" on="0"/>
        <pt x="565" y="-145" on="0"/>
        <pt x="552" y="-158" on="1"/>
        <pt x="541" y="-169" on="0"/>
        <pt x="516" y="-178" on="0"/>
        <pt x="499" y="-178" on="1"/>
        <pt x="461" y="-178" on="0"/>
        <pt x="402" y="-141" on="0"/>
        <pt x="380" y="-98" on="1"/>
        <pt x="359" y="-55" on="0"/>
        <pt x="335" y="23" on="0"/>
        <pt x="330" y="66" on="1"/>
      </contour>
      <contour>
        <pt x="303" y="720" on="1"/>
        <pt x="382" y="720" on="0"/>
        <pt x="492" y="644" on="0"/>
        <pt x="550" y="491" on="0"/>
        <pt x="550" y="374" on="1"/>
        <pt x="550" y="358" on="1"/>
        <pt x="550" y="235" on="0"/>
        <pt x="488" y="67" on="0"/>
        <pt x="377" y="-20" on="0"/>
        <pt x="304" y="-20" on="1"/>
        <pt x="180" y="-20" on="0"/>
        <pt x="50" y="151" on="0"/>
        <pt x="50" y="326" on="1"/>
        <pt x="50" y="342" on="1"/>
        <pt x="50" y="527" on="0"/>
        <pt x="188" y="720" on="0"/>
      </contour>
      <contour>
        <pt x="200" y="299" on="1"/>
        <pt x="200" y="240" on="0"/>
        <pt x="219" y="159" on="0"/>
        <pt x="231" y="138" on="1"/>
        <pt x="248" y="132" on="0"/>
        <pt x="274" y="129" on="0"/>
        <pt x="292" y="129" on="1"/>
        <pt x="346" y="129" on="0"/>
        <pt x="400" y="262" on="0"/>
        <pt x="400" y="388" on="1"/>
        <pt x="400" y="401" on="1"/>
        <pt x="400" y="460" on="0"/>
        <pt x="382" y="539" on="0"/>
        <pt x="371" y="559" on="1"/>
        <pt x="353" y="567" on="0"/>
        <pt x="328" y="571" on="0"/>
        <pt x="308" y="571" on="1"/>
        <pt x="254" y="571" on="0"/>
        <pt x="200" y="438" on="0"/>
        <pt x="200" y="312" on="1"/>
      </contour>
    </TTGlyph>
    <TTGlyph name="R" xMin="15" yMin="-20" xMax="574" yMax="720">
      <contour>
        <pt x="427" y="292" on="1"/>
        <pt x="430" y="268" on="0"/>
        <pt x="444" y="223" on="0"/>
        <pt x="455" y="202" on="1"/>
        <pt x="470" y="174" on="0"/>
        <pt x="504" y="150" on="0"/>
        <pt x="526" y="150" on="1"/>
        <pt x="539" y="150" on="0"/>
        <pt x="552" y="154" on="0"/>
        <pt x="561" y="159" on="1"/>
        <pt x="567" y="159" on="1"/>
        <pt x="574" y="130" on="0"/>
        <pt x="574" y="97" on="1"/>
        <pt x="574" y="59" on="0"/>
        <pt x="561" y="11" on="0"/>
        <pt x="550" y="0" on="1"/>
        <pt x="539" y="-11" on="0"/>
        <pt x="514" y="-20" on="0"/>
        <pt x="497" y="-20" on="1"/>
        <pt x="457" y="-20" on="0"/>
        <pt x="395" y="18" on="0"/>
        <pt x="372" y="62" on="1"/>
        <pt x="351" y="105" on="0"/>
        <pt x="327" y="183" on="0"/>
        <pt x="322" y="226" on="1"/>
      </contour>
      <contour>
        <pt x="21" y="700" on="1"/>
        <pt x="81" y="710" on="0"/>
        <pt x="215" y="720" on="0"/>
        <pt x="278" y="720" on="1"/>
        <pt x="349" y="720" on="0"/>
        <pt x="449" y="682" on="0"/>
        <pt x="511" y="619" on="0"/>
        <pt x="540" y="545" on="0"/>
        <pt x="540" y="509" on="1"/>
        <pt x="540" y="498" on="1"/>
        <pt x="540" y="426" on="0"/>
        <pt x="500" y="312" on="0"/>
        <pt x="432" y="232" on="0"/>
        <pt x="348" y="190" on="0"/>
        <pt x="305" y="190" on="1"/>
        <pt x="285" y="190" on="0"/>
        <pt x="252" y="200" on="0"/>
        <pt x="241" y="211" on="1"/>
        <pt x="202" y="211" on="1"/>
        <pt x="202" y="323" on="1"/>
        <pt x="213" y="319" on="0"/>
        <pt x="237" y="316" on="0"/>
        <pt x="266" y="316" on="1"/>
        <pt x="319" y="316" on="0"/>
        <pt x="382" y="400" on="0"/>
        <pt x="382" y="488" on="1"/>
        <pt x="382" y="503" on="1"/>
        <pt x="382" y="531" on="0"/>
        <pt x="375" y="556" on="1"/>
        <pt x="337" y="570" on="0"/>
        <pt x="282" y="570" on="1"/>
        <pt x="227" y="570" on="0"/>
        <pt x="134" y="560" on="0"/>
        <pt x="71" y="550" on="0"/>
        <pt x="59" y="550" on="1"/>
        <pt x="15" y="550" on="0"/>
        <pt x="15" y="643" on="1"/>
        <pt x="15" y="660" on="0"/>
        <pt x="18" y="687" on="0"/>
      </contour>
      <contour>
        <pt x="246" y="0" on="1"/>
        <pt x="233" y="-3" on="0"/>
        <pt x="210" y="-6" on="0"/>
        <pt x="193" y="-6" on="1"/>
        <pt x="132" y="-6" on="0"/>
        <pt x="75" y="45" on="0"/>
        <pt x="75" y="103" on="1"/>
        <pt x="75" y="164" on="0"/>
        <pt x="75" y="286" on="0"/>
        <pt x="75" y="408" on="0"/>
        <pt x="75" y="530" on="0"/>
        <pt x="75" y="591" on="1"/>
        <pt x="197" y="591" on="1"/>
        <pt x="197" y="560" on="1"/>
        <pt x="235" y="537" on="0"/>
        <pt x="235" y="472" on="1"/>
        <pt x="235" y="409" on="0"/>
        <pt x="235" y="284" on="0"/>
        <pt x="235" y="159" on="0"/>
        <pt x="235" y="96" on="1"/>
        <pt x="235" y="73" on="0"/>
        <pt x="239" y="23" on="0"/>
      </contour>
    </TTGlyph>
    <TTGlyph name="S" xMin="50" yMin="-20" xMax="550" yMax="720">
      <contour>
        <pt x="363" y="720" on="1"/>
        <pt x="401" y="720" on="0"/>
        <pt x="459" y="691" on="0"/>
        <pt x="484" y="665" on="1"/>
        <pt x="510" y="639" on="0"/>
        <pt x="525" y="578" on="0"/>
        <pt x="525" y="541" on="1"/>
        <pt x="525" y="514" on="0"/>
        <pt x="525" y="462" on="0"/>
        <pt x="525" y="439" on="1"/>
        <pt x="515" y="435" on="0"/>
        <pt x="487" y="429" on="0"/>
        <pt x="471" y="429" on="1"/>
        <pt x="425" y="429" on="0"/>
        <pt x="375" y="461" on="0"/>
        <pt x="375" y="501" on="1"/>
        <pt x="375" y="519" on="0"/>
        <pt x="387" y="568" on="0"/>
        <pt x="395" y="609" on="1"/>
        <pt x="416" y="557" on="1"/>
        <pt x="403" y="565" on="0"/>
        <pt x="384" y="570" on="0"/>
        <pt x="370" y="570" on="1"/>
        <pt x="346" y="570" on="0"/>
        <pt x="294" y="548" on="0"/>
        <pt x="249" y="512" on="0"/>
        <pt x="220" y="468" on="0"/>
        <pt x="220" y="445" on="1"/>
        <pt x="220" y="441" on="1"/>
        <pt x="222" y="418" on="0"/>
        <pt x="256" y="390" on="0"/>
        <pt x="299" y="374" on="1"/>
        <pt x="393" y="340" on="1"/>
        <pt x="442" y="322" on="0"/>
        <pt x="504" y="281" on="0"/>
        <pt x="537" y="238" on="0"/>
        <pt x="550" y="196" on="0"/>
        <pt x="550" y="178" on="1"/>
        <pt x="550" y="162" on="1"/>
        <pt x="550" y="79" on="0"/>
        <pt x="430" y="-20" on="0"/>
        <pt x="300" y="-20" on="1"/>
        <pt x="229" y="-20" on="0"/>
        <pt x="111" y="12" on="0"/>
        <pt x="87" y="36" on="1"/>
        <pt x="71" y="52" on="0"/>
        <pt x="50" y="113" on="0"/>
        <pt x="50" y="156" on="1"/>
        <pt x="50" y="176" on="0"/>
        <pt x="54" y="207" on="0"/>
        <pt x="57" y="218" on="1"/>
        <pt x="63" y="218" on="1"/>
        <pt x="106" y="175" on="0"/>
        <pt x="221" y="130" on="0"/>
        <pt x="300" y="130" on="1"/>
        <pt x="334" y="130" on="0"/>
        <pt x="393" y="142" on="0"/>
        <pt x="415" y="153" on="1"/>
        <pt x="415" y="158" on="1"/>
        <pt x="415" y="183" on="0"/>
        <pt x="376" y="221" on="0"/>
        <pt x="344" y="233" on="1"/>
        <pt x="252" y="267" on="1"/>
        <pt x="175" y="296" on="0"/>
        <pt x="97" y="350" on="0"/>
        <pt x="70" y="405" on="0"/>
        <pt x="70" y="434" on="1"/>
        <pt x="70" y="447" on="1"/>
        <pt x="70" y="497" on="0"/>
        <pt x="118" y="594" on="0"/>
        <pt x="200" y="673" on="0"/>
        <pt x="305" y="720" on="0"/>
      </contour>
    </TTGlyph>
    <TTGlyph name="T" xMin="28" yMin="-6" xMax="566" yMax="700">
      <contour>
        <pt x="32" y="700" on="1"/>
        <pt x="494" y="700" on="1"/>
        <pt x="535" y="700" on="0"/>
        <pt x="566" y="646" on="0"/>
        <pt x="566" y="608" on="1"/>
        <pt x="566" y="591" on="0"/>
        <pt x="561" y="561" on="0"/>
        <pt x="558" y="550" on="1"/>
        <pt x="195" y="550" on="1"/>
        <pt x="132" y="550" on="0"/>
        <pt x="59" y="575" on="0"/>
        <pt x="28" y="623" on="0"/>
        <pt x="28" y="657" on="1"/>
        <pt x="28" y="680" on="0"/>
      </contour>
      <contour>
        <pt x="391" y="0" on="1"/>
        <pt x="378" y="-3" on="0"/>
        <pt x="355" y="-6" on="0"/>
        <pt x="338" y="-6" on="1"/>
        <pt x="277" y="-6" on="0"/>
        <pt x="220" y="45" on="0"/>
        <pt x="220" y="103" on="1"/>
        <pt x="220" y="162" on="0"/>
        <pt x="220" y="280" on="0"/>
        <pt x="220" y="397" on="0"/>
        <pt x="220" y="515" on="0"/>
        <pt x="220" y="574" on="1"/>
        <pt x="342" y="574" on="1"/>
        <pt x="342" y="544" on="1"/>
        <pt x="362" y="532" on="0"/>
        <pt x="380" y="487" on="0"/>
        <pt x="380" y="455" on="1"/>
        <pt x="380" y="395" on="0"/>
        <pt x="380" y="276" on="0"/>
        <pt x="380" y="156" on="0"/>
        <pt x="380" y="96" on="1"/>
        <pt x="380" y="73" on="0"/>
        <pt x="384" y="23" on="0"/>
      </contour>
    </TTGlyph>
    <TTGlyph name="U" xMin="44" yMin="-10" xMax="555" yMax="710">
      <contour>
        <pt x="555" y="0" on="1"/>
        <pt x="545" y="-4" on="0"/>
        <pt x="520" y="-8" on="0"/>
        <pt x="506" y="-8" on="1"/>
        <pt x="484" y="-8" on="0"/>
        <pt x="446" y="2" on="0"/>
        <pt x="415" y="44" on="0"/>
        <pt x="392" y="137" on="0"/>
        <pt x="380" y="300" on="0"/>
        <pt x="380" y="427" on="1"/>
        <pt x="380" y="461" on="0"/>
        <pt x="380" y="529" on="0"/>
        <pt x="380" y="598" on="0"/>
        <pt x="380" y="666" on="0"/>
        <pt x="380" y="700" on="1"/>
        <pt x="391" y="705" on="0"/>
        <pt x="420" y="710" on="0"/>
        <pt x="433" y="710" on="1"/>
        <pt x="490" y="710" on="0"/>
        <pt x="536" y="658" on="0"/>
        <pt x="536" y="601" on="1"/>
        <pt x="536" y="518" on="0"/>
        <pt x="536" y="351" on="0"/>
        <pt x="536" y="185" on="0"/>
        <pt x="536" y="101" on="1"/>
        <pt x="536" y="73" on="0"/>
        <pt x="545" y="24" on="0"/>
      </contour>
      <contour>
        <pt x="201" y="-10" on="1"/>
        <pt x="177" y="-10" on="0"/>
        <pt x="127" y="21" on="0"/>
        <pt x="86" y="75" on="0"/>
        <pt x="60" y="141" on="0"/>
        <pt x="60" y="175" on="1"/>
        <pt x="60" y="243" on="0"/>
        <pt x="60" y="383" on="0"/>
        <pt x="60" y="523" on="0"/>
        <pt x="60" y="590" on="1"/>
        <pt x="60" y="621" on="0"/>
        <pt x="52" y="676" on="0"/>
        <pt x="44" y="700" on="1"/>
        <pt x="62" y="706" on="0"/>
        <pt x="93" y="710" on="0"/>
        <pt x="111" y="710" on="1"/>
        <pt x="152" y="710" on="0"/>
        <pt x="205" y="683" on="0"/>
        <pt x="230" y="618" on="0"/>
        <pt x="230" y="560" on="1"/>
        <pt x="230" y="505" on="0"/>
        <pt x="224" y="386" on="0"/>
        <pt x="208" y="250" on="0"/>
        <pt x="194" y="167" on="1"/>
        <pt x="201" y="163" on="0"/>
        <pt x="216" y="160" on="0"/>
        <pt x="226" y="160" on="1"/>
        <pt x="262" y="160" on="0"/>
        <pt x="328" y="178" on="0"/>
        <pt x="391" y="233" on="0"/>
        <pt x="419" y="289" on="1"/>
        <pt x="419" y="135" on="1"/>
        <pt x="388" y="135" on="1"/>
        <pt x="353" y="53" on="0"/>
        <pt x="250" y="-10" on="0"/>
      </contour>
    </TTGlyph>
    <TTGlyph name="V" xMin="49" yMin="-10" xMax="549" yMax="708">
      <contour>
        <pt x="103" y="708" on="1"/>
        <pt x="136" y="708" on="0"/>
        <pt x="185" y="690" on="0"/>
        <pt x="214" y="640" on="0"/>
        <pt x="216" y="591" on="1"/>
        <pt x="221" y="479" on="0"/>
        <pt x="237" y="311" on="0"/>
        <pt x="270" y="170" on="0"/>
        <pt x="302" y="100" on="1"/>
        <pt x="257" y="109" on="1"/>
        <pt x="342" y="109" on="1"/>
        <pt x="301" y="100" on="1"/>
        <pt x="329" y="158" on="0"/>
        <pt x="364" y="281" on="0"/>
        <pt x="382" y="423" on="0"/>
        <pt x="389" y="594" on="0"/>
        <pt x="389" y="700" on="1"/>
        <pt x="404" y="704" on="0"/>
        <pt x="433" y="708" on="0"/>
        <pt x="446" y="708" on="1"/>
        <pt x="495" y="708" on="0"/>
        <pt x="549" y="657" on="0"/>
        <pt x="545" y="590" on="1"/>
        <pt x="539" y="458" on="0"/>
        <pt x="501" y="222" on="0"/>
        <pt x="430" y="44" on="0"/>
        <pt x="374" y="-2" on="1"/>
        <pt x="360" y="-6" on="0"/>
        <pt x="324" y="-10" on="0"/>
        <pt x="309" y="-10" on="1"/>
        <pt x="287" y="-10" on="0"/>
        <pt x="231" y="5" on="0"/>
        <pt x="202" y="33" on="1"/>
        <pt x="162" y="73" on="0"/>
        <pt x="104" y="219" on="0"/>
        <pt x="66" y="424" on="0"/>
        <pt x="57" y="550" on="1"/>
        <pt x="54" y="585" on="0"/>
        <pt x="51" y="660" on="0"/>
        <pt x="49" y="700" on="1"/>
        <pt x="62" y="704" on="0"/>
        <pt x="90" y="708" on="0"/>
      </contour>
    </TTGlyph>
    <TTGlyph name="W" xMin="19" yMin="-8" xMax="577" yMax="708">
      <contour>
        <pt x="19" y="700" on="1"/>
        <pt x="38" y="704" on="0"/>
        <pt x="69" y="708" on="0"/>
        <pt x="82" y="708" on="1"/>
        <pt x="135" y="708" on="0"/>
        <pt x="182" y="653" on="0"/>
        <pt x="182" y="589" on="1"/>
        <pt x="182" y="440" on="0"/>
        <pt x="190" y="205" on="0"/>
        <pt x="205" y="131" on="1"/>
        <pt x="169" y="160" on="1"/>
        <pt x="235" y="160" on="1"/>
        <pt x="194" y="132" on="1"/>
        <pt x="212" y="174" on="0"/>
        <pt x="238" y="251" on="0"/>
        <pt x="254" y="339" on="0"/>
        <pt x="262" y="450" on="0"/>
        <pt x="262" y="525" on="1"/>
        <pt x="282" y="525" on="1"/>
        <pt x="319" y="525" on="0"/>
        <pt x="348" y="495" on="0"/>
        <pt x="350" y="457" on="1"/>
        <pt x="353" y="402" on="0"/>
        <pt x="360" y="319" on="0"/>
        <pt x="373" y="248" on="0"/>
        <pt x="394" y="176" on="0"/>
        <pt x="412" y="131" on="1"/>
        <pt x="371" y="160" on="1"/>
        <pt x="437" y="160" on="1"/>
        <pt x="402" y="130" on="1"/>
        <pt x="412" y="187" on="0"/>
        <pt x="425" y="314" on="0"/>
        <pt x="430" y="455" on="0"/>
        <pt x="427" y="613" on="0"/>
        <pt x="421" y="700" on="1"/>
        <pt x="435" y="704" on="0"/>
        <pt x="464" y="708" on="0"/>
        <pt x="477" y="708" on="1"/>
        <pt x="515" y="708" on="0"/>
        <pt x="558" y="685" on="0"/>
        <pt x="577" y="611" on="0"/>
        <pt x="577" y="534" on="1"/>
        <pt x="577" y="399" on="0"/>
        <pt x="549" y="205" on="0"/>
        <pt x="499" y="58" on="0"/>
        <pt x="464" y="-5" on="1"/>
        <pt x="459" y="-6" on="0"/>
        <pt x="450" y="-8" on="0"/>
        <pt x="445" y="-8" on="1"/>
        <pt x="426" y="-8" on="0"/>
        <pt x="403" y="2" on="0"/>
        <pt x="389" y="18" on="1"/>
        <pt x="363" y="49" on="0"/>
        <pt x="318" y="159" on="0"/>
        <pt x="303" y="248" on="1"/>
        <pt x="337" y="219" on="1"/>
        <pt x="272" y="219" on="1"/>
        <pt x="309" y="248" on="1"/>
        <pt x="296" y="188" on="0"/>
        <pt x="264" y="99" on="0"/>
        <pt x="230" y="29" on="0"/>
        <pt x="211" y="-5" on="1"/>
        <pt x="207" y="-6" on="0"/>
        <pt x="194" y="-8" on="0"/>
        <pt x="189" y="-8" on="1"/>
        <pt x="174" y="-8" on="0"/>
        <pt x="147" y="2" on="0"/>
        <pt x="137" y="12" on="1"/>
        <pt x="110" y="39" on="0"/>
        <pt x="69" y="122" on="0"/>
        <pt x="42" y="250" on="0"/>
        <pt x="28" y="439" on="0"/>
        <pt x="28" y="573" on="1"/>
        <pt x="28" y="609" on="0"/>
        <pt x="24" y="675" on="0"/>
      </contour>
    </TTGlyph>
    <TTGlyph name="X" xMin="17" yMin="-12" xMax="584" yMax="708">
      <contour>
        <pt x="515" y="-12" on="1"/>
        <pt x="456" y="-12" on="0"/>
        <pt x="394" y="11" on="0"/>
        <pt x="372" y="41" on="1"/>
        <pt x="344" y="81" on="0"/>
        <pt x="285" y="173" on="0"/>
        <pt x="256" y="223" on="1"/>
        <pt x="217" y="292" on="1"/>
        <pt x="158" y="398" on="0"/>
        <pt x="52" y="614" on="0"/>
        <pt x="17" y="700" on="1"/>
        <pt x="37" y="705" on="0"/>
        <pt x="72" y="708" on="0"/>
        <pt x="91" y="708" on="1"/>
        <pt x="151" y="708" on="0"/>
        <pt x="220" y="675" on="0"/>
        <pt x="236" y="629" on="1"/>
        <pt x="251" y="587" on="0"/>
        <pt x="279" y="518" on="0"/>
        <pt x="313" y="446" on="0"/>
        <pt x="335" y="400" on="1"/>
        <pt x="374" y="324" on="1"/>
        <pt x="424" y="232" on="0"/>
        <pt x="531" y="62" on="0"/>
        <pt x="584" y="0" on="1"/>
        <pt x="571" y="-6" on="0"/>
        <pt x="533" y="-12" on="0"/>
      </contour>
      <contour>
        <pt x="464" y="708" on="1"/>
        <pt x="495" y="708" on="0"/>
        <pt x="546" y="691" on="0"/>
        <pt x="567" y="642" on="0"/>
        <pt x="553" y="595" on="1"/>
        <pt x="531" y="521" on="0"/>
        <pt x="440" y="362" on="0"/>
        <pt x="363" y="281" on="1"/>
        <pt x="278" y="422" on="1"/>
        <pt x="331" y="422" on="1"/>
        <pt x="356" y="473" on="0"/>
        <pt x="392" y="608" on="0"/>
        <pt x="408" y="700" on="1"/>
        <pt x="432" y="708" on="0"/>
      </contour>
      <contour>
        <pt x="135" y="-8" on="1"/>
        <pt x="102" y="-8" on="0"/>
        <pt x="49" y="13" on="0"/>
        <pt x="28" y="58" on="0"/>
        <pt x="44" y="94" on="1"/>
        <pt x="66" y="144" on="0"/>
        <pt x="155" y="265" on="0"/>
        <pt x="228" y="340" on="1"/>
        <pt x="302" y="205" on="1"/>
        <pt x="261" y="205" on="1"/>
        <pt x="239" y="161" on="0"/>
        <pt x="210" y="56" on="0"/>
        <pt x="202" y="0" on="1"/>
        <pt x="189" y="-4" on="0"/>
        <pt x="152" y="-8" on="0"/>
      </contour>
    </TTGlyph>
    <TTGlyph name="Y" xMin="48" yMin="-8" xMax="550" yMax="708">
      <contour>
        <pt x="396" y="0" on="1"/>
        <pt x="377" y="-4" on="0"/>
        <pt x="347" y="-8" on="0"/>
        <pt x="328" y="-8" on="1"/>
        <pt x="286" y="-8" on="0"/>
        <pt x="239" y="16" on="0"/>
        <pt x="220" y="60" on="0"/>
        <pt x="220" y="90" on="1"/>
        <pt x="220" y="131" on="0"/>
        <pt x="220" y="213" on="0"/>
        <pt x="220" y="253" on="1"/>
        <pt x="380" y="253" on="1"/>
        <pt x="380" y="217" on="0"/>
        <pt x="380" y="146" on="0"/>
        <pt x="380" y="110" on="1"/>
        <pt x="380" y="80" on="0"/>
        <pt x="387" y="25" on="0"/>
      </contour>
      <contour>
        <pt x="48" y="700" on="1"/>
        <pt x="64" y="705" on="0"/>
        <pt x="96" y="708" on="0"/>
        <pt x="112" y="708" on="1"/>
        <pt x="156" y="708" on="0"/>
        <pt x="213" y="671" on="0"/>
        <pt x="219" y="618" on="1"/>
        <pt x="226" y="563" on="0"/>
        <pt x="245" y="463" on="0"/>
        <pt x="279" y="361" on="0"/>
        <pt x="305" y="301" on="1"/>
        <pt x="260" y="330" on="1"/>
        <pt x="330" y="330" on="1"/>
        <pt x="283" y="302" on="1"/>
        <pt x="320" y="366" on="0"/>
        <pt x="363" y="481" on="0"/>
        <pt x="388" y="613" on="0"/>
        <pt x="396" y="700" on="1"/>
        <pt x="412" y="705" on="0"/>
        <pt x="444" y="708" on="0"/>
        <pt x="460" y="708" on="1"/>
        <pt x="502" y="708" on="0"/>
        <pt x="550" y="668" on="0"/>
        <pt x="547" y="636" on="1"/>
        <pt x="538" y="539" on="0"/>
        <pt x="482" y="367" on="0"/>
        <pt x="399" y="232" on="0"/>
        <pt x="350" y="190" on="1"/>
        <pt x="316" y="190" on="0"/>
        <pt x="266" y="196" on="0"/>
        <pt x="226" y="216" on="0"/>
        <pt x="204" y="237" on="1"/>
        <pt x="138" y="303" on="0"/>
        <pt x="65" y="530" on="0"/>
      </contour>
    </TTGlyph>
    <TTGlyph name="Z" xMin="50" yMin="0" xMax="550" yMax="760">
      <contour>
        <pt x="547" y="0" on="1"/>
        <pt x="141" y="0" on="1"/>
        <pt x="89" y="0" on="0"/>
        <pt x="50" y="67" on="0"/>
        <pt x="50" y="125" on="1"/>
        <pt x="50" y="140" on="1"/>
        <pt x="136" y="214" on="0"/>
        <pt x="264" y="355" on="0"/>
        <pt x="318" y="438" on="1"/>
        <pt x="341" y="473" on="0"/>
        <pt x="384" y="550" on="0"/>
        <pt x="406" y="593" on="1"/>
        <pt x="390" y="519" on="1"/>
        <pt x="390" y="599" on="1"/>
        <pt x="419" y="575" on="1"/>
        <pt x="385" y="564" on="0"/>
        <pt x="321" y="555" on="0"/>
        <pt x="278" y="555" on="1"/>
        <pt x="177" y="555" on="1"/>
        <pt x="146" y="555" on="0"/>
        <pt x="110" y="605" on="0"/>
        <pt x="101" y="673" on="0"/>
        <pt x="110" y="700" on="1"/>
        <pt x="478" y="700" on="1"/>
        <pt x="505" y="700" on="0"/>
        <pt x="536" y="670" on="0"/>
        <pt x="550" y="601" on="0"/>
        <pt x="550" y="544" on="1"/>
        <pt x="550" y="535" on="1"/>
        <pt x="550" y="507" on="0"/>
        <pt x="493" y="413" on="0"/>
        <pt x="400" y="301" on="0"/>
        <pt x="344" y="246" on="1"/>
        <pt x="313" y="214" on="0"/>
        <pt x="245" y="154" on="0"/>
        <pt x="213" y="128" on="1"/>
        <pt x="239" y="178" on="1"/>
        <pt x="239" y="121" on="1"/>
        <pt x="209" y="140" on="1"/>
        <pt x="276" y="147" on="0"/>
        <pt x="364" y="150" on="0"/>
        <pt x="400" y="150" on="1"/>
        <pt x="465" y="150" on="1"/>
        <pt x="515" y="150" on="0"/>
        <pt x="550" y="83" on="0"/>
        <pt x="550" y="31" on="1"/>
        <pt x="550" y="21" on="0"/>
        <pt x="549" y="6" on="0"/>
      </contour>
      <contour>
        <pt x="208" y="500" on="1"/>
        <pt x="186" y="494" on="0"/>
        <pt x="150" y="494" on="1"/>
        <pt x="117" y="494" on="0"/>
        <pt x="77" y="506" on="0"/>
        <pt x="60" y="533" on="0"/>
        <pt x="60" y="556" on="1"/>
        <pt x="60" y="612" on="0"/>
        <pt x="86" y="716" on="0"/>
        <pt x="108" y="760" on="1"/>
        <pt x="176" y="760" on="0"/>
        <pt x="233" y="733" on="0"/>
        <pt x="233" y="711" on="1"/>
        <pt x="233" y="680" on="0"/>
        <pt x="221" y="623" on="0"/>
        <pt x="208" y="553" on="0"/>
      </contour>
    </TTGlyph>
    <TTGlyph name="a" xMin="43" yMin="-10" xMax="585" yMax="550">
      <contour>
        <pt x="515" y="354" on="1"/>
        <pt x="515" y="314" on="0"/>
        <pt x="515" y="233" on="0"/>
        <pt x="515" y="193" on="1"/>
        <pt x="515" y="181" on="0"/>
        <pt x="515" y="158" on="0"/>
        <pt x="515" y="147" on="1"/>
        <pt x="522" y="142" on="0"/>
        <pt x="534" y="142" on="1"/>
        <pt x="544" y="142" on="0"/>
        <pt x="566" y="149" on="0"/>
        <pt x="576" y="158" on="1"/>
        <pt x="582" y="158" on="1"/>
        <pt x="584" y="151" on="0"/>
        <pt x="585" y="141" on="0"/>
        <pt x="585" y="133" on="1"/>
        <pt x="585" y="103" on="0"/>
        <pt x="564" y="42" on="0"/>
        <pt x="547" y="25" on="1"/>
        <pt x="530" y="8" on="0"/>
        <pt x="497" y="-6" on="0"/>
        <pt x="482" y="-6" on="1"/>
        <pt x="455" y="-6" on="0"/>
        <pt x="408" y="25" on="0"/>
        <pt x="374" y="73" on="0"/>
        <pt x="355" y="129" on="0"/>
        <pt x="355" y="153" on="1"/>
        <pt x="355" y="173" on="0"/>
        <pt x="355" y="211" on="0"/>
        <pt x="355" y="230" on="1"/>
        <pt x="355" y="258" on="0"/>
        <pt x="367" y="335" on="0"/>
        <pt x="379" y="388" on="1"/>
        <pt x="350" y="399" on="0"/>
        <pt x="296" y="407" on="0"/>
        <pt x="261" y="407" on="1"/>
        <pt x="231" y="407" on="0"/>
        <pt x="181" y="403" on="0"/>
        <pt x="133" y="394" on="0"/>
        <pt x="106" y="386" on="1"/>
        <pt x="100" y="386" on="1"/>
        <pt x="95" y="408" on="0"/>
        <pt x="95" y="435" on="1"/>
        <pt x="95" y="458" on="0"/>
        <pt x="109" y="502" on="0"/>
        <pt x="123" y="516" on="1"/>
        <pt x="135" y="528" on="0"/>
        <pt x="174" y="543" on="0"/>
        <pt x="242" y="550" on="0"/>
        <pt x="297" y="550" on="1"/>
        <pt x="349" y="550" on="0"/>
        <pt x="430" y="514" on="0"/>
        <pt x="486" y="455" on="0"/>
        <pt x="515" y="387" on="0"/>
      </contour>
      <contour>
        <pt x="203" y="159" on="1"/>
        <pt x="203" y="135" on="0"/>
        <pt x="221" y="119" on="0"/>
        <pt x="251" y="119" on="1"/>
        <pt x="279" y="119" on="0"/>
        <pt x="342" y="147" on="0"/>
        <pt x="367" y="178" on="1"/>
        <pt x="371" y="163" on="0"/>
        <pt x="373" y="140" on="0"/>
        <pt x="370" y="119" on="0"/>
        <pt x="365" y="106" on="1"/>
        <pt x="355" y="79" on="0"/>
        <pt x="306" y="25" on="0"/>
        <pt x="238" y="-10" on="0"/>
        <pt x="198" y="-10" on="1"/>
        <pt x="124" y="-10" on="0"/>
        <pt x="43" y="69" on="0"/>
        <pt x="43" y="150" on="1"/>
        <pt x="43" y="158" on="1"/>
        <pt x="43" y="184" on="0"/>
        <pt x="72" y="240" on="0"/>
        <pt x="122" y="287" on="0"/>
        <pt x="185" y="317" on="0"/>
        <pt x="219" y="317" on="1"/>
        <pt x="284" y="317" on="0"/>
        <pt x="385" y="296" on="0"/>
        <pt x="403" y="278" on="1"/>
        <pt x="412" y="269" on="0"/>
        <pt x="427" y="234" on="0"/>
        <pt x="427" y="205" on="1"/>
        <pt x="387" y="215" on="0"/>
        <pt x="300" y="225" on="0"/>
        <pt x="266" y="225" on="1"/>
        <pt x="235" y="225" on="0"/>
        <pt x="209" y="216" on="1"/>
        <pt x="206" y="201" on="0"/>
        <pt x="203" y="175" on="0"/>
        <pt x="203" y="161" on="1"/>
      </contour>
      <contour>
        <pt x="380" y="190" on="1"/>
        <pt x="403" y="188" on="1"/>
        <pt x="373" y="96" on="1"/>
        <pt x="351" y="96" on="1"/>
      </contour>
    </TTGlyph>
    <TTGlyph name="a.italic" xMin="40" yMin="-12" xMax="589" yMax="552">
      <contour>
        <pt x="195" y="-12" on="1"/>
        <pt x="166" y="-12" on="0"/>
        <pt x="110" y="21" on="0"/>
        <pt x="66" y="79" on="0"/>
        <pt x="40" y="154" on="0"/>
        <pt x="40" y="196" on="1"/>
        <pt x="40" y="218" on="1"/>
        <pt x="40" y="307" on="0"/>
        <pt x="77" y="434" on="0"/>
        <pt x="139" y="514" on="0"/>
        <pt x="213" y="552" on="0"/>
        <pt x="250" y="552" on="1"/>
        <pt x="282" y="552" on="0"/>
        <pt x="333" y="524" on="0"/>
        <pt x="368" y="482" on="0"/>
        <pt x="375" y="459" on="1"/>
        <pt x="385" y="429" on="0"/>
        <pt x="402" y="391" on="0"/>
        <pt x="392" y="368" on="1"/>
        <pt x="375" y="387" on="0"/>
        <pt x="334" y="408" on="0"/>
        <pt x="305" y="408" on="1"/>
        <pt x="250" y="408" on="0"/>
        <pt x="195" y="322" on="0"/>
        <pt x="195" y="241" on="1"/>
        <pt x="195" y="230" on="1"/>
        <pt x="195" y="202" on="0"/>
        <pt x="198" y="165" on="0"/>
        <pt x="201" y="150" on="1"/>
        <pt x="205" y="149" on="0"/>
        <pt x="211" y="149" on="0"/>
        <pt x="214" y="149" on="1"/>
        <pt x="272" y="149" on="0"/>
        <pt x="359" y="234" on="0"/>
        <pt x="386" y="334" on="1"/>
        <pt x="394" y="317" on="0"/>
        <pt x="394" y="263" on="0"/>
        <pt x="384" y="206" on="0"/>
        <pt x="378" y="183" on="1"/>
        <pt x="366" y="133" on="0"/>
        <pt x="309" y="43" on="0"/>
        <pt x="235" y="-12" on="0"/>
      </contour>
      <contour>
        <pt x="585" y="162" on="1"/>
        <pt x="587" y="152" on="0"/>
        <pt x="589" y="128" on="0"/>
        <pt x="589" y="117" on="1"/>
        <pt x="589" y="86" on="0"/>
        <pt x="570" y="31" on="0"/>
        <pt x="552" y="14" on="1"/>
        <pt x="528" y="-10" on="0"/>
        <pt x="494" y="-10" on="1"/>
        <pt x="459" y="-10" on="0"/>
        <pt x="405" y="33" on="0"/>
        <pt x="375" y="109" on="0"/>
        <pt x="375" y="158" on="1"/>
        <pt x="375" y="204" on="0"/>
        <pt x="375" y="295" on="0"/>
        <pt x="375" y="387" on="0"/>
        <pt x="375" y="433" on="1"/>
        <pt x="375" y="465" on="0"/>
        <pt x="381" y="515" on="0"/>
        <pt x="388" y="543" on="1"/>
        <pt x="400" y="545" on="0"/>
        <pt x="421" y="546" on="0"/>
        <pt x="434" y="546" on="1"/>
        <pt x="459" y="546" on="0"/>
        <pt x="498" y="518" on="0"/>
        <pt x="522" y="451" on="0"/>
        <pt x="522" y="391" on="1"/>
        <pt x="522" y="329" on="0"/>
        <pt x="522" y="205" on="0"/>
        <pt x="522" y="143" on="1"/>
        <pt x="528" y="141" on="0"/>
        <pt x="535" y="141" on="1"/>
        <pt x="559" y="141" on="0"/>
        <pt x="579" y="162" on="1"/>
      </contour>
      <contour>
        <pt x="383" y="472" on="1"/>
        <pt x="426" y="345" on="1"/>
        <pt x="404" y="342" on="1"/>
        <pt x="360" y="472" on="1"/>
      </contour>
      <contour>
        <pt x="388" y="152" on="1"/>
        <pt x="362" y="152" on="1"/>
        <pt x="405" y="282" on="1"/>
        <pt x="427" y="279" on="1"/>
      </contour>
    </TTGlyph>
    <TTGlyph name="b" xMin="45" yMin="-12" xMax="560" yMax="756">
      <contour>
        <pt x="188" y="0" on="1"/>
        <pt x="182" y="-2" on="0"/>
        <pt x="169" y="-3" on="0"/>
        <pt x="163" y="-3" on="1"/>
        <pt x="125" y="-3" on="0"/>
        <pt x="83" y="42" on="0"/>
        <pt x="65" y="115" on="0"/>
        <pt x="65" y="155" on="1"/>
        <pt x="65" y="229" on="0"/>
        <pt x="65" y="351" on="0"/>
        <pt x="65" y="463" on="0"/>
        <pt x="65" y="581" on="0"/>
        <pt x="65" y="651" on="1"/>
        <pt x="65" y="676" on="0"/>
        <pt x="56" y="732" on="0"/>
        <pt x="45" y="750" on="1"/>
        <pt x="56" y="752" on="0"/>
        <pt x="79" y="756" on="0"/>
        <pt x="90" y="756" on="1"/>
        <pt x="123" y="756" on="0"/>
        <pt x="180" y="725" on="0"/>
        <pt x="215" y="648" on="0"/>
        <pt x="215" y="579" on="1"/>
        <pt x="215" y="505" on="0"/>
        <pt x="215" y="366" on="0"/>
        <pt x="215" y="228" on="0"/>
        <pt x="215" y="157" on="1"/>
        <pt x="215" y="119" on="0"/>
        <pt x="199" y="31" on="0"/>
      </contour>
      <contour>
        <pt x="350" y="-12" on="1"/>
        <pt x="316" y="-12" on="0"/>
        <pt x="255" y="21" on="0"/>
        <pt x="213" y="70" on="0"/>
        <pt x="205" y="92" on="1"/>
        <pt x="195" y="122" on="0"/>
        <pt x="178" y="161" on="0"/>
        <pt x="188" y="183" on="1"/>
        <pt x="206" y="164" on="0"/>
        <pt x="263" y="132" on="0"/>
        <pt x="295" y="132" on="1"/>
        <pt x="351" y="132" on="0"/>
        <pt x="405" y="218" on="0"/>
        <pt x="405" y="299" on="1"/>
        <pt x="405" y="310" on="1"/>
        <pt x="405" y="342" on="0"/>
        <pt x="402" y="379" on="0"/>
        <pt x="397" y="390" on="1"/>
        <pt x="394" y="391" on="0"/>
        <pt x="388" y="391" on="0"/>
        <pt x="386" y="391" on="1"/>
        <pt x="325" y="391" on="0"/>
        <pt x="235" y="309" on="0"/>
        <pt x="204" y="206" on="1"/>
        <pt x="196" y="224" on="0"/>
        <pt x="196" y="280" on="0"/>
        <pt x="206" y="339" on="0"/>
        <pt x="212" y="363" on="1"/>
        <pt x="221" y="400" on="0"/>
        <pt x="260" y="468" on="0"/>
        <pt x="312" y="521" on="0"/>
        <pt x="374" y="552" on="0"/>
        <pt x="405" y="552" on="1"/>
        <pt x="434" y="552" on="0"/>
        <pt x="490" y="519" on="0"/>
        <pt x="534" y="461" on="0"/>
        <pt x="560" y="386" on="0"/>
        <pt x="560" y="344" on="1"/>
        <pt x="560" y="322" on="1"/>
        <pt x="560" y="233" on="0"/>
        <pt x="523" y="106" on="0"/>
        <pt x="461" y="26" on="0"/>
        <pt x="387" y="-12" on="0"/>
      </contour>
      <contour>
        <pt x="202" y="392" on="1"/>
        <pt x="228" y="392" on="1"/>
        <pt x="185" y="258" on="1"/>
        <pt x="163" y="261" on="1"/>
      </contour>
      <contour>
        <pt x="194" y="74" on="1"/>
        <pt x="165" y="190" on="1"/>
        <pt x="187" y="193" on="1"/>
        <pt x="217" y="74" on="1"/>
      </contour>
    </TTGlyph>
    <TTGlyph name="c" xMin="56" yMin="-12" xMax="539" yMax="552">
      <contour>
        <pt x="360" y="552" on="1"/>
        <pt x="414" y="552" on="0"/>
        <pt x="489" y="529" on="0"/>
        <pt x="505" y="512" on="1"/>
        <pt x="519" y="498" on="0"/>
        <pt x="531" y="464" on="0"/>
        <pt x="531" y="431" on="1"/>
        <pt x="531" y="405" on="0"/>
        <pt x="523" y="361" on="0"/>
        <pt x="514" y="337" on="1"/>
        <pt x="508" y="337" on="1"/>
        <pt x="469" y="372" on="0"/>
        <pt x="401" y="398" on="0"/>
        <pt x="352" y="398" on="1"/>
        <pt x="287" y="398" on="0"/>
        <pt x="206" y="310" on="0"/>
        <pt x="206" y="242" on="1"/>
        <pt x="206" y="234" on="1"/>
        <pt x="206" y="213" on="0"/>
        <pt x="215" y="169" on="0"/>
        <pt x="228" y="146" on="1"/>
        <pt x="250" y="139" on="0"/>
        <pt x="299" y="133" on="0"/>
        <pt x="332" y="133" on="1"/>
        <pt x="396" y="133" on="0"/>
        <pt x="487" y="161" on="0"/>
        <pt x="529" y="190" on="1"/>
        <pt x="535" y="190" on="1"/>
        <pt x="537" y="179" on="0"/>
        <pt x="539" y="157" on="0"/>
        <pt x="539" y="140" on="1"/>
        <pt x="539" y="106" on="0"/>
        <pt x="520" y="53" on="0"/>
        <pt x="501" y="34" on="1"/>
        <pt x="479" y="12" on="0"/>
        <pt x="399" y="-12" on="0"/>
        <pt x="331" y="-12" on="1"/>
        <pt x="282" y="-12" on="0"/>
        <pt x="184" y="29" on="0"/>
        <pt x="104" y="102" on="0"/>
        <pt x="56" y="197" on="0"/>
        <pt x="56" y="251" on="1"/>
        <pt x="56" y="261" on="1"/>
        <pt x="56" y="348" on="0"/>
        <pt x="133" y="479" on="0"/>
        <pt x="270" y="552" on="0"/>
      </contour>
    </TTGlyph>
    <TTGlyph name="c.italic" xMin="56" yMin="-12" xMax="539" yMax="552">
      <contour>
        <pt x="360" y="552" on="1"/>
        <pt x="410" y="552" on="0"/>
        <pt x="479" y="523" on="0"/>
        <pt x="499" y="502" on="1"/>
        <pt x="517" y="483" on="0"/>
        <pt x="531" y="440" on="0"/>
        <pt x="531" y="421" on="1"/>
        <pt x="531" y="408" on="1"/>
        <pt x="531" y="365" on="0"/>
        <pt x="471" y="300" on="0"/>
        <pt x="421" y="300" on="1"/>
        <pt x="408" y="300" on="0"/>
        <pt x="396" y="303" on="1"/>
        <pt x="396" y="309" on="1"/>
        <pt x="406" y="358" on="0"/>
        <pt x="403" y="392" on="1"/>
        <pt x="382" y="398" on="0"/>
        <pt x="352" y="398" on="1"/>
        <pt x="285" y="398" on="0"/>
        <pt x="201" y="310" on="0"/>
        <pt x="201" y="242" on="1"/>
        <pt x="201" y="234" on="1"/>
        <pt x="201" y="213" on="0"/>
        <pt x="209" y="170" on="0"/>
        <pt x="221" y="150" on="1"/>
        <pt x="246" y="140" on="0"/>
        <pt x="298" y="133" on="0"/>
        <pt x="332" y="133" on="1"/>
        <pt x="396" y="133" on="0"/>
        <pt x="487" y="161" on="0"/>
        <pt x="529" y="190" on="1"/>
        <pt x="535" y="190" on="1"/>
        <pt x="537" y="179" on="0"/>
        <pt x="539" y="157" on="0"/>
        <pt x="539" y="140" on="1"/>
        <pt x="539" y="106" on="0"/>
        <pt x="520" y="53" on="0"/>
        <pt x="501" y="34" on="1"/>
        <pt x="479" y="12" on="0"/>
        <pt x="399" y="-12" on="0"/>
        <pt x="331" y="-12" on="1"/>
        <pt x="279" y="-12" on="0"/>
        <pt x="181" y="29" on="0"/>
        <pt x="102" y="101" on="0"/>
        <pt x="56" y="197" on="0"/>
        <pt x="56" y="251" on="1"/>
        <pt x="56" y="261" on="1"/>
        <pt x="56" y="348" on="0"/>
        <pt x="133" y="479" on="0"/>
        <pt x="270" y="552" on="0"/>
      </contour>
    </TTGlyph>
    <TTGlyph name="d" xMin="40" yMin="-12" xMax="552" yMax="756">
      <contour>
        <pt x="195" y="-12" on="1"/>
        <pt x="156" y="-12" on="0"/>
        <pt x="85" y="45" on="0"/>
        <pt x="40" y="140" on="0"/>
        <pt x="40" y="196" on="1"/>
        <pt x="40" y="218" on="1"/>
        <pt x="40" y="307" on="0"/>
        <pt x="77" y="434" on="0"/>
        <pt x="139" y="514" on="0"/>
        <pt x="213" y="552" on="0"/>
        <pt x="250" y="552" on="1"/>
        <pt x="284" y="552" on="0"/>
        <pt x="340" y="524" on="0"/>
        <pt x="378" y="482" on="0"/>
        <pt x="385" y="459" on="1"/>
        <pt x="395" y="429" on="0"/>
        <pt x="412" y="391" on="0"/>
        <pt x="402" y="368" on="1"/>
        <pt x="384" y="388" on="0"/>
        <pt x="337" y="408" on="0"/>
        <pt x="305" y="408" on="1"/>
        <pt x="250" y="408" on="0"/>
        <pt x="195" y="322" on="0"/>
        <pt x="195" y="241" on="1"/>
        <pt x="195" y="230" on="1"/>
        <pt x="195" y="201" on="0"/>
        <pt x="197" y="164" on="0"/>
        <pt x="201" y="150" on="1"/>
        <pt x="205" y="149" on="0"/>
        <pt x="211" y="149" on="0"/>
        <pt x="214" y="149" on="1"/>
        <pt x="275" y="149" on="0"/>
        <pt x="365" y="231" on="0"/>
        <pt x="396" y="334" on="1"/>
        <pt x="405" y="316" on="0"/>
        <pt x="404" y="261" on="0"/>
        <pt x="394" y="201" on="0"/>
        <pt x="388" y="177" on="1"/>
        <pt x="376" y="128" on="0"/>
        <pt x="317" y="42" on="0"/>
        <pt x="237" y="-12" on="0"/>
      </contour>
      <contour>
        <pt x="552" y="1" on="1"/>
        <pt x="537" y="-2" on="0"/>
        <pt x="512" y="-7" on="0"/>
        <pt x="497" y="-7" on="1"/>
        <pt x="456" y="-7" on="0"/>
        <pt x="406" y="40" on="0"/>
        <pt x="385" y="115" on="0"/>
        <pt x="385" y="155" on="1"/>
        <pt x="385" y="229" on="0"/>
        <pt x="385" y="351" on="0"/>
        <pt x="385" y="463" on="0"/>
        <pt x="385" y="581" on="0"/>
        <pt x="385" y="651" on="1"/>
        <pt x="385" y="676" on="0"/>
        <pt x="376" y="732" on="0"/>
        <pt x="365" y="750" on="1"/>
        <pt x="376" y="752" on="0"/>
        <pt x="399" y="756" on="0"/>
        <pt x="410" y="756" on="1"/>
        <pt x="443" y="756" on="0"/>
        <pt x="500" y="725" on="0"/>
        <pt x="535" y="648" on="0"/>
        <pt x="535" y="579" on="1"/>
        <pt x="535" y="499" on="0"/>
        <pt x="535" y="346" on="0"/>
        <pt x="535" y="196" on="0"/>
        <pt x="535" y="120" on="1"/>
        <pt x="535" y="90" on="0"/>
        <pt x="542" y="32" on="0"/>
      </contour>
      <contour>
        <pt x="414" y="342" on="1"/>
        <pt x="372" y="472" on="1"/>
        <pt x="395" y="472" on="1"/>
        <pt x="436" y="345" on="1"/>
      </contour>
      <contour>
        <pt x="396" y="148" on="1"/>
        <pt x="370" y="148" on="1"/>
        <pt x="413" y="282" on="1"/>
        <pt x="435" y="279" on="1"/>
      </contour>
    </TTGlyph>
    <TTGlyph name="d.italic" xMin="40" yMin="-12" xMax="589" yMax="756">
      <contour>
        <pt x="195" y="-12" on="1"/>
        <pt x="156" y="-12" on="0"/>
        <pt x="85" y="45" on="0"/>
        <pt x="40" y="140" on="0"/>
        <pt x="40" y="196" on="1"/>
        <pt x="40" y="218" on="1"/>
        <pt x="40" y="307" on="0"/>
        <pt x="77" y="434" on="0"/>
        <pt x="139" y="514" on="0"/>
        <pt x="213" y="552" on="0"/>
        <pt x="250" y="552" on="1"/>
        <pt x="284" y="552" on="0"/>
        <pt x="334" y="524" on="0"/>
        <pt x="367" y="482" on="0"/>
        <pt x="374" y="459" on="1"/>
        <pt x="384" y="429" on="0"/>
        <pt x="402" y="391" on="0"/>
        <pt x="392" y="368" on="1"/>
        <pt x="374" y="388" on="0"/>
        <pt x="337" y="408" on="0"/>
        <pt x="305" y="408" on="1"/>
        <pt x="250" y="408" on="0"/>
        <pt x="195" y="322" on="0"/>
        <pt x="195" y="241" on="1"/>
        <pt x="195" y="230" on="1"/>
        <pt x="195" y="201" on="0"/>
        <pt x="197" y="164" on="0"/>
        <pt x="201" y="150" on="1"/>
        <pt x="205" y="149" on="0"/>
        <pt x="211" y="149" on="0"/>
        <pt x="214" y="149" on="1"/>
        <pt x="272" y="149" on="0"/>
        <pt x="359" y="234" on="0"/>
        <pt x="386" y="334" on="1"/>
        <pt x="394" y="317" on="0"/>
        <pt x="394" y="263" on="0"/>
        <pt x="384" y="206" on="0"/>
        <pt x="378" y="183" on="1"/>
        <pt x="366" y="133" on="0"/>
        <pt x="309" y="43" on="0"/>
        <pt x="235" y="-12" on="0"/>
      </contour>
      <contour>
        <pt x="585" y="162" on="1"/>
        <pt x="587" y="152" on="0"/>
        <pt x="589" y="128" on="0"/>
        <pt x="589" y="117" on="1"/>
        <pt x="589" y="86" on="0"/>
        <pt x="570" y="32" on="0"/>
        <pt x="556" y="18" on="1"/>
        <pt x="528" y="-10" on="0"/>
        <pt x="494" y="-10" on="1"/>
        <pt x="462" y="-10" on="0"/>
        <pt x="407" y="32" on="0"/>
        <pt x="375" y="107" on="0"/>
        <pt x="375" y="155" on="1"/>
        <pt x="375" y="217" on="0"/>
        <pt x="375" y="341" on="0"/>
        <pt x="375" y="465" on="0"/>
        <pt x="375" y="589" on="0"/>
        <pt x="375" y="651" on="1"/>
        <pt x="375" y="676" on="0"/>
        <pt x="366" y="732" on="0"/>
        <pt x="355" y="750" on="1"/>
        <pt x="366" y="752" on="0"/>
        <pt x="389" y="756" on="0"/>
        <pt x="400" y="756" on="1"/>
        <pt x="433" y="756" on="0"/>
        <pt x="488" y="725" on="0"/>
        <pt x="522" y="648" on="0"/>
        <pt x="522" y="579" on="1"/>
        <pt x="522" y="509" on="0"/>
        <pt x="522" y="369" on="0"/>
        <pt x="522" y="230" on="0"/>
        <pt x="522" y="160" on="1"/>
        <pt x="522" y="156" on="0"/>
        <pt x="522" y="147" on="0"/>
        <pt x="522" y="142" on="1"/>
        <pt x="524" y="142" on="0"/>
        <pt x="528" y="142" on="0"/>
        <pt x="529" y="142" on="1"/>
        <pt x="540" y="142" on="0"/>
        <pt x="570" y="151" on="0"/>
        <pt x="579" y="162" on="1"/>
      </contour>
      <contour>
        <pt x="404" y="342" on="1"/>
        <pt x="364" y="473" on="1"/>
        <pt x="387" y="473" on="1"/>
        <pt x="426" y="345" on="1"/>
      </contour>
      <contour>
        <pt x="388" y="152" on="1"/>
        <pt x="362" y="152" on="1"/>
        <pt x="405" y="282" on="1"/>
        <pt x="427" y="279" on="1"/>
      </contour>
    </TTGlyph>
    <TTGlyph name="e" xMin="50" yMin="-16" xMax="551" yMax="556">
      <contour>
        <pt x="324" y="556" on="1"/>
        <pt x="395" y="556" on="0"/>
        <pt x="496" y="497" on="0"/>
        <pt x="551" y="393" on="0"/>
        <pt x="551" y="325" on="1"/>
        <pt x="551" y="320" on="1"/>
        <pt x="551" y="279" on="0"/>
        <pt x="541" y="241" on="0"/>
        <pt x="525" y="231" on="0"/>
        <pt x="516" y="231" on="1"/>
        <pt x="308" y="231" on="1"/>
        <pt x="269" y="231" on="0"/>
        <pt x="209" y="256" on="0"/>
        <pt x="182" y="296" on="0"/>
        <pt x="190" y="318" on="1"/>
        <pt x="401" y="318" on="1"/>
        <pt x="403" y="324" on="0"/>
        <pt x="404" y="339" on="0"/>
        <pt x="404" y="344" on="1"/>
        <pt x="404" y="364" on="0"/>
        <pt x="396" y="405" on="0"/>
        <pt x="385" y="422" on="1"/>
        <pt x="374" y="426" on="0"/>
        <pt x="355" y="429" on="0"/>
        <pt x="336" y="429" on="1"/>
        <pt x="275" y="429" on="0"/>
        <pt x="200" y="333" on="0"/>
        <pt x="200" y="234" on="1"/>
        <pt x="200" y="231" on="1"/>
        <pt x="200" y="202" on="0"/>
        <pt x="207" y="158" on="0"/>
        <pt x="214" y="140" on="1"/>
        <pt x="237" y="130" on="0"/>
        <pt x="296" y="121" on="0"/>
        <pt x="339" y="121" on="1"/>
        <pt x="386" y="121" on="0"/>
        <pt x="479" y="140" on="0"/>
        <pt x="520" y="161" on="1"/>
        <pt x="526" y="161" on="1"/>
        <pt x="528" y="151" on="0"/>
        <pt x="530" y="132" on="0"/>
        <pt x="530" y="123" on="1"/>
        <pt x="530" y="89" on="0"/>
        <pt x="512" y="44" on="0"/>
        <pt x="495" y="27" on="1"/>
        <pt x="471" y="3" on="0"/>
        <pt x="385" y="-16" on="0"/>
        <pt x="338" y="-16" on="1"/>
        <pt x="274" y="-16" on="0"/>
        <pt x="168" y="24" on="0"/>
        <pt x="92" y="97" on="0"/>
        <pt x="50" y="200" on="0"/>
        <pt x="50" y="263" on="1"/>
        <pt x="50" y="266" on="1"/>
        <pt x="50" y="348" on="0"/>
        <pt x="120" y="479" on="0"/>
        <pt x="243" y="556" on="0"/>
      </contour>
      <contour>
        <pt x="188" y="256" on="1"/>
        <pt x="168" y="312" on="1"/>
        <pt x="185" y="316" on="1"/>
        <pt x="225" y="272" on="1"/>
      </contour>
    </TTGlyph>
    <TTGlyph name="e.italic" xMin="50" yMin="-16" xMax="550" yMax="556">
      <contour>
        <pt x="339" y="556" on="1"/>
        <pt x="387" y="556" on="0"/>
        <pt x="465" y="526" on="0"/>
        <pt x="521" y="473" on="0"/>
        <pt x="550" y="404" on="0"/>
        <pt x="550" y="365" on="1"/>
        <pt x="550" y="362" on="1"/>
        <pt x="550" y="316" on="0"/>
        <pt x="505" y="254" on="0"/>
        <pt x="409" y="223" on="0"/>
        <pt x="330" y="223" on="1"/>
        <pt x="267" y="223" on="0"/>
        <pt x="201" y="244" on="0"/>
        <pt x="186" y="259" on="1"/>
        <pt x="173" y="273" on="0"/>
        <pt x="166" y="302" on="0"/>
        <pt x="172" y="321" on="1"/>
        <pt x="186" y="316" on="0"/>
        <pt x="241" y="308" on="0"/>
        <pt x="295" y="308" on="1"/>
        <pt x="346" y="308" on="0"/>
        <pt x="402" y="338" on="0"/>
        <pt x="402" y="366" on="1"/>
        <pt x="402" y="382" on="0"/>
        <pt x="401" y="405" on="0"/>
        <pt x="399" y="414" on="1"/>
        <pt x="387" y="416" on="0"/>
        <pt x="361" y="419" on="0"/>
        <pt x="345" y="419" on="1"/>
        <pt x="302" y="419" on="0"/>
        <pt x="236" y="379" on="0"/>
        <pt x="200" y="297" on="0"/>
        <pt x="200" y="234" on="1"/>
        <pt x="200" y="231" on="1"/>
        <pt x="200" y="203" on="0"/>
        <pt x="204" y="160" on="0"/>
        <pt x="210" y="143" on="1"/>
        <pt x="235" y="133" on="0"/>
        <pt x="296" y="124" on="0"/>
        <pt x="339" y="124" on="1"/>
        <pt x="371" y="124" on="0"/>
        <pt x="433" y="136" on="0"/>
        <pt x="493" y="158" on="0"/>
        <pt x="520" y="174" on="1"/>
        <pt x="526" y="174" on="1"/>
        <pt x="528" y="164" on="0"/>
        <pt x="530" y="145" on="0"/>
        <pt x="530" y="136" on="1"/>
        <pt x="530" y="99" on="0"/>
        <pt x="514" y="41" on="0"/>
        <pt x="499" y="26" on="1"/>
        <pt x="480" y="7" on="0"/>
        <pt x="386" y="-16" on="0"/>
        <pt x="331" y="-16" on="1"/>
        <pt x="270" y="-16" on="0"/>
        <pt x="167" y="24" on="0"/>
        <pt x="91" y="97" on="0"/>
        <pt x="50" y="200" on="0"/>
        <pt x="50" y="263" on="1"/>
        <pt x="50" y="266" on="1"/>
        <pt x="50" y="348" on="0"/>
        <pt x="121" y="479" on="0"/>
        <pt x="251" y="556" on="0"/>
      </contour>
      <contour>
        <pt x="189" y="237" on="1"/>
        <pt x="166" y="295" on="1"/>
        <pt x="183" y="297" on="1"/>
        <pt x="216" y="252" on="1"/>
      </contour>
    </TTGlyph>
    <TTGlyph name="f" xMin="41" yMin="0" xMax="577" yMax="770">
      <contour>
        <pt x="335" y="281" on="1"/>
        <pt x="335" y="196" on="0"/>
        <pt x="260" y="118" on="0"/>
        <pt x="185" y="118" on="1"/>
        <pt x="185" y="171" on="0"/>
        <pt x="185" y="278" on="0"/>
        <pt x="185" y="384" on="0"/>
        <pt x="185" y="491" on="0"/>
        <pt x="185" y="544" on="1"/>
        <pt x="185" y="606" on="0"/>
        <pt x="241" y="709" on="0"/>
        <pt x="335" y="770" on="0"/>
        <pt x="393" y="770" on="1"/>
        <pt x="469" y="770" on="0"/>
        <pt x="538" y="757" on="0"/>
        <pt x="553" y="742" on="1"/>
        <pt x="567" y="729" on="0"/>
        <pt x="577" y="682" on="0"/>
        <pt x="577" y="658" on="1"/>
        <pt x="577" y="646" on="0"/>
        <pt x="575" y="621" on="0"/>
        <pt x="572" y="610" on="1"/>
        <pt x="566" y="610" on="1"/>
        <pt x="545" y="620" on="0"/>
        <pt x="456" y="635" on="0"/>
        <pt x="400" y="635" on="1"/>
        <pt x="381" y="635" on="0"/>
        <pt x="339" y="633" on="0"/>
        <pt x="318" y="629" on="1"/>
        <pt x="318" y="601" on="0"/>
        <pt x="328" y="539" on="0"/>
        <pt x="335" y="510" on="1"/>
        <pt x="335" y="472" on="0"/>
        <pt x="335" y="395" on="0"/>
        <pt x="335" y="319" on="0"/>
      </contour>
      <contour>
        <pt x="41" y="510" on="1"/>
        <pt x="449" y="510" on="1"/>
        <pt x="508" y="510" on="0"/>
        <pt x="552" y="473" on="0"/>
        <pt x="552" y="423" on="1"/>
        <pt x="552" y="406" on="0"/>
        <pt x="548" y="373" on="0"/>
        <pt x="545" y="360" on="1"/>
        <pt x="267" y="360" on="1"/>
        <pt x="179" y="360" on="0"/>
        <pt x="80" y="384" on="0"/>
        <pt x="41" y="441" on="0"/>
        <pt x="41" y="491" on="1"/>
        <pt x="41" y="496" on="0"/>
        <pt x="41" y="506" on="0"/>
      </contour>
      <contour>
        <pt x="50" y="150" on="1"/>
        <pt x="315" y="150" on="1"/>
        <pt x="428" y="150" on="0"/>
        <pt x="522" y="90" on="0"/>
        <pt x="522" y="43" on="1"/>
        <pt x="522" y="20" on="0"/>
        <pt x="515" y="0" on="1"/>
        <pt x="157" y="0" on="1"/>
        <pt x="113" y="0" on="0"/>
        <pt x="67" y="22" on="0"/>
        <pt x="50" y="79" on="0"/>
        <pt x="50" y="131" on="1"/>
        <pt x="50" y="136" on="0"/>
        <pt x="50" y="146" on="0"/>
      </contour>
      <contour>
        <pt x="301" y="139" on="1"/>
        <pt x="251" y="120" on="1"/>
        <pt x="248" y="135" on="1"/>
        <pt x="289" y="166" on="1"/>
      </contour>
    </TTGlyph>
    <TTGlyph name="f.italic" xMin="36" yMin="-207" xMax="572" yMax="770">
      <contour>
        <pt x="36" y="440" on="1"/>
        <pt x="449" y="440" on="1"/>
        <pt x="489" y="440" on="0"/>
        <pt x="533" y="424" on="0"/>
        <pt x="552" y="386" on="0"/>
        <pt x="552" y="353" on="1"/>
        <pt x="552" y="336" on="0"/>
        <pt x="548" y="303" on="0"/>
        <pt x="545" y="290" on="1"/>
        <pt x="262" y="290" on="1"/>
        <pt x="174" y="290" on="0"/>
        <pt x="75" y="314" on="0"/>
        <pt x="36" y="371" on="0"/>
        <pt x="36" y="421" on="1"/>
        <pt x="36" y="426" on="0"/>
        <pt x="36" y="436" on="0"/>
      </contour>
      <contour>
        <pt x="175" y="544" on="1"/>
        <pt x="175" y="611" on="0"/>
        <pt x="237" y="713" on="0"/>
        <pt x="341" y="770" on="0"/>
        <pt x="403" y="770" on="1"/>
        <pt x="455" y="770" on="0"/>
        <pt x="522" y="748" on="0"/>
        <pt x="541" y="729" on="1"/>
        <pt x="558" y="714" on="0"/>
        <pt x="572" y="676" on="0"/>
        <pt x="572" y="656" on="1"/>
        <pt x="572" y="643" on="1"/>
        <pt x="572" y="600" on="0"/>
        <pt x="514" y="535" on="0"/>
        <pt x="466" y="535" on="1"/>
        <pt x="453" y="535" on="0"/>
        <pt x="441" y="538" on="1"/>
        <pt x="441" y="544" on="1"/>
        <pt x="451" y="595" on="0"/>
        <pt x="448" y="630" on="1"/>
        <pt x="437" y="633" on="0"/>
        <pt x="413" y="635" on="0"/>
        <pt x="400" y="635" on="1"/>
        <pt x="388" y="635" on="0"/>
        <pt x="368" y="627" on="0"/>
        <pt x="360" y="619" on="1"/>
        <pt x="351" y="610" on="0"/>
        <pt x="340" y="581" on="0"/>
        <pt x="335" y="511" on="0"/>
        <pt x="335" y="439" on="1"/>
        <pt x="335" y="386" on="0"/>
        <pt x="335" y="259" on="0"/>
        <pt x="335" y="118" on="0"/>
        <pt x="335" y="-31" on="0"/>
        <pt x="335" y="-107" on="1"/>
        <pt x="335" y="-153" on="0"/>
        <pt x="266" y="-207" on="0"/>
        <pt x="198" y="-207" on="1"/>
        <pt x="188" y="-207" on="0"/>
        <pt x="165" y="-204" on="0"/>
        <pt x="155" y="-200" on="1"/>
        <pt x="163" y="-177" on="0"/>
        <pt x="175" y="-122" on="0"/>
        <pt x="175" y="-92" on="1"/>
        <pt x="175" y="-12" on="0"/>
        <pt x="175" y="147" on="0"/>
        <pt x="175" y="306" on="0"/>
        <pt x="175" y="465" on="0"/>
      </contour>
    </TTGlyph>
    <TTGlyph name="g" xMin="30" yMin="-250" xMax="575" yMax="675">
      <contour>
        <pt x="137" y="63" on="1"/>
        <pt x="137" y="101" on="0"/>
        <pt x="183" y="159" on="0"/>
        <pt x="230" y="170" on="1"/>
        <pt x="259" y="178" on="0"/>
        <pt x="286" y="174" on="0"/>
        <pt x="287" y="172" on="1"/>
        <pt x="275" y="147" on="0"/>
        <pt x="275" y="113" on="1"/>
        <pt x="275" y="99" on="0"/>
        <pt x="293" y="80" on="0"/>
        <pt x="309" y="78" on="1"/>
        <pt x="447" y="68" on="1"/>
        <pt x="483" y="66" on="0"/>
        <pt x="541" y="36" on="0"/>
        <pt x="575" y="-17" on="0"/>
        <pt x="575" y="-55" on="1"/>
        <pt x="575" y="-67" on="1"/>
        <pt x="575" y="-154" on="0"/>
        <pt x="406" y="-250" on="0"/>
        <pt x="254" y="-250" on="1"/>
        <pt x="245" y="-250" on="1"/>
        <pt x="175" y="-250" on="0"/>
        <pt x="79" y="-216" on="0"/>
        <pt x="30" y="-155" on="0"/>
        <pt x="30" y="-114" on="1"/>
        <pt x="30" y="-106" on="1"/>
        <pt x="30" y="-60" on="0"/>
        <pt x="104" y="0" on="0"/>
        <pt x="167" y="0" on="1"/>
        <pt x="192" y="0" on="0"/>
        <pt x="226" y="-10" on="0"/>
        <pt x="226" y="-15" on="1"/>
        <pt x="201" y="-32" on="0"/>
        <pt x="180" y="-65" on="0"/>
        <pt x="180" y="-92" on="1"/>
        <pt x="180" y="-98" on="1"/>
        <pt x="180" y="-128" on="0"/>
        <pt x="220" y="-150" on="0"/>
        <pt x="263" y="-150" on="1"/>
        <pt x="276" y="-150" on="1"/>
        <pt x="317" y="-150" on="0"/>
        <pt x="388" y="-145" on="0"/>
        <pt x="417" y="-139" on="1"/>
        <pt x="423" y="-129" on="0"/>
        <pt x="427" y="-111" on="0"/>
        <pt x="427" y="-101" on="1"/>
        <pt x="427" y="-94" on="1"/>
        <pt x="427" y="-81" on="0"/>
        <pt x="413" y="-67" on="0"/>
        <pt x="400" y="-66" on="1"/>
        <pt x="283" y="-57" on="1"/>
        <pt x="239" y="-53" on="0"/>
        <pt x="173" y="-21" on="0"/>
        <pt x="137" y="31" on="0"/>
      </contour>
      <contour>
        <pt x="461" y="495" on="1"/>
        <pt x="451" y="490" on="0"/>
        <pt x="408" y="483" on="0"/>
        <pt x="400" y="490" on="1"/>
        <pt x="420" y="581" on="1"/>
        <pt x="423" y="594" on="0"/>
        <pt x="425" y="615" on="0"/>
        <pt x="425" y="631" on="1"/>
        <pt x="425" y="642" on="0"/>
        <pt x="423" y="662" on="0"/>
        <pt x="420" y="672" on="1"/>
        <pt x="440" y="675" on="0"/>
        <pt x="459" y="675" on="1"/>
        <pt x="508" y="675" on="0"/>
        <pt x="568" y="646" on="0"/>
        <pt x="568" y="605" on="1"/>
        <pt x="568" y="600" on="1"/>
        <pt x="568" y="578" on="0"/>
        <pt x="542" y="536" on="0"/>
        <pt x="503" y="516" on="1"/>
      </contour>
      <contour>
        <pt x="301" y="270" on="1"/>
        <pt x="357" y="270" on="0"/>
        <pt x="412" y="312" on="0"/>
        <pt x="412" y="356" on="1"/>
        <pt x="412" y="364" on="1"/>
        <pt x="412" y="387" on="0"/>
        <pt x="404" y="408" on="1"/>
        <pt x="385" y="415" on="0"/>
        <pt x="340" y="422" on="0"/>
        <pt x="312" y="422" on="1"/>
        <pt x="257" y="422" on="0"/>
        <pt x="201" y="380" on="0"/>
        <pt x="201" y="336" on="1"/>
        <pt x="201" y="328" on="1"/>
        <pt x="201" y="308" on="0"/>
        <pt x="209" y="287" on="1"/>
        <pt x="229" y="279" on="0"/>
        <pt x="273" y="270" on="0"/>
      </contour>
      <contour>
        <pt x="61" y="354" on="1"/>
        <pt x="61" y="415" on="0"/>
        <pt x="125" y="504" on="0"/>
        <pt x="234" y="552" on="0"/>
        <pt x="302" y="552" on="1"/>
        <pt x="371" y="553" on="0"/>
        <pt x="480" y="504" on="0"/>
        <pt x="542" y="416" on="0"/>
        <pt x="542" y="358" on="1"/>
        <pt x="542" y="348" on="1"/>
        <pt x="542" y="290" on="0"/>
        <pt x="478" y="206" on="0"/>
        <pt x="369" y="160" on="0"/>
        <pt x="301" y="160" on="1"/>
        <pt x="232" y="159" on="0"/>
        <pt x="124" y="205" on="0"/>
        <pt x="61" y="289" on="0"/>
        <pt x="61" y="344" on="1"/>
      </contour>
      <contour>
        <pt x="154" y="-21" on="1"/>
        <pt x="154" y="31" on="1"/>
        <pt x="187" y="31" on="1"/>
        <pt x="187" y="-21" on="1"/>
      </contour>
      <contour>
        <pt x="211" y="139" on="1"/>
        <pt x="211" y="201" on="1"/>
        <pt x="244" y="201" on="1"/>
        <pt x="244" y="139" on="1"/>
      </contour>
      <contour>
        <pt x="443" y="467" on="1"/>
        <pt x="443" y="529" on="1"/>
        <pt x="476" y="529" on="1"/>
        <pt x="476" y="467" on="1"/>
      </contour>
    </TTGlyph>
    <TTGlyph name="g.italic" xMin="45" yMin="-210" xMax="540" yMax="552">
      <contour>
        <pt x="200" y="28" on="1"/>
        <pt x="171" y="28" on="0"/>
        <pt x="115" y="61" on="0"/>
        <pt x="71" y="119" on="0"/>
        <pt x="45" y="194" on="0"/>
        <pt x="45" y="236" on="1"/>
        <pt x="45" y="258" on="1"/>
        <pt x="45" y="336" on="0"/>
        <pt x="82" y="448" on="0"/>
        <pt x="144" y="519" on="0"/>
        <pt x="218" y="552" on="0"/>
        <pt x="255" y="552" on="1"/>
        <pt x="290" y="552" on="0"/>
        <pt x="347" y="523" on="0"/>
        <pt x="386" y="479" on="0"/>
        <pt x="393" y="456" on="1"/>
        <pt x="403" y="426" on="0"/>
        <pt x="420" y="391" on="0"/>
        <pt x="410" y="368" on="1"/>
        <pt x="392" y="388" on="0"/>
        <pt x="343" y="408" on="0"/>
        <pt x="310" y="408" on="1"/>
        <pt x="255" y="408" on="0"/>
        <pt x="200" y="343" on="0"/>
        <pt x="200" y="281" on="1"/>
        <pt x="200" y="270" on="1"/>
        <pt x="200" y="240" on="0"/>
        <pt x="203" y="203" on="0"/>
        <pt x="207" y="187" on="1"/>
        <pt x="212" y="186" on="0"/>
        <pt x="223" y="184" on="0"/>
        <pt x="228" y="184" on="1"/>
        <pt x="269" y="184" on="0"/>
        <pt x="339" y="214" on="0"/>
        <pt x="396" y="276" on="0"/>
        <pt x="418" y="322" on="1"/>
        <pt x="419" y="316" on="0"/>
        <pt x="413" y="275" on="0"/>
        <pt x="403" y="223" on="0"/>
        <pt x="397" y="200" on="1"/>
        <pt x="386" y="157" on="0"/>
        <pt x="325" y="78" on="0"/>
        <pt x="243" y="28" on="0"/>
      </contour>
      <contour>
        <pt x="272" y="-60" on="1"/>
        <pt x="341" y="-60" on="0"/>
        <pt x="388" y="-41" on="1"/>
        <pt x="391" y="-21" on="0"/>
        <pt x="393" y="23" on="0"/>
        <pt x="393" y="48" on="1"/>
        <pt x="393" y="112" on="0"/>
        <pt x="393" y="240" on="0"/>
        <pt x="393" y="369" on="0"/>
        <pt x="393" y="433" on="1"/>
        <pt x="393" y="465" on="0"/>
        <pt x="399" y="515" on="0"/>
        <pt x="406" y="543" on="1"/>
        <pt x="418" y="545" on="0"/>
        <pt x="439" y="546" on="0"/>
        <pt x="452" y="546" on="1"/>
        <pt x="477" y="546" on="0"/>
        <pt x="516" y="518" on="0"/>
        <pt x="540" y="451" on="0"/>
        <pt x="540" y="391" on="1"/>
        <pt x="540" y="346" on="0"/>
        <pt x="540" y="257" on="0"/>
        <pt x="540" y="168" on="0"/>
        <pt x="540" y="79" on="0"/>
        <pt x="540" y="34" on="1"/>
        <pt x="540" y="-38" on="0"/>
        <pt x="465" y="-148" on="0"/>
        <pt x="339" y="-210" on="0"/>
        <pt x="264" y="-210" on="1"/>
        <pt x="198" y="-210" on="0"/>
        <pt x="136" y="-188" on="0"/>
        <pt x="122" y="-175" on="1"/>
        <pt x="106" y="-159" on="0"/>
        <pt x="90" y="-100" on="0"/>
        <pt x="90" y="-69" on="1"/>
        <pt x="90" y="-58" on="0"/>
        <pt x="92" y="-40" on="0"/>
        <pt x="94" y="-31" on="1"/>
        <pt x="100" y="-31" on="1"/>
        <pt x="141" y="-46" on="0"/>
        <pt x="223" y="-60" on="0"/>
      </contour>
      <contour>
        <pt x="405" y="469" on="1"/>
        <pt x="444" y="345" on="1"/>
        <pt x="422" y="342" on="1"/>
        <pt x="382" y="469" on="1"/>
      </contour>
      <contour>
        <pt x="407" y="171" on="1"/>
        <pt x="381" y="171" on="1"/>
        <pt x="423" y="292" on="1"/>
        <pt x="445" y="289" on="1"/>
      </contour>
    </TTGlyph>
    <TTGlyph name="h" xMin="45" yMin="-6" xMax="550" yMax="756">
      <contour>
        <pt x="215" y="0" on="1"/>
        <pt x="202" y="-2" on="0"/>
        <pt x="184" y="-3" on="0"/>
        <pt x="173" y="-3" on="1"/>
        <pt x="132" y="-3" on="0"/>
        <pt x="84" y="22" on="0"/>
        <pt x="65" y="62" on="0"/>
        <pt x="65" y="85" on="1"/>
        <pt x="65" y="169" on="0"/>
        <pt x="65" y="308" on="0"/>
        <pt x="65" y="437" on="0"/>
        <pt x="65" y="571" on="0"/>
        <pt x="65" y="651" on="1"/>
        <pt x="65" y="676" on="0"/>
        <pt x="56" y="732" on="0"/>
        <pt x="45" y="750" on="1"/>
        <pt x="56" y="752" on="0"/>
        <pt x="79" y="756" on="0"/>
        <pt x="90" y="756" on="1"/>
        <pt x="123" y="756" on="0"/>
        <pt x="180" y="725" on="0"/>
        <pt x="215" y="648" on="0"/>
        <pt x="215" y="579" on="1"/>
        <pt x="215" y="504" on="0"/>
        <pt x="215" y="359" on="0"/>
        <pt x="215" y="217" on="0"/>
        <pt x="215" y="74" on="0"/>
      </contour>
      <contour>
        <pt x="550" y="0" on="1"/>
        <pt x="535" y="-3" on="0"/>
        <pt x="508" y="-6" on="0"/>
        <pt x="492" y="-6" on="1"/>
        <pt x="428" y="-6" on="0"/>
        <pt x="363" y="49" on="0"/>
        <pt x="363" y="129" on="1"/>
        <pt x="363" y="185" on="0"/>
        <pt x="381" y="308" on="0"/>
        <pt x="394" y="373" on="1"/>
        <pt x="379" y="385" on="0"/>
        <pt x="363" y="385" on="1"/>
        <pt x="334" y="385" on="0"/>
        <pt x="276" y="343" on="0"/>
        <pt x="221" y="235" on="0"/>
        <pt x="194" y="136" on="1"/>
        <pt x="191" y="160" on="0"/>
        <pt x="190" y="203" on="0"/>
        <pt x="193" y="249" on="0"/>
        <pt x="201" y="302" on="0"/>
        <pt x="208" y="334" on="1"/>
        <pt x="218" y="379" on="0"/>
        <pt x="259" y="457" on="0"/>
        <pt x="316" y="518" on="0"/>
        <pt x="384" y="552" on="0"/>
        <pt x="420" y="552" on="1"/>
        <pt x="442" y="552" on="0"/>
        <pt x="481" y="522" on="0"/>
        <pt x="511" y="472" on="0"/>
        <pt x="529" y="413" on="0"/>
        <pt x="529" y="384" on="1"/>
        <pt x="529" y="328" on="0"/>
        <pt x="529" y="215" on="0"/>
        <pt x="529" y="159" on="1"/>
        <pt x="529" y="111" on="0"/>
        <pt x="538" y="44" on="0"/>
      </contour>
      <contour>
        <pt x="207" y="381" on="1"/>
        <pt x="233" y="381" on="1"/>
        <pt x="190" y="247" on="1"/>
        <pt x="166" y="250" on="1"/>
      </contour>
    </TTGlyph>
    <TTGlyph name="h.italic" xMin="46" yMin="-10" xMax="579" yMax="756">
      <contour>
        <pt x="214" y="0" on="1"/>
        <pt x="201" y="-2" on="0"/>
        <pt x="183" y="-3" on="0"/>
        <pt x="172" y="-3" on="1"/>
        <pt x="131" y="-3" on="0"/>
        <pt x="85" y="20" on="0"/>
        <pt x="66" y="62" on="0"/>
        <pt x="66" y="89" on="1"/>
        <pt x="66" y="169" on="0"/>
        <pt x="66" y="314" on="0"/>
        <pt x="66" y="452" on="0"/>
        <pt x="66" y="585" on="0"/>
        <pt x="66" y="651" on="1"/>
        <pt x="66" y="676" on="0"/>
        <pt x="57" y="732" on="0"/>
        <pt x="46" y="750" on="1"/>
        <pt x="57" y="752" on="0"/>
        <pt x="80" y="756" on="0"/>
        <pt x="91" y="756" on="1"/>
        <pt x="127" y="756" on="0"/>
        <pt x="183" y="725" on="0"/>
        <pt x="214" y="648" on="0"/>
        <pt x="214" y="579" on="1"/>
        <pt x="214" y="504" on="0"/>
        <pt x="214" y="350" on="0"/>
        <pt x="214" y="200" on="0"/>
        <pt x="214" y="61" on="0"/>
      </contour>
      <contour>
        <pt x="410" y="552" on="1"/>
        <pt x="432" y="552" on="0"/>
        <pt x="471" y="523" on="0"/>
        <pt x="501" y="477" on="0"/>
        <pt x="519" y="421" on="0"/>
        <pt x="519" y="394" on="1"/>
        <pt x="519" y="336" on="0"/>
        <pt x="519" y="218" on="0"/>
        <pt x="519" y="159" on="1"/>
        <pt x="519" y="155" on="0"/>
        <pt x="519" y="146" on="0"/>
        <pt x="519" y="142" on="1"/>
        <pt x="520" y="142" on="0"/>
        <pt x="522" y="142" on="0"/>
        <pt x="523" y="142" on="1"/>
        <pt x="537" y="143" on="0"/>
        <pt x="559" y="152" on="0"/>
        <pt x="569" y="162" on="1"/>
        <pt x="575" y="162" on="1"/>
        <pt x="577" y="152" on="0"/>
        <pt x="579" y="128" on="0"/>
        <pt x="579" y="117" on="1"/>
        <pt x="579" y="72" on="0"/>
        <pt x="559" y="36" on="1"/>
        <pt x="548" y="17" on="0"/>
        <pt x="510" y="-10" on="0"/>
        <pt x="484" y="-10" on="1"/>
        <pt x="445" y="-10" on="0"/>
        <pt x="386" y="26" on="0"/>
        <pt x="353" y="89" on="0"/>
        <pt x="353" y="129" on="1"/>
        <pt x="353" y="195" on="0"/>
        <pt x="371" y="309" on="0"/>
        <pt x="384" y="373" on="1"/>
        <pt x="369" y="385" on="0"/>
        <pt x="353" y="385" on="1"/>
        <pt x="326" y="385" on="0"/>
        <pt x="272" y="342" on="0"/>
        <pt x="219" y="234" on="0"/>
        <pt x="192" y="136" on="1"/>
        <pt x="189" y="160" on="0"/>
        <pt x="188" y="203" on="0"/>
        <pt x="191" y="249" on="0"/>
        <pt x="199" y="302" on="0"/>
        <pt x="206" y="334" on="1"/>
        <pt x="219" y="394" on="0"/>
        <pt x="281" y="493" on="0"/>
        <pt x="364" y="552" on="0"/>
      </contour>
      <contour>
        <pt x="205" y="379" on="1"/>
        <pt x="231" y="379" on="1"/>
        <pt x="188" y="247" on="1"/>
        <pt x="166" y="250" on="1"/>
      </contour>
    </TTGlyph>
    <TTGlyph name="i" xMin="63" yMin="0" xMax="567" yMax="781">
      <contour>
        <pt x="72" y="540" on="1"/>
        <pt x="94" y="543" on="0"/>
        <pt x="162" y="547" on="0"/>
        <pt x="232" y="550" on="0"/>
        <pt x="255" y="550" on="1"/>
        <pt x="307" y="550" on="0"/>
        <pt x="373" y="531" on="0"/>
        <pt x="405" y="483" on="0"/>
        <pt x="405" y="438" on="1"/>
        <pt x="405" y="385" on="0"/>
        <pt x="405" y="278" on="0"/>
        <pt x="405" y="171" on="0"/>
        <pt x="405" y="117" on="1"/>
        <pt x="325" y="117" on="0"/>
        <pt x="255" y="190" on="0"/>
        <pt x="255" y="275" on="1"/>
        <pt x="255" y="316" on="0"/>
        <pt x="255" y="398" on="0"/>
        <pt x="255" y="438" on="1"/>
        <pt x="205" y="405" on="0"/>
        <pt x="143" y="385" on="0"/>
        <pt x="124" y="385" on="1"/>
        <pt x="99" y="385" on="0"/>
        <pt x="63" y="427" on="0"/>
        <pt x="63" y="477" on="1"/>
        <pt x="63" y="494" on="0"/>
        <pt x="68" y="528" on="0"/>
      </contour>
      <contour>
        <pt x="68" y="150" on="1"/>
        <pt x="370" y="150" on="1"/>
        <pt x="446" y="150" on="0"/>
        <pt x="531" y="123" on="0"/>
        <pt x="567" y="75" on="0"/>
        <pt x="567" y="43" on="1"/>
        <pt x="567" y="20" on="0"/>
        <pt x="560" y="0" on="1"/>
        <pt x="172" y="0" on="1"/>
        <pt x="128" y="0" on="0"/>
        <pt x="81" y="20" on="0"/>
        <pt x="64" y="67" on="0"/>
        <pt x="64" y="107" on="1"/>
        <pt x="64" y="120" on="0"/>
        <pt x="66" y="140" on="0"/>
      </contour>
      <contour>
        <pt x="425" y="616" on="1"/>
        <pt x="418" y="614" on="0"/>
        <pt x="398" y="611" on="0"/>
        <pt x="387" y="611" on="1"/>
        <pt x="309" y="611" on="0"/>
        <pt x="227" y="667" on="0"/>
        <pt x="227" y="721" on="1"/>
        <pt x="227" y="775" on="1"/>
        <pt x="246" y="778" on="0"/>
        <pt x="289" y="781" on="0"/>
        <pt x="306" y="781" on="1"/>
        <pt x="369" y="781" on="0"/>
        <pt x="425" y="731" on="0"/>
        <pt x="425" y="698" on="1"/>
      </contour>
      <contour>
        <pt x="266" y="425" on="1"/>
        <pt x="242" y="441" on="1"/>
        <pt x="270" y="478" on="1"/>
        <pt x="285" y="475" on="1"/>
      </contour>
      <contour>
        <pt x="280" y="139" on="1"/>
        <pt x="292" y="166" on="1"/>
        <pt x="333" y="135" on="1"/>
        <pt x="330" y="120" on="1"/>
      </contour>
    </TTGlyph>
    <TTGlyph name="i.italic" xMin="29" yMin="-10" xMax="568" yMax="781">
      <contour>
        <pt x="37" y="510" on="1"/>
        <pt x="76" y="525" on="0"/>
        <pt x="145" y="543" on="0"/>
        <pt x="208" y="550" on="0"/>
        <pt x="238" y="550" on="1"/>
        <pt x="283" y="550" on="0"/>
        <pt x="345" y="527" on="0"/>
        <pt x="378" y="483" on="0"/>
        <pt x="378" y="451" on="1"/>
        <pt x="378" y="412" on="0"/>
        <pt x="378" y="333" on="0"/>
        <pt x="378" y="255" on="0"/>
        <pt x="378" y="215" on="1"/>
        <pt x="378" y="193" on="0"/>
        <pt x="381" y="153" on="0"/>
        <pt x="385" y="136" on="1"/>
        <pt x="393" y="135" on="0"/>
        <pt x="410" y="135" on="0"/>
        <pt x="419" y="135" on="1"/>
        <pt x="454" y="135" on="0"/>
        <pt x="527" y="151" on="0"/>
        <pt x="558" y="169" on="1"/>
        <pt x="564" y="169" on="1"/>
        <pt x="566" y="159" on="0"/>
        <pt x="568" y="140" on="0"/>
        <pt x="568" y="131" on="1"/>
        <pt x="568" y="94" on="0"/>
        <pt x="547" y="41" on="0"/>
        <pt x="533" y="27" on="1"/>
        <pt x="519" y="13" on="0"/>
        <pt x="465" y="-10" on="0"/>
        <pt x="408" y="-10" on="1"/>
        <pt x="364" y="-10" on="0"/>
        <pt x="297" y="20" on="0"/>
        <pt x="251" y="69" on="0"/>
        <pt x="228" y="127" on="0"/>
        <pt x="228" y="155" on="1"/>
        <pt x="228" y="200" on="0"/>
        <pt x="228" y="290" on="0"/>
        <pt x="228" y="379" on="0"/>
        <pt x="228" y="424" on="1"/>
        <pt x="197" y="393" on="0"/>
        <pt x="146" y="354" on="0"/>
        <pt x="100" y="337" on="0"/>
        <pt x="76" y="337" on="1"/>
        <pt x="55" y="337" on="0"/>
        <pt x="29" y="391" on="0"/>
        <pt x="29" y="446" on="1"/>
        <pt x="29" y="463" on="0"/>
        <pt x="34" y="498" on="0"/>
      </contour>
      <contour>
        <pt x="399" y="615" on="1"/>
        <pt x="395" y="614" on="0"/>
        <pt x="379" y="612" on="0"/>
        <pt x="371" y="612" on="1"/>
        <pt x="286" y="612" on="0"/>
        <pt x="201" y="668" on="0"/>
        <pt x="201" y="721" on="1"/>
        <pt x="201" y="775" on="1"/>
        <pt x="220" y="778" on="0"/>
        <pt x="263" y="781" on="0"/>
        <pt x="280" y="781" on="1"/>
        <pt x="343" y="781" on="0"/>
        <pt x="399" y="731" on="0"/>
        <pt x="399" y="698" on="1"/>
      </contour>
      <contour>
        <pt x="240" y="412" on="1"/>
        <pt x="212" y="422" on="1"/>
        <pt x="271" y="484" on="1"/>
        <pt x="286" y="481" on="1"/>
      </contour>
    </TTGlyph>
    <TTGlyph name="j" xMin="20" yMin="-250" xMax="466" yMax="781">
      <contour>
        <pt x="197" y="-100" on="1"/>
        <pt x="221" y="-100" on="0"/>
        <pt x="271" y="-94" on="0"/>
        <pt x="294" y="-87" on="1"/>
        <pt x="298" y="-70" on="0"/>
        <pt x="300" y="-28" on="0"/>
        <pt x="300" y="0" on="1"/>
        <pt x="300" y="56" on="0"/>
        <pt x="300" y="167" on="0"/>
        <pt x="300" y="279" on="0"/>
        <pt x="300" y="390" on="0"/>
        <pt x="300" y="446" on="1"/>
        <pt x="222" y="410" on="0"/>
        <pt x="135" y="385" on="0"/>
        <pt x="108" y="385" on="1"/>
        <pt x="83" y="385" on="0"/>
        <pt x="47" y="427" on="0"/>
        <pt x="47" y="477" on="1"/>
        <pt x="47" y="494" on="0"/>
        <pt x="52" y="528" on="0"/>
        <pt x="56" y="540" on="1"/>
        <pt x="78" y="543" on="0"/>
        <pt x="142" y="546" on="0"/>
        <pt x="211" y="549" on="0"/>
        <pt x="276" y="550" on="0"/>
        <pt x="300" y="550" on="1"/>
        <pt x="348" y="550" on="0"/>
        <pt x="415" y="532" on="0"/>
        <pt x="450" y="491" on="0"/>
        <pt x="450" y="454" on="1"/>
        <pt x="450" y="397" on="0"/>
        <pt x="450" y="282" on="0"/>
        <pt x="450" y="166" on="0"/>
        <pt x="450" y="51" on="0"/>
        <pt x="450" y="-6" on="1"/>
        <pt x="451" y="-76" on="0"/>
        <pt x="384" y="-186" on="0"/>
        <pt x="274" y="-250" on="0"/>
        <pt x="209" y="-250" on="1"/>
        <pt x="135" y="-250" on="0"/>
        <pt x="66" y="-234" on="0"/>
        <pt x="52" y="-220" on="1"/>
        <pt x="34" y="-202" on="0"/>
        <pt x="20" y="-143" on="0"/>
        <pt x="20" y="-109" on="1"/>
        <pt x="20" y="-98" on="0"/>
        <pt x="22" y="-80" on="0"/>
        <pt x="24" y="-71" on="1"/>
        <pt x="30" y="-71" on="1"/>
        <pt x="63" y="-86" on="0"/>
        <pt x="139" y="-100" on="0"/>
      </contour>
      <contour>
        <pt x="466" y="616" on="1"/>
        <pt x="459" y="614" on="0"/>
        <pt x="439" y="611" on="0"/>
        <pt x="428" y="611" on="1"/>
        <pt x="350" y="611" on="0"/>
        <pt x="268" y="667" on="0"/>
        <pt x="268" y="721" on="1"/>
        <pt x="268" y="775" on="1"/>
        <pt x="287" y="778" on="0"/>
        <pt x="330" y="781" on="0"/>
        <pt x="347" y="781" on="1"/>
        <pt x="410" y="781" on="0"/>
        <pt x="466" y="731" on="0"/>
        <pt x="466" y="698" on="1"/>
      </contour>
      <contour>
        <pt x="311" y="433" on="1"/>
        <pt x="287" y="449" on="1"/>
        <pt x="315" y="486" on="1"/>
        <pt x="330" y="483" on="1"/>
      </contour>
    </TTGlyph>
    <TTGlyph name="j.italic" xMin="82" yMin="-200" xMax="514" yMax="781">
      <contour>
        <pt x="273" y="-56" on="1"/>
        <pt x="313" y="-56" on="0"/>
        <pt x="349" y="-8" on="0"/>
        <pt x="349" y="46" on="1"/>
        <pt x="349" y="111" on="0"/>
        <pt x="349" y="241" on="0"/>
        <pt x="349" y="371" on="0"/>
        <pt x="349" y="436" on="1"/>
        <pt x="282" y="396" on="0"/>
        <pt x="202" y="348" on="0"/>
        <pt x="172" y="348" on="1"/>
        <pt x="145" y="348" on="0"/>
        <pt x="110" y="393" on="0"/>
        <pt x="111" y="440" on="1"/>
        <pt x="111" y="480" on="0"/>
        <pt x="125" y="510" on="1"/>
        <pt x="151" y="522" on="0"/>
        <pt x="234" y="540" on="0"/>
        <pt x="324" y="550" on="0"/>
        <pt x="359" y="550" on="1"/>
        <pt x="403" y="550" on="0"/>
        <pt x="465" y="518" on="0"/>
        <pt x="498" y="469" on="0"/>
        <pt x="498" y="444" on="1"/>
        <pt x="498" y="341" on="0"/>
        <pt x="498" y="135" on="0"/>
        <pt x="498" y="31" on="1"/>
        <pt x="498" y="-44" on="0"/>
        <pt x="447" y="-147" on="0"/>
        <pt x="347" y="-200" on="0"/>
        <pt x="271" y="-200" on="1"/>
        <pt x="236" y="-200" on="0"/>
        <pt x="160" y="-164" on="0"/>
        <pt x="132" y="-136" on="1"/>
        <pt x="109" y="-113" on="0"/>
        <pt x="82" y="-58" on="0"/>
        <pt x="82" y="-30" on="1"/>
        <pt x="82" y="21" on="0"/>
        <pt x="107" y="91" on="0"/>
        <pt x="129" y="113" on="1"/>
        <pt x="149" y="133" on="0"/>
        <pt x="204" y="155" on="0"/>
        <pt x="238" y="155" on="1"/>
        <pt x="253" y="155" on="0"/>
        <pt x="263" y="152" on="1"/>
        <pt x="263" y="146" on="1"/>
        <pt x="237" y="113" on="0"/>
        <pt x="217" y="34" on="0"/>
        <pt x="218" y="-32" on="0"/>
        <pt x="222" y="-49" on="1"/>
        <pt x="243" y="-56" on="0"/>
      </contour>
      <contour>
        <pt x="514" y="616" on="1"/>
        <pt x="507" y="614" on="0"/>
        <pt x="487" y="611" on="0"/>
        <pt x="476" y="611" on="1"/>
        <pt x="398" y="611" on="0"/>
        <pt x="316" y="667" on="0"/>
        <pt x="316" y="721" on="1"/>
        <pt x="316" y="775" on="1"/>
        <pt x="335" y="778" on="0"/>
        <pt x="378" y="781" on="0"/>
        <pt x="395" y="781" on="1"/>
        <pt x="458" y="781" on="0"/>
        <pt x="514" y="731" on="0"/>
        <pt x="514" y="698" on="1"/>
      </contour>
      <contour>
        <pt x="367" y="419" on="1"/>
        <pt x="337" y="437" on="1"/>
        <pt x="356" y="475" on="1"/>
        <pt x="372" y="472" on="1"/>
      </contour>
    </TTGlyph>
    <TTGlyph name="k" xMin="45" yMin="-10" xMax="587" yMax="756">
      <contour>
        <pt x="215" y="0" on="1"/>
        <pt x="202" y="-2" on="0"/>
        <pt x="184" y="-3" on="0"/>
        <pt x="173" y="-3" on="1"/>
        <pt x="132" y="-3" on="0"/>
        <pt x="84" y="42" on="0"/>
        <pt x="65" y="115" on="0"/>
        <pt x="65" y="155" on="1"/>
        <pt x="65" y="229" on="0"/>
        <pt x="65" y="351" on="0"/>
        <pt x="65" y="463" on="0"/>
        <pt x="65" y="581" on="0"/>
        <pt x="65" y="651" on="1"/>
        <pt x="65" y="676" on="0"/>
        <pt x="56" y="732" on="0"/>
        <pt x="45" y="750" on="1"/>
        <pt x="56" y="752" on="0"/>
        <pt x="79" y="756" on="0"/>
        <pt x="90" y="756" on="1"/>
        <pt x="123" y="756" on="0"/>
        <pt x="180" y="725" on="0"/>
        <pt x="215" y="648" on="0"/>
        <pt x="215" y="579" on="1"/>
        <pt x="215" y="504" on="0"/>
        <pt x="215" y="359" on="0"/>
        <pt x="215" y="217" on="0"/>
        <pt x="215" y="74" on="0"/>
      </contour>
      <contour>
        <pt x="490" y="-10" on="1"/>
        <pt x="453" y="-10" on="0"/>
        <pt x="403" y="8" on="0"/>
        <pt x="381" y="30" on="1"/>
        <pt x="369" y="42" on="0"/>
        <pt x="339" y="85" on="0"/>
        <pt x="325" y="110" on="1"/>
        <pt x="312" y="135" on="0"/>
        <pt x="292" y="185" on="0"/>
        <pt x="284" y="213" on="1"/>
        <pt x="253" y="213" on="1"/>
        <pt x="359" y="327" on="1"/>
        <pt x="403" y="238" on="0"/>
        <pt x="519" y="78" on="0"/>
        <pt x="587" y="12" on="1"/>
        <pt x="568" y="1" on="0"/>
        <pt x="519" y="-10" on="0"/>
      </contour>
      <contour>
        <pt x="173" y="291" on="1"/>
        <pt x="220" y="291" on="1"/>
        <pt x="275" y="331" on="0"/>
        <pt x="312" y="378" on="1"/>
        <pt x="374" y="458" on="0"/>
        <pt x="403" y="552" on="1"/>
        <pt x="427" y="552" on="1"/>
        <pt x="462" y="552" on="0"/>
        <pt x="518" y="539" on="0"/>
        <pt x="551" y="514" on="0"/>
        <pt x="551" y="497" on="1"/>
        <pt x="551" y="484" on="0"/>
        <pt x="542" y="455" on="0"/>
        <pt x="528" y="430" on="1"/>
        <pt x="494" y="366" on="0"/>
        <pt x="378" y="260" on="0"/>
        <pt x="241" y="193" on="0"/>
        <pt x="173" y="186" on="1"/>
      </contour>
    </TTGlyph>
    <TTGlyph name="k.italic" xMin="45" yMin="-10" xMax="589" yMax="756">
      <contour>
        <pt x="215" y="0" on="1"/>
        <pt x="202" y="-2" on="0"/>
        <pt x="184" y="-3" on="0"/>
        <pt x="173" y="-3" on="1"/>
        <pt x="132" y="-3" on="0"/>
        <pt x="84" y="42" on="0"/>
        <pt x="65" y="115" on="0"/>
        <pt x="65" y="155" on="1"/>
        <pt x="65" y="229" on="0"/>
        <pt x="65" y="351" on="0"/>
        <pt x="65" y="463" on="0"/>
        <pt x="65" y="581" on="0"/>
        <pt x="65" y="651" on="1"/>
        <pt x="65" y="676" on="0"/>
        <pt x="56" y="732" on="0"/>
        <pt x="45" y="750" on="1"/>
        <pt x="56" y="752" on="0"/>
        <pt x="79" y="756" on="0"/>
        <pt x="90" y="756" on="1"/>
        <pt x="123" y="756" on="0"/>
        <pt x="180" y="725" on="0"/>
        <pt x="215" y="648" on="0"/>
        <pt x="215" y="579" on="1"/>
        <pt x="215" y="504" on="0"/>
        <pt x="215" y="359" on="0"/>
        <pt x="215" y="217" on="0"/>
        <pt x="215" y="74" on="0"/>
      </contour>
      <contour>
        <pt x="586" y="187" on="1"/>
        <pt x="589" y="172" on="0"/>
        <pt x="589" y="150" on="1"/>
        <pt x="589" y="120" on="0"/>
        <pt x="572" y="64" on="0"/>
        <pt x="556" y="42" on="1"/>
        <pt x="540" y="19" on="0"/>
        <pt x="491" y="-10" on="0"/>
        <pt x="459" y="-10" on="1"/>
        <pt x="431" y="-10" on="0"/>
        <pt x="380" y="16" on="0"/>
        <pt x="358" y="38" on="1"/>
        <pt x="336" y="60" on="0"/>
        <pt x="302" y="116" on="0"/>
        <pt x="292" y="144" on="1"/>
        <pt x="287" y="158" on="0"/>
        <pt x="280" y="179" on="0"/>
        <pt x="278" y="189" on="1"/>
        <pt x="276" y="198" on="0"/>
        <pt x="276" y="216" on="0"/>
        <pt x="277" y="229" on="1"/>
        <pt x="279" y="229" on="0"/>
        <pt x="282" y="229" on="0"/>
        <pt x="283" y="229" on="1"/>
        <pt x="315" y="229" on="0"/>
        <pt x="369" y="271" on="0"/>
        <pt x="401" y="338" on="0"/>
        <pt x="401" y="375" on="1"/>
        <pt x="401" y="379" on="1"/>
        <pt x="401" y="384" on="0"/>
        <pt x="398" y="399" on="0"/>
        <pt x="396" y="403" on="1"/>
        <pt x="390" y="406" on="0"/>
        <pt x="380" y="409" on="0"/>
        <pt x="374" y="409" on="1"/>
        <pt x="353" y="409" on="0"/>
        <pt x="307" y="384" on="0"/>
        <pt x="261" y="324" on="0"/>
        <pt x="217" y="217" on="0"/>
        <pt x="198" y="136" on="1"/>
        <pt x="195" y="150" on="0"/>
        <pt x="191" y="191" on="0"/>
        <pt x="192" y="243" on="0"/>
        <pt x="200" y="302" on="0"/>
        <pt x="207" y="334" on="1"/>
        <pt x="220" y="390" on="0"/>
        <pt x="274" y="488" on="0"/>
        <pt x="347" y="549" on="0"/>
        <pt x="387" y="549" on="1"/>
        <pt x="416" y="549" on="0"/>
        <pt x="474" y="519" on="0"/>
        <pt x="523" y="470" on="0"/>
        <pt x="553" y="415" on="0"/>
        <pt x="553" y="390" on="1"/>
        <pt x="553" y="383" on="1"/>
        <pt x="553" y="323" on="0"/>
        <pt x="514" y="228" on="0"/>
        <pt x="444" y="173" on="0"/>
        <pt x="398" y="173" on="1"/>
        <pt x="394" y="173" on="0"/>
        <pt x="386" y="173" on="0"/>
        <pt x="384" y="173" on="1"/>
        <pt x="383" y="172" on="1"/>
        <pt x="389" y="165" on="0"/>
        <pt x="409" y="147" on="0"/>
        <pt x="416" y="142" on="1"/>
        <pt x="424" y="137" on="0"/>
        <pt x="443" y="131" on="0"/>
        <pt x="453" y="131" on="1"/>
        <pt x="484" y="131" on="0"/>
        <pt x="549" y="162" on="0"/>
        <pt x="580" y="187" on="1"/>
      </contour>
      <contour>
        <pt x="207" y="381" on="1"/>
        <pt x="233" y="381" on="1"/>
        <pt x="190" y="247" on="1"/>
        <pt x="168" y="250" on="1"/>
      </contour>
      <contour>
        <pt x="389" y="186" on="1"/>
        <pt x="378" y="155" on="1"/>
        <pt x="359" y="155" on="1"/>
        <pt x="370" y="186" on="1"/>
      </contour>
    </TTGlyph>
    <TTGlyph name="l" xMin="63" yMin="0" xMax="567" yMax="760">
      <contour>
        <pt x="72" y="750" on="1"/>
        <pt x="94" y="753" on="0"/>
        <pt x="162" y="757" on="0"/>
        <pt x="232" y="760" on="0"/>
        <pt x="255" y="760" on="1"/>
        <pt x="333" y="760" on="0"/>
        <pt x="405" y="715" on="0"/>
        <pt x="405" y="648" on="1"/>
        <pt x="405" y="582" on="0"/>
        <pt x="405" y="449" on="0"/>
        <pt x="405" y="316" on="0"/>
        <pt x="405" y="183" on="0"/>
        <pt x="405" y="117" on="1"/>
        <pt x="325" y="117" on="0"/>
        <pt x="255" y="190" on="0"/>
        <pt x="255" y="275" on="1"/>
        <pt x="255" y="337" on="0"/>
        <pt x="255" y="460" on="0"/>
        <pt x="255" y="578" on="0"/>
        <pt x="255" y="632" on="1"/>
        <pt x="222" y="618" on="0"/>
        <pt x="172" y="602" on="0"/>
        <pt x="137" y="595" on="0"/>
        <pt x="124" y="595" on="1"/>
        <pt x="99" y="595" on="0"/>
        <pt x="63" y="637" on="0"/>
        <pt x="63" y="687" on="1"/>
        <pt x="63" y="704" on="0"/>
        <pt x="68" y="738" on="0"/>
      </contour>
      <contour>
        <pt x="68" y="150" on="1"/>
        <pt x="370" y="150" on="1"/>
        <pt x="446" y="150" on="0"/>
        <pt x="531" y="123" on="0"/>
        <pt x="567" y="75" on="0"/>
        <pt x="567" y="43" on="1"/>
        <pt x="567" y="20" on="0"/>
        <pt x="560" y="0" on="1"/>
        <pt x="172" y="0" on="1"/>
        <pt x="128" y="0" on="0"/>
        <pt x="81" y="20" on="0"/>
        <pt x="64" y="67" on="0"/>
        <pt x="64" y="107" on="1"/>
        <pt x="64" y="120" on="0"/>
        <pt x="66" y="140" on="0"/>
      </contour>
      <contour>
        <pt x="266" y="619" on="1"/>
        <pt x="242" y="635" on="1"/>
        <pt x="270" y="672" on="1"/>
        <pt x="285" y="669" on="1"/>
      </contour>
      <contour>
        <pt x="280" y="139" on="1"/>
        <pt x="292" y="166" on="1"/>
        <pt x="333" y="135" on="1"/>
        <pt x="330" y="120" on="1"/>
      </contour>
    </TTGlyph>
    <TTGlyph name="l.italic" xMin="11" yMin="-10" xMax="560" yMax="760">
      <contour>
        <pt x="19" y="720" on="1"/>
        <pt x="58" y="735" on="0"/>
        <pt x="126" y="753" on="0"/>
        <pt x="185" y="760" on="0"/>
        <pt x="210" y="760" on="1"/>
        <pt x="260" y="760" on="0"/>
        <pt x="326" y="737" on="0"/>
        <pt x="360" y="693" on="0"/>
        <pt x="360" y="661" on="1"/>
        <pt x="360" y="605" on="0"/>
        <pt x="360" y="494" on="0"/>
        <pt x="360" y="382" on="0"/>
        <pt x="360" y="271" on="0"/>
        <pt x="360" y="215" on="1"/>
        <pt x="360" y="193" on="0"/>
        <pt x="363" y="154" on="0"/>
        <pt x="367" y="137" on="1"/>
        <pt x="377" y="136" on="0"/>
        <pt x="399" y="135" on="0"/>
        <pt x="411" y="135" on="1"/>
        <pt x="446" y="135" on="0"/>
        <pt x="519" y="151" on="0"/>
        <pt x="550" y="169" on="1"/>
        <pt x="556" y="169" on="1"/>
        <pt x="558" y="159" on="0"/>
        <pt x="560" y="140" on="0"/>
        <pt x="560" y="131" on="1"/>
        <pt x="560" y="94" on="0"/>
        <pt x="539" y="41" on="0"/>
        <pt x="525" y="27" on="1"/>
        <pt x="511" y="13" on="0"/>
        <pt x="457" y="-10" on="0"/>
        <pt x="400" y="-10" on="1"/>
        <pt x="354" y="-10" on="0"/>
        <pt x="283" y="20" on="0"/>
        <pt x="234" y="69" on="0"/>
        <pt x="210" y="127" on="0"/>
        <pt x="210" y="155" on="1"/>
        <pt x="210" y="215" on="0"/>
        <pt x="210" y="334" on="0"/>
        <pt x="210" y="452" on="0"/>
        <pt x="210" y="571" on="0"/>
        <pt x="210" y="631" on="1"/>
        <pt x="171" y="616" on="0"/>
        <pt x="121" y="577" on="0"/>
        <pt x="82" y="547" on="0"/>
        <pt x="58" y="547" on="1"/>
        <pt x="37" y="547" on="0"/>
        <pt x="11" y="601" on="0"/>
        <pt x="11" y="656" on="1"/>
        <pt x="11" y="673" on="0"/>
        <pt x="16" y="708" on="0"/>
      </contour>
      <contour>
        <pt x="222" y="616" on="1"/>
        <pt x="196" y="637" on="1"/>
        <pt x="253" y="695" on="1"/>
        <pt x="268" y="692" on="1"/>
      </contour>
    </TTGlyph>
    <TTGlyph name="m" xMin="27" yMin="-6" xMax="581" yMax="552">
      <contour>
        <pt x="180" y="0" on="1"/>
        <pt x="158" y="-6" on="0"/>
        <pt x="122" y="-6" on="1"/>
        <pt x="101" y="-6" on="0"/>
        <pt x="70" y="-2" on="0"/>
        <pt x="50" y="11" on="0"/>
        <pt x="40" y="36" on="0"/>
        <pt x="40" y="56" on="1"/>
        <pt x="40" y="120" on="0"/>
        <pt x="40" y="246" on="0"/>
        <pt x="40" y="373" on="0"/>
        <pt x="40" y="436" on="1"/>
        <pt x="40" y="465" on="0"/>
        <pt x="34" y="515" on="0"/>
        <pt x="27" y="542" on="1"/>
        <pt x="38" y="544" on="0"/>
        <pt x="59" y="546" on="0"/>
        <pt x="69" y="546" on="1"/>
        <pt x="112" y="546" on="0"/>
        <pt x="180" y="479" on="0"/>
        <pt x="180" y="409" on="1"/>
        <pt x="180" y="341" on="0"/>
        <pt x="180" y="204" on="0"/>
        <pt x="180" y="68" on="0"/>
      </contour>
      <contour>
        <pt x="342" y="0" on="1"/>
        <pt x="335" y="-3" on="0"/>
        <pt x="324" y="-3" on="1"/>
        <pt x="284" y="-3" on="0"/>
        <pt x="247" y="45" on="0"/>
        <pt x="247" y="94" on="1"/>
        <pt x="247" y="135" on="0"/>
        <pt x="251" y="222" on="0"/>
        <pt x="260" y="325" on="0"/>
        <pt x="267" y="389" on="1"/>
        <pt x="259" y="397" on="0"/>
        <pt x="248" y="397" on="1"/>
        <pt x="226" y="397" on="0"/>
        <pt x="189" y="347" on="0"/>
        <pt x="172" y="301" on="1"/>
        <pt x="167" y="316" on="0"/>
        <pt x="161" y="348" on="0"/>
        <pt x="163" y="361" on="1"/>
        <pt x="170" y="409" on="0"/>
        <pt x="203" y="495" on="0"/>
        <pt x="250" y="550" on="0"/>
        <pt x="275" y="550" on="1"/>
        <pt x="296" y="550" on="0"/>
        <pt x="326" y="508" on="0"/>
        <pt x="342" y="455" on="0"/>
        <pt x="342" y="438" on="1"/>
        <pt x="343" y="365" on="0"/>
        <pt x="343" y="219" on="0"/>
        <pt x="343" y="73" on="0"/>
      </contour>
      <contour>
        <pt x="581" y="0" on="1"/>
        <pt x="566" y="-3" on="0"/>
        <pt x="539" y="-6" on="0"/>
        <pt x="523" y="-6" on="1"/>
        <pt x="481" y="-6" on="0"/>
        <pt x="431" y="17" on="0"/>
        <pt x="410" y="76" on="0"/>
        <pt x="410" y="129" on="1"/>
        <pt x="410" y="186" on="0"/>
        <pt x="421" y="317" on="0"/>
        <pt x="433" y="394" on="1"/>
        <pt x="426" y="397" on="0"/>
        <pt x="415" y="397" on="1"/>
        <pt x="359" y="397" on="0"/>
        <pt x="334" y="301" on="1"/>
        <pt x="321" y="325" on="0"/>
        <pt x="317" y="359" on="0"/>
        <pt x="322" y="377" on="1"/>
        <pt x="335" y="421" on="0"/>
        <pt x="380" y="501" on="0"/>
        <pt x="436" y="552" on="0"/>
        <pt x="463" y="552" on="1"/>
        <pt x="480" y="552" on="0"/>
        <pt x="514" y="526" on="0"/>
        <pt x="543" y="487" on="0"/>
        <pt x="560" y="445" on="0"/>
        <pt x="560" y="428" on="1"/>
        <pt x="560" y="361" on="0"/>
        <pt x="560" y="227" on="0"/>
        <pt x="560" y="159" on="1"/>
        <pt x="560" y="111" on="0"/>
        <pt x="569" y="44" on="0"/>
      </contour>
      <contour>
        <pt x="168" y="443" on="1"/>
        <pt x="194" y="443" on="1"/>
        <pt x="154" y="314" on="1"/>
        <pt x="132" y="317" on="1"/>
      </contour>
      <contour>
        <pt x="337" y="443" on="1"/>
        <pt x="363" y="443" on="1"/>
        <pt x="320" y="309" on="1"/>
        <pt x="298" y="312" on="1"/>
      </contour>
    </TTGlyph>
    <TTGlyph name="m.italic" xMin="27" yMin="-10" xMax="600" yMax="552">
      <contour>
        <pt x="180" y="0" on="1"/>
        <pt x="158" y="-6" on="0"/>
        <pt x="122" y="-6" on="1"/>
        <pt x="101" y="-6" on="0"/>
        <pt x="70" y="-2" on="0"/>
        <pt x="50" y="11" on="0"/>
        <pt x="40" y="36" on="0"/>
        <pt x="40" y="56" on="1"/>
        <pt x="40" y="120" on="0"/>
        <pt x="40" y="246" on="0"/>
        <pt x="40" y="373" on="0"/>
        <pt x="40" y="436" on="1"/>
        <pt x="40" y="465" on="0"/>
        <pt x="34" y="515" on="0"/>
        <pt x="27" y="542" on="1"/>
        <pt x="38" y="544" on="0"/>
        <pt x="59" y="546" on="0"/>
        <pt x="69" y="546" on="1"/>
        <pt x="112" y="546" on="0"/>
        <pt x="180" y="479" on="0"/>
        <pt x="180" y="409" on="1"/>
        <pt x="180" y="341" on="0"/>
        <pt x="180" y="204" on="0"/>
        <pt x="180" y="68" on="0"/>
      </contour>
      <contour>
        <pt x="340" y="0" on="1"/>
        <pt x="333" y="-3" on="0"/>
        <pt x="322" y="-3" on="1"/>
        <pt x="282" y="-3" on="0"/>
        <pt x="245" y="45" on="0"/>
        <pt x="245" y="94" on="1"/>
        <pt x="245" y="135" on="0"/>
        <pt x="249" y="222" on="0"/>
        <pt x="258" y="325" on="0"/>
        <pt x="265" y="389" on="1"/>
        <pt x="257" y="397" on="0"/>
        <pt x="246" y="397" on="1"/>
        <pt x="225" y="397" on="0"/>
        <pt x="189" y="347" on="0"/>
        <pt x="172" y="301" on="1"/>
        <pt x="167" y="316" on="0"/>
        <pt x="161" y="348" on="0"/>
        <pt x="163" y="361" on="1"/>
        <pt x="170" y="409" on="0"/>
        <pt x="203" y="495" on="0"/>
        <pt x="248" y="550" on="0"/>
        <pt x="273" y="550" on="1"/>
        <pt x="294" y="550" on="0"/>
        <pt x="324" y="508" on="0"/>
        <pt x="340" y="455" on="0"/>
        <pt x="340" y="438" on="1"/>
        <pt x="340" y="365" on="0"/>
        <pt x="340" y="219" on="0"/>
        <pt x="340" y="73" on="0"/>
      </contour>
      <contour>
        <pt x="406" y="129" on="1"/>
        <pt x="406" y="186" on="0"/>
        <pt x="417" y="317" on="0"/>
        <pt x="429" y="394" on="1"/>
        <pt x="422" y="397" on="0"/>
        <pt x="411" y="397" on="1"/>
        <pt x="357" y="397" on="0"/>
        <pt x="332" y="301" on="1"/>
        <pt x="319" y="325" on="0"/>
        <pt x="315" y="359" on="0"/>
        <pt x="320" y="377" on="1"/>
        <pt x="333" y="421" on="0"/>
        <pt x="378" y="501" on="0"/>
        <pt x="433" y="552" on="0"/>
        <pt x="459" y="552" on="1"/>
        <pt x="476" y="552" on="0"/>
        <pt x="509" y="526" on="0"/>
        <pt x="536" y="487" on="0"/>
        <pt x="553" y="445" on="0"/>
        <pt x="553" y="428" on="1"/>
        <pt x="553" y="361" on="0"/>
        <pt x="553" y="227" on="0"/>
        <pt x="553" y="159" on="1"/>
        <pt x="553" y="155" on="0"/>
        <pt x="553" y="147" on="0"/>
        <pt x="553" y="143" on="1"/>
        <pt x="554" y="143" on="0"/>
        <pt x="556" y="143" on="0"/>
        <pt x="557" y="143" on="1"/>
        <pt x="567" y="143" on="0"/>
        <pt x="584" y="154" on="0"/>
        <pt x="590" y="162" on="1"/>
        <pt x="596" y="162" on="1"/>
        <pt x="598" y="152" on="0"/>
        <pt x="600" y="128" on="0"/>
        <pt x="600" y="117" on="1"/>
        <pt x="600" y="86" on="0"/>
        <pt x="581" y="31" on="0"/>
        <pt x="567" y="17" on="1"/>
        <pt x="540" y="-10" on="0"/>
        <pt x="508" y="-10" on="1"/>
        <pt x="469" y="-10" on="0"/>
        <pt x="425" y="26" on="0"/>
        <pt x="406" y="89" on="0"/>
      </contour>
      <contour>
        <pt x="168" y="443" on="1"/>
        <pt x="194" y="443" on="1"/>
        <pt x="154" y="314" on="1"/>
        <pt x="132" y="317" on="1"/>
      </contour>
      <contour>
        <pt x="335" y="443" on="1"/>
        <pt x="361" y="443" on="1"/>
        <pt x="318" y="309" on="1"/>
        <pt x="296" y="312" on="1"/>
      </contour>
    </TTGlyph>
    <TTGlyph name="n" xMin="46" yMin="-6" xMax="550" yMax="552">
      <contour>
        <pt x="550" y="0" on="1"/>
        <pt x="535" y="-3" on="0"/>
        <pt x="508" y="-6" on="0"/>
        <pt x="492" y="-6" on="1"/>
        <pt x="428" y="-6" on="0"/>
        <pt x="363" y="49" on="0"/>
        <pt x="363" y="129" on="1"/>
        <pt x="363" y="185" on="0"/>
        <pt x="381" y="308" on="0"/>
        <pt x="394" y="373" on="1"/>
        <pt x="379" y="385" on="0"/>
        <pt x="363" y="385" on="1"/>
        <pt x="334" y="385" on="0"/>
        <pt x="276" y="343" on="0"/>
        <pt x="221" y="235" on="0"/>
        <pt x="194" y="136" on="1"/>
        <pt x="191" y="160" on="0"/>
        <pt x="190" y="203" on="0"/>
        <pt x="193" y="249" on="0"/>
        <pt x="201" y="302" on="0"/>
        <pt x="208" y="334" on="1"/>
        <pt x="221" y="394" on="0"/>
        <pt x="285" y="493" on="0"/>
        <pt x="372" y="552" on="0"/>
        <pt x="420" y="552" on="1"/>
        <pt x="442" y="552" on="0"/>
        <pt x="481" y="522" on="0"/>
        <pt x="511" y="472" on="0"/>
        <pt x="529" y="413" on="0"/>
        <pt x="529" y="384" on="1"/>
        <pt x="529" y="328" on="0"/>
        <pt x="529" y="215" on="0"/>
        <pt x="529" y="159" on="1"/>
        <pt x="529" y="111" on="0"/>
        <pt x="538" y="44" on="0"/>
      </contour>
      <contour>
        <pt x="216" y="0" on="1"/>
        <pt x="203" y="-2" on="0"/>
        <pt x="183" y="-3" on="0"/>
        <pt x="172" y="-3" on="1"/>
        <pt x="141" y="-3" on="0"/>
        <pt x="100" y="10" on="0"/>
        <pt x="76" y="35" on="0"/>
        <pt x="66" y="68" on="0"/>
        <pt x="66" y="89" on="1"/>
        <pt x="66" y="156" on="0"/>
        <pt x="66" y="274" on="0"/>
        <pt x="66" y="386" on="0"/>
        <pt x="66" y="441" on="1"/>
        <pt x="66" y="466" on="0"/>
        <pt x="57" y="522" on="0"/>
        <pt x="46" y="540" on="1"/>
        <pt x="57" y="542" on="0"/>
        <pt x="80" y="546" on="0"/>
        <pt x="91" y="546" on="1"/>
        <pt x="127" y="546" on="0"/>
        <pt x="184" y="515" on="0"/>
        <pt x="216" y="438" on="0"/>
        <pt x="216" y="369" on="1"/>
        <pt x="216" y="305" on="0"/>
        <pt x="216" y="175" on="0"/>
        <pt x="216" y="52" on="0"/>
      </contour>
      <contour>
        <pt x="207" y="381" on="1"/>
        <pt x="233" y="381" on="1"/>
        <pt x="190" y="247" on="1"/>
        <pt x="166" y="250" on="1"/>
      </contour>
    </TTGlyph>
    <TTGlyph name="n.italic" xMin="46" yMin="-10" xMax="579" yMax="552">
      <contour>
        <pt x="214" y="0" on="1"/>
        <pt x="204" y="-2" on="0"/>
        <pt x="183" y="-4" on="0"/>
        <pt x="172" y="-4" on="1"/>
        <pt x="141" y="-4" on="0"/>
        <pt x="100" y="9" on="0"/>
        <pt x="76" y="34" on="0"/>
        <pt x="66" y="68" on="0"/>
        <pt x="66" y="89" on="1"/>
        <pt x="66" y="156" on="0"/>
        <pt x="66" y="274" on="0"/>
        <pt x="66" y="386" on="0"/>
        <pt x="66" y="441" on="1"/>
        <pt x="66" y="466" on="0"/>
        <pt x="57" y="522" on="0"/>
        <pt x="46" y="540" on="1"/>
        <pt x="57" y="542" on="0"/>
        <pt x="80" y="546" on="0"/>
        <pt x="91" y="546" on="1"/>
        <pt x="127" y="546" on="0"/>
        <pt x="183" y="515" on="0"/>
        <pt x="214" y="438" on="0"/>
        <pt x="214" y="369" on="1"/>
        <pt x="214" y="305" on="0"/>
        <pt x="214" y="175" on="0"/>
        <pt x="214" y="52" on="0"/>
      </contour>
      <contour>
        <pt x="410" y="552" on="1"/>
        <pt x="432" y="552" on="0"/>
        <pt x="471" y="524" on="0"/>
        <pt x="501" y="477" on="0"/>
        <pt x="519" y="421" on="0"/>
        <pt x="519" y="394" on="1"/>
        <pt x="519" y="335" on="0"/>
        <pt x="519" y="218" on="0"/>
        <pt x="519" y="159" on="1"/>
        <pt x="519" y="155" on="0"/>
        <pt x="519" y="146" on="0"/>
        <pt x="519" y="142" on="1"/>
        <pt x="520" y="142" on="0"/>
        <pt x="522" y="142" on="0"/>
        <pt x="523" y="142" on="1"/>
        <pt x="537" y="143" on="0"/>
        <pt x="559" y="152" on="0"/>
        <pt x="569" y="162" on="1"/>
        <pt x="575" y="162" on="1"/>
        <pt x="577" y="152" on="0"/>
        <pt x="579" y="128" on="0"/>
        <pt x="579" y="117" on="1"/>
        <pt x="579" y="72" on="0"/>
        <pt x="559" y="36" on="1"/>
        <pt x="548" y="17" on="0"/>
        <pt x="510" y="-10" on="0"/>
        <pt x="484" y="-10" on="1"/>
        <pt x="445" y="-10" on="0"/>
        <pt x="386" y="26" on="0"/>
        <pt x="353" y="89" on="0"/>
        <pt x="353" y="129" on="1"/>
        <pt x="353" y="195" on="0"/>
        <pt x="371" y="309" on="0"/>
        <pt x="384" y="373" on="1"/>
        <pt x="369" y="385" on="0"/>
        <pt x="353" y="385" on="1"/>
        <pt x="326" y="385" on="0"/>
        <pt x="272" y="342" on="0"/>
        <pt x="219" y="234" on="0"/>
        <pt x="192" y="136" on="1"/>
        <pt x="189" y="160" on="0"/>
        <pt x="188" y="203" on="0"/>
        <pt x="191" y="249" on="0"/>
        <pt x="199" y="302" on="0"/>
        <pt x="206" y="334" on="1"/>
        <pt x="219" y="394" on="0"/>
        <pt x="281" y="493" on="0"/>
        <pt x="364" y="552" on="0"/>
      </contour>
      <contour>
        <pt x="205" y="379" on="1"/>
        <pt x="231" y="379" on="1"/>
        <pt x="188" y="247" on="1"/>
        <pt x="166" y="250" on="1"/>
      </contour>
    </TTGlyph>
    <TTGlyph name="o" xMin="50" yMin="-12" xMax="550" yMax="552">
      <contour>
        <pt x="304" y="552" on="1"/>
        <pt x="369" y="552" on="0"/>
        <pt x="481" y="489" on="0"/>
        <pt x="550" y="358" on="0"/>
        <pt x="550" y="256" on="1"/>
        <pt x="550" y="242" on="1"/>
        <pt x="550" y="167" on="0"/>
        <pt x="485" y="52" on="0"/>
        <pt x="371" y="-12" on="0"/>
        <pt x="295" y="-12" on="1"/>
        <pt x="229" y="-12" on="0"/>
        <pt x="117" y="43" on="0"/>
        <pt x="50" y="156" on="0"/>
        <pt x="50" y="244" on="1"/>
        <pt x="50" y="258" on="1"/>
        <pt x="50" y="346" on="0"/>
        <pt x="114" y="478" on="0"/>
        <pt x="229" y="552" on="0"/>
      </contour>
      <contour>
        <pt x="323" y="412" on="1"/>
        <pt x="259" y="412" on="0"/>
        <pt x="195" y="335" on="0"/>
        <pt x="195" y="246" on="1"/>
        <pt x="195" y="239" on="1"/>
        <pt x="195" y="208" on="0"/>
        <pt x="201" y="156" on="0"/>
        <pt x="206" y="134" on="1"/>
        <pt x="220" y="131" on="0"/>
        <pt x="250" y="128" on="0"/>
        <pt x="272" y="128" on="1"/>
        <pt x="340" y="128" on="0"/>
        <pt x="405" y="186" on="0"/>
        <pt x="405" y="254" on="1"/>
        <pt x="405" y="261" on="1"/>
        <pt x="405" y="344" on="0"/>
        <pt x="389" y="404" on="1"/>
        <pt x="368" y="412" on="0"/>
      </contour>
    </TTGlyph>
    <TTGlyph name="p" xMin="45" yMin="-193" xMax="560" yMax="552">
      <contour>
        <pt x="215" y="-190" on="1"/>
        <pt x="202" y="-192" on="0"/>
        <pt x="184" y="-193" on="0"/>
        <pt x="173" y="-193" on="1"/>
        <pt x="132" y="-193" on="0"/>
        <pt x="84" y="-148" on="0"/>
        <pt x="65" y="-75" on="0"/>
        <pt x="65" y="-35" on="1"/>
        <pt x="65" y="36" on="0"/>
        <pt x="65" y="153" on="0"/>
        <pt x="65" y="261" on="0"/>
        <pt x="65" y="374" on="0"/>
        <pt x="65" y="441" on="1"/>
        <pt x="65" y="466" on="0"/>
        <pt x="56" y="522" on="0"/>
        <pt x="45" y="540" on="1"/>
        <pt x="56" y="542" on="0"/>
        <pt x="79" y="546" on="0"/>
        <pt x="90" y="546" on="1"/>
        <pt x="123" y="546" on="0"/>
        <pt x="180" y="515" on="0"/>
        <pt x="215" y="438" on="0"/>
        <pt x="215" y="369" on="1"/>
        <pt x="215" y="296" on="0"/>
        <pt x="215" y="157" on="0"/>
        <pt x="215" y="19" on="0"/>
        <pt x="215" y="-119" on="0"/>
      </contour>
      <contour>
        <pt x="405" y="552" on="1"/>
        <pt x="444" y="552" on="0"/>
        <pt x="515" y="495" on="0"/>
        <pt x="560" y="400" on="0"/>
        <pt x="560" y="344" on="1"/>
        <pt x="560" y="322" on="1"/>
        <pt x="560" y="233" on="0"/>
        <pt x="523" y="106" on="0"/>
        <pt x="461" y="26" on="0"/>
        <pt x="387" y="-12" on="0"/>
        <pt x="350" y="-12" on="1"/>
        <pt x="316" y="-12" on="0"/>
        <pt x="260" y="16" on="0"/>
        <pt x="223" y="59" on="0"/>
        <pt x="215" y="81" on="1"/>
        <pt x="205" y="111" on="0"/>
        <pt x="188" y="150" on="0"/>
        <pt x="198" y="172" on="1"/>
        <pt x="216" y="153" on="0"/>
        <pt x="263" y="132" on="0"/>
        <pt x="295" y="132" on="1"/>
        <pt x="351" y="132" on="0"/>
        <pt x="405" y="218" on="0"/>
        <pt x="405" y="299" on="1"/>
        <pt x="405" y="310" on="1"/>
        <pt x="405" y="370" on="0"/>
        <pt x="397" y="390" on="1"/>
        <pt x="394" y="391" on="0"/>
        <pt x="388" y="391" on="0"/>
        <pt x="386" y="391" on="1"/>
        <pt x="325" y="391" on="0"/>
        <pt x="235" y="309" on="0"/>
        <pt x="204" y="206" on="1"/>
        <pt x="196" y="224" on="0"/>
        <pt x="196" y="280" on="0"/>
        <pt x="206" y="339" on="0"/>
        <pt x="212" y="363" on="1"/>
        <pt x="221" y="400" on="0"/>
        <pt x="260" y="468" on="0"/>
        <pt x="312" y="521" on="0"/>
        <pt x="374" y="552" on="0"/>
      </contour>
      <contour>
        <pt x="202" y="392" on="1"/>
        <pt x="228" y="392" on="1"/>
        <pt x="185" y="258" on="1"/>
        <pt x="163" y="261" on="1"/>
      </contour>
      <contour>
        <pt x="203" y="68" on="1"/>
        <pt x="164" y="195" on="1"/>
        <pt x="186" y="198" on="1"/>
        <pt x="226" y="68" on="1"/>
      </contour>
    </TTGlyph>
    <TTGlyph name="q" xMin="40" yMin="-191" xMax="535" yMax="552">
      <contour>
        <pt x="250" y="552" on="1"/>
        <pt x="284" y="552" on="0"/>
        <pt x="340" y="524" on="0"/>
        <pt x="378" y="482" on="0"/>
        <pt x="385" y="459" on="1"/>
        <pt x="395" y="429" on="0"/>
        <pt x="412" y="391" on="0"/>
        <pt x="402" y="368" on="1"/>
        <pt x="384" y="388" on="0"/>
        <pt x="337" y="408" on="0"/>
        <pt x="305" y="408" on="1"/>
        <pt x="250" y="408" on="0"/>
        <pt x="195" y="322" on="0"/>
        <pt x="195" y="241" on="1"/>
        <pt x="195" y="230" on="1"/>
        <pt x="195" y="202" on="0"/>
        <pt x="198" y="165" on="0"/>
        <pt x="201" y="150" on="1"/>
        <pt x="205" y="149" on="0"/>
        <pt x="211" y="149" on="0"/>
        <pt x="214" y="149" on="1"/>
        <pt x="275" y="149" on="0"/>
        <pt x="365" y="231" on="0"/>
        <pt x="396" y="334" on="1"/>
        <pt x="405" y="316" on="0"/>
        <pt x="404" y="261" on="0"/>
        <pt x="394" y="201" on="0"/>
        <pt x="388" y="177" on="1"/>
        <pt x="376" y="128" on="0"/>
        <pt x="317" y="42" on="0"/>
        <pt x="237" y="-12" on="0"/>
        <pt x="195" y="-12" on="1"/>
        <pt x="156" y="-12" on="0"/>
        <pt x="85" y="45" on="0"/>
        <pt x="40" y="140" on="0"/>
        <pt x="40" y="196" on="1"/>
        <pt x="40" y="218" on="1"/>
        <pt x="40" y="307" on="0"/>
        <pt x="77" y="434" on="0"/>
        <pt x="139" y="514" on="0"/>
        <pt x="213" y="552" on="0"/>
      </contour>
      <contour>
        <pt x="398" y="543" on="1"/>
        <pt x="410" y="545" on="0"/>
        <pt x="431" y="546" on="0"/>
        <pt x="444" y="546" on="1"/>
        <pt x="470" y="546" on="0"/>
        <pt x="511" y="518" on="0"/>
        <pt x="535" y="451" on="0"/>
        <pt x="535" y="391" on="1"/>
        <pt x="535" y="309" on="0"/>
        <pt x="535" y="153" on="0"/>
        <pt x="535" y="-1" on="0"/>
        <pt x="535" y="-80" on="1"/>
        <pt x="535" y="-106" on="0"/>
        <pt x="535" y="-160" on="0"/>
        <pt x="535" y="-188" on="1"/>
        <pt x="522" y="-190" on="0"/>
        <pt x="504" y="-191" on="0"/>
        <pt x="493" y="-191" on="1"/>
        <pt x="452" y="-191" on="0"/>
        <pt x="404" y="-146" on="0"/>
        <pt x="385" y="-73" on="0"/>
        <pt x="385" y="-33" on="1"/>
        <pt x="385" y="25" on="0"/>
        <pt x="385" y="142" on="0"/>
        <pt x="385" y="258" on="0"/>
        <pt x="385" y="375" on="0"/>
        <pt x="385" y="433" on="1"/>
        <pt x="385" y="465" on="0"/>
        <pt x="391" y="515" on="0"/>
      </contour>
      <contour>
        <pt x="397" y="472" on="1"/>
        <pt x="436" y="345" on="1"/>
        <pt x="414" y="342" on="1"/>
        <pt x="374" y="472" on="1"/>
      </contour>
      <contour>
        <pt x="398" y="148" on="1"/>
        <pt x="372" y="148" on="1"/>
        <pt x="415" y="282" on="1"/>
        <pt x="437" y="279" on="1"/>
      </contour>
    </TTGlyph>
    <TTGlyph name="r" xMin="44" yMin="0" xMax="572" yMax="560">
      <contour>
        <pt x="320" y="117" on="1"/>
        <pt x="267" y="117" on="0"/>
        <pt x="200" y="149" on="0"/>
        <pt x="170" y="219" on="0"/>
        <pt x="170" y="275" on="1"/>
        <pt x="170" y="312" on="0"/>
        <pt x="170" y="387" on="0"/>
        <pt x="170" y="424" on="1"/>
        <pt x="148" y="386" on="0"/>
        <pt x="112" y="365" on="0"/>
        <pt x="98" y="365" on="1"/>
        <pt x="78" y="365" on="0"/>
        <pt x="44" y="412" on="0"/>
        <pt x="44" y="462" on="1"/>
        <pt x="44" y="483" on="0"/>
        <pt x="48" y="525" on="0"/>
        <pt x="53" y="540" on="1"/>
        <pt x="67" y="542" on="0"/>
        <pt x="111" y="546" on="0"/>
        <pt x="155" y="550" on="0"/>
        <pt x="170" y="550" on="1"/>
        <pt x="256" y="550" on="0"/>
        <pt x="320" y="452" on="0"/>
        <pt x="320" y="360" on="1"/>
        <pt x="320" y="337" on="0"/>
        <pt x="320" y="281" on="0"/>
        <pt x="320" y="218" on="0"/>
        <pt x="320" y="151" on="0"/>
      </contour>
      <contour>
        <pt x="53" y="150" on="1"/>
        <pt x="320" y="150" on="1"/>
        <pt x="386" y="150" on="0"/>
        <pt x="465" y="123" on="0"/>
        <pt x="500" y="75" on="0"/>
        <pt x="500" y="43" on="1"/>
        <pt x="500" y="20" on="0"/>
        <pt x="493" y="0" on="1"/>
        <pt x="157" y="0" on="1"/>
        <pt x="91" y="0" on="0"/>
        <pt x="50" y="60" on="0"/>
        <pt x="50" y="116" on="1"/>
        <pt x="50" y="124" on="0"/>
        <pt x="52" y="142" on="0"/>
      </contour>
      <contour>
        <pt x="474" y="370" on="1"/>
        <pt x="436" y="370" on="0"/>
        <pt x="377" y="334" on="0"/>
        <pt x="332" y="257" on="0"/>
        <pt x="313" y="193" on="1"/>
        <pt x="297" y="237" on="0"/>
        <pt x="305" y="286" on="0"/>
        <pt x="309" y="305" on="1"/>
        <pt x="326" y="390" on="0"/>
        <pt x="390" y="503" on="0"/>
        <pt x="468" y="560" on="0"/>
        <pt x="506" y="560" on="1"/>
        <pt x="531" y="560" on="0"/>
        <pt x="545" y="546" on="1"/>
        <pt x="559" y="533" on="0"/>
        <pt x="572" y="477" on="0"/>
        <pt x="572" y="430" on="1"/>
        <pt x="572" y="405" on="0"/>
        <pt x="566" y="361" on="0"/>
        <pt x="561" y="341" on="1"/>
        <pt x="555" y="341" on="1"/>
        <pt x="537" y="355" on="0"/>
        <pt x="502" y="370" on="0"/>
      </contour>
      <contour>
        <pt x="182" y="411" on="1"/>
        <pt x="156" y="418" on="1"/>
        <pt x="185" y="458" on="1"/>
        <pt x="200" y="455" on="1"/>
      </contour>
      <contour>
        <pt x="312" y="369" on="1"/>
        <pt x="338" y="369" on="1"/>
        <pt x="295" y="235" on="1"/>
        <pt x="273" y="238" on="1"/>
      </contour>
      <contour>
        <pt x="196" y="139" on="1"/>
        <pt x="210" y="166" on="1"/>
        <pt x="248" y="135" on="1"/>
        <pt x="245" y="120" on="1"/>
      </contour>
    </TTGlyph>
    <TTGlyph name="r.italic" xMin="27" yMin="-6" xMax="559" yMax="560">
      <contour>
        <pt x="308" y="0" on="1"/>
        <pt x="278" y="-6" on="0"/>
        <pt x="248" y="-6" on="1"/>
        <pt x="199" y="-6" on="0"/>
        <pt x="143" y="40" on="0"/>
        <pt x="143" y="86" on="1"/>
        <pt x="143" y="141" on="0"/>
        <pt x="143" y="250" on="0"/>
        <pt x="143" y="359" on="0"/>
        <pt x="143" y="413" on="1"/>
        <pt x="124" y="395" on="0"/>
        <pt x="86" y="370" on="0"/>
        <pt x="69" y="370" on="1"/>
        <pt x="49" y="370" on="0"/>
        <pt x="27" y="410" on="0"/>
        <pt x="27" y="447" on="1"/>
        <pt x="27" y="466" on="0"/>
        <pt x="30" y="498" on="0"/>
        <pt x="34" y="520" on="1"/>
        <pt x="63" y="535" on="0"/>
        <pt x="133" y="550" on="0"/>
        <pt x="166" y="550" on="1"/>
        <pt x="203" y="550" on="0"/>
        <pt x="260" y="523" on="0"/>
        <pt x="293" y="452" on="0"/>
        <pt x="293" y="386" on="1"/>
        <pt x="293" y="362" on="0"/>
        <pt x="293" y="302" on="0"/>
        <pt x="293" y="233" on="0"/>
        <pt x="293" y="159" on="0"/>
        <pt x="293" y="121" on="1"/>
        <pt x="293" y="87" on="0"/>
        <pt x="299" y="31" on="0"/>
      </contour>
      <contour>
        <pt x="437" y="391" on="1"/>
        <pt x="407" y="391" on="0"/>
        <pt x="348" y="360" on="0"/>
        <pt x="292" y="289" on="0"/>
        <pt x="266" y="228" on="1"/>
        <pt x="266" y="246" on="0"/>
        <pt x="269" y="273" on="0"/>
        <pt x="272" y="292" on="1"/>
        <pt x="286" y="377" on="0"/>
        <pt x="349" y="497" on="0"/>
        <pt x="423" y="560" on="0"/>
        <pt x="452" y="560" on="1"/>
        <pt x="474" y="560" on="0"/>
        <pt x="510" y="544" on="0"/>
        <pt x="523" y="530" on="1"/>
        <pt x="535" y="519" on="0"/>
        <pt x="551" y="491" on="0"/>
        <pt x="559" y="463" on="0"/>
        <pt x="559" y="450" on="1"/>
        <pt x="559" y="437" on="1"/>
        <pt x="559" y="409" on="0"/>
        <pt x="536" y="355" on="0"/>
        <pt x="490" y="321" on="0"/>
        <pt x="454" y="321" on="1"/>
        <pt x="449" y="321" on="0"/>
        <pt x="440" y="323" on="0"/>
        <pt x="436" y="324" on="1"/>
        <pt x="436" y="330" on="1"/>
        <pt x="439" y="348" on="0"/>
        <pt x="442" y="378" on="0"/>
        <pt x="442" y="391" on="1"/>
        <pt x="441" y="391" on="0"/>
        <pt x="439" y="391" on="0"/>
      </contour>
      <contour>
        <pt x="150" y="405" on="1"/>
        <pt x="125" y="417" on="1"/>
        <pt x="189" y="470" on="1"/>
        <pt x="199" y="463" on="1"/>
      </contour>
      <contour>
        <pt x="280" y="390" on="1"/>
        <pt x="306" y="390" on="1"/>
        <pt x="281" y="287" on="1"/>
        <pt x="259" y="290" on="1"/>
      </contour>
    </TTGlyph>
    <TTGlyph name="s" xMin="50" yMin="-12" xMax="550" yMax="552">
      <contour>
        <pt x="300" y="138" on="1"/>
        <pt x="332" y="138" on="0"/>
        <pt x="386" y="144" on="0"/>
        <pt x="407" y="149" on="1"/>
        <pt x="411" y="164" on="0"/>
        <pt x="389" y="201" on="0"/>
        <pt x="350" y="210" on="1"/>
        <pt x="234" y="237" on="1"/>
        <pt x="148" y="257" on="0"/>
        <pt x="75" y="314" on="0"/>
        <pt x="75" y="370" on="1"/>
        <pt x="75" y="415" on="0"/>
        <pt x="123" y="483" on="0"/>
        <pt x="206" y="529" on="0"/>
        <pt x="309" y="552" on="0"/>
        <pt x="363" y="552" on="1"/>
        <pt x="420" y="552" on="0"/>
        <pt x="478" y="540" on="0"/>
        <pt x="492" y="526" on="1"/>
        <pt x="508" y="510" on="0"/>
        <pt x="525" y="455" on="0"/>
        <pt x="525" y="411" on="1"/>
        <pt x="525" y="401" on="0"/>
        <pt x="522" y="382" on="0"/>
        <pt x="520" y="372" on="1"/>
        <pt x="514" y="372" on="1"/>
        <pt x="484" y="386" on="0"/>
        <pt x="418" y="402" on="0"/>
        <pt x="366" y="402" on="1"/>
        <pt x="290" y="402" on="0"/>
        <pt x="225" y="382" on="0"/>
        <pt x="225" y="364" on="1"/>
        <pt x="225" y="349" on="0"/>
        <pt x="257" y="334" on="0"/>
        <pt x="306" y="323" on="1"/>
        <pt x="400" y="303" on="1"/>
        <pt x="480" y="286" on="0"/>
        <pt x="550" y="215" on="0"/>
        <pt x="550" y="164" on="1"/>
        <pt x="550" y="73" on="0"/>
        <pt x="425" y="-12" on="0"/>
        <pt x="288" y="-12" on="1"/>
        <pt x="200" y="-12" on="0"/>
        <pt x="98" y="15" on="0"/>
        <pt x="84" y="29" on="1"/>
        <pt x="68" y="46" on="0"/>
        <pt x="50" y="93" on="0"/>
        <pt x="50" y="139" on="1"/>
        <pt x="50" y="156" on="0"/>
        <pt x="53" y="182" on="0"/>
        <pt x="55" y="193" on="1"/>
        <pt x="61" y="193" on="1"/>
        <pt x="97" y="173" on="0"/>
        <pt x="156" y="148" on="0"/>
        <pt x="236" y="138" on="0"/>
      </contour>
    </TTGlyph>
    <TTGlyph name="s.italic" xMin="53" yMin="-12" xMax="553" yMax="552">
      <contour>
        <pt x="300" y="138" on="1"/>
        <pt x="327" y="138" on="0"/>
        <pt x="370" y="144" on="0"/>
        <pt x="386" y="149" on="1"/>
        <pt x="390" y="164" on="0"/>
        <pt x="377" y="187" on="0"/>
        <pt x="347" y="194" on="1"/>
        <pt x="231" y="221" on="1"/>
        <pt x="166" y="236" on="0"/>
        <pt x="87" y="270" on="0"/>
        <pt x="53" y="320" on="0"/>
        <pt x="53" y="359" on="1"/>
        <pt x="53" y="408" on="0"/>
        <pt x="105" y="480" on="0"/>
        <pt x="191" y="528" on="0"/>
        <pt x="298" y="552" on="0"/>
        <pt x="353" y="552" on="1"/>
        <pt x="414" y="552" on="0"/>
        <pt x="496" y="529" on="0"/>
        <pt x="523" y="503" on="1"/>
        <pt x="539" y="488" on="0"/>
        <pt x="553" y="454" on="0"/>
        <pt x="553" y="437" on="1"/>
        <pt x="553" y="427" on="1"/>
        <pt x="553" y="387" on="0"/>
        <pt x="493" y="337" on="0"/>
        <pt x="429" y="337" on="1"/>
        <pt x="420" y="337" on="0"/>
        <pt x="411" y="340" on="1"/>
        <pt x="411" y="346" on="1"/>
        <pt x="416" y="360" on="0"/>
        <pt x="419" y="383" on="0"/>
        <pt x="420" y="393" on="1"/>
        <pt x="407" y="398" on="0"/>
        <pt x="371" y="402" on="0"/>
        <pt x="347" y="402" on="1"/>
        <pt x="299" y="402" on="0"/>
        <pt x="236" y="388" on="0"/>
        <pt x="205" y="364" on="0"/>
        <pt x="205" y="348" on="1"/>
        <pt x="205" y="333" on="0"/>
        <pt x="243" y="313" on="0"/>
        <pt x="303" y="300" on="1"/>
        <pt x="397" y="280" on="1"/>
        <pt x="468" y="265" on="0"/>
        <pt x="529" y="201" on="0"/>
        <pt x="529" y="151" on="1"/>
        <pt x="529" y="66" on="0"/>
        <pt x="416" y="-12" on="0"/>
        <pt x="288" y="-12" on="1"/>
        <pt x="215" y="-12" on="0"/>
        <pt x="131" y="12" on="0"/>
        <pt x="118" y="25" on="1"/>
        <pt x="102" y="42" on="0"/>
        <pt x="84" y="89" on="0"/>
        <pt x="84" y="135" on="1"/>
        <pt x="84" y="152" on="0"/>
        <pt x="87" y="178" on="0"/>
        <pt x="89" y="189" on="1"/>
        <pt x="95" y="189" on="1"/>
        <pt x="142" y="162" on="0"/>
        <pt x="233" y="138" on="0"/>
      </contour>
    </TTGlyph>
    <TTGlyph name="t" xMin="41" yMin="-12" xMax="552" yMax="710">
      <contour>
        <pt x="44" y="540" on="1"/>
        <pt x="479" y="540" on="1"/>
        <pt x="521" y="540" on="0"/>
        <pt x="552" y="503" on="0"/>
        <pt x="552" y="453" on="1"/>
        <pt x="552" y="436" on="0"/>
        <pt x="548" y="403" on="0"/>
        <pt x="545" y="390" on="1"/>
        <pt x="217" y="390" on="1"/>
        <pt x="148" y="390" on="0"/>
        <pt x="71" y="415" on="0"/>
        <pt x="41" y="470" on="0"/>
        <pt x="41" y="513" on="1"/>
        <pt x="41" y="530" on="0"/>
      </contour>
      <contour>
        <pt x="546" y="167" on="1"/>
        <pt x="548" y="157" on="0"/>
        <pt x="550" y="138" on="0"/>
        <pt x="550" y="129" on="1"/>
        <pt x="550" y="92" on="0"/>
        <pt x="530" y="40" on="0"/>
        <pt x="512" y="22" on="1"/>
        <pt x="496" y="6" on="0"/>
        <pt x="438" y="-12" on="0"/>
        <pt x="390" y="-12" on="1"/>
        <pt x="328" y="-12" on="0"/>
        <pt x="231" y="32" on="0"/>
        <pt x="175" y="111" on="0"/>
        <pt x="175" y="163" on="1"/>
        <pt x="175" y="219" on="0"/>
        <pt x="175" y="330" on="0"/>
        <pt x="175" y="441" on="0"/>
        <pt x="175" y="553" on="0"/>
        <pt x="175" y="608" on="1"/>
        <pt x="175" y="631" on="0"/>
        <pt x="170" y="677" on="0"/>
        <pt x="162" y="700" on="1"/>
        <pt x="180" y="705" on="0"/>
        <pt x="215" y="710" on="0"/>
        <pt x="232" y="710" on="1"/>
        <pt x="270" y="710" on="0"/>
        <pt x="325" y="661" on="0"/>
        <pt x="325" y="608" on="1"/>
        <pt x="325" y="536" on="0"/>
        <pt x="325" y="392" on="0"/>
        <pt x="325" y="248" on="0"/>
        <pt x="325" y="176" on="1"/>
        <pt x="325" y="168" on="0"/>
        <pt x="327" y="152" on="0"/>
        <pt x="329" y="144" on="1"/>
        <pt x="342" y="141" on="0"/>
        <pt x="369" y="138" on="0"/>
        <pt x="385" y="138" on="1"/>
        <pt x="435" y="138" on="0"/>
        <pt x="503" y="151" on="0"/>
        <pt x="540" y="167" on="1"/>
      </contour>
    </TTGlyph>
    <TTGlyph name="three" xMin="52" yMin="-20" xMax="550" yMax="720">
      <contour>
        <pt x="300" y="720" on="1"/>
        <pt x="375" y="720" on="0"/>
        <pt x="484" y="672" on="0"/>
        <pt x="542" y="591" on="0"/>
        <pt x="540" y="541" on="1"/>
        <pt x="539" y="516" on="1"/>
        <pt x="538" y="488" on="0"/>
        <pt x="493" y="417" on="0"/>
        <pt x="398" y="357" on="0"/>
        <pt x="321" y="342" on="1"/>
        <pt x="353" y="375" on="1"/>
        <pt x="353" y="313" on="1"/>
        <pt x="320" y="350" on="1"/>
        <pt x="436" y="329" on="0"/>
        <pt x="550" y="242" on="0"/>
        <pt x="550" y="174" on="1"/>
        <pt x="550" y="159" on="1"/>
        <pt x="550" y="110" on="0"/>
        <pt x="490" y="28" on="0"/>
        <pt x="378" y="-20" on="0"/>
        <pt x="300" y="-20" on="1"/>
        <pt x="229" y="-20" on="0"/>
        <pt x="111" y="12" on="0"/>
        <pt x="87" y="36" on="1"/>
        <pt x="68" y="56" on="0"/>
        <pt x="52" y="103" on="0"/>
        <pt x="52" y="146" on="1"/>
        <pt x="52" y="184" on="0"/>
        <pt x="60" y="212" on="1"/>
        <pt x="66" y="212" on="1"/>
        <pt x="113" y="166" on="0"/>
        <pt x="212" y="130" on="0"/>
        <pt x="279" y="130" on="1"/>
        <pt x="327" y="130" on="0"/>
        <pt x="396" y="148" on="0"/>
        <pt x="417" y="164" on="1"/>
        <pt x="417" y="168" on="1"/>
        <pt x="409" y="198" on="0"/>
        <pt x="351" y="241" on="0"/>
        <pt x="265" y="267" on="0"/>
        <pt x="216" y="271" on="1"/>
        <pt x="189" y="273" on="0"/>
        <pt x="167" y="309" on="0"/>
        <pt x="167" y="351" on="1"/>
        <pt x="167" y="370" on="0"/>
        <pt x="169" y="391" on="0"/>
        <pt x="172" y="404" on="1"/>
        <pt x="264" y="404" on="0"/>
        <pt x="386" y="463" on="0"/>
        <pt x="404" y="530" on="1"/>
        <pt x="404" y="536" on="1"/>
        <pt x="382" y="552" on="0"/>
        <pt x="319" y="570" on="0"/>
        <pt x="279" y="570" on="1"/>
        <pt x="218" y="570" on="0"/>
        <pt x="130" y="532" on="0"/>
        <pt x="86" y="488" on="1"/>
        <pt x="80" y="488" on="1"/>
        <pt x="76" y="504" on="0"/>
        <pt x="72" y="534" on="0"/>
        <pt x="72" y="554" on="1"/>
        <pt x="72" y="598" on="0"/>
        <pt x="88" y="645" on="0"/>
        <pt x="107" y="664" on="1"/>
        <pt x="130" y="687" on="0"/>
        <pt x="236" y="720" on="0"/>
      </contour>
    </TTGlyph>
    <TTGlyph name="u" xMin="46" yMin="-10" xMax="550" yMax="548">
      <contour>
        <pt x="176" y="-10" on="1"/>
        <pt x="154" y="-10" on="0"/>
        <pt x="115" y="20" on="0"/>
        <pt x="85" y="70" on="0"/>
        <pt x="67" y="129" on="0"/>
        <pt x="67" y="158" on="1"/>
        <pt x="67" y="214" on="0"/>
        <pt x="67" y="327" on="0"/>
        <pt x="67" y="383" on="1"/>
        <pt x="67" y="431" on="0"/>
        <pt x="58" y="498" on="0"/>
        <pt x="46" y="542" on="1"/>
        <pt x="61" y="545" on="0"/>
        <pt x="88" y="548" on="0"/>
        <pt x="104" y="548" on="1"/>
        <pt x="168" y="548" on="0"/>
        <pt x="233" y="493" on="0"/>
        <pt x="233" y="413" on="1"/>
        <pt x="233" y="358" on="0"/>
        <pt x="216" y="234" on="0"/>
        <pt x="202" y="169" on="1"/>
        <pt x="217" y="157" on="0"/>
        <pt x="233" y="157" on="1"/>
        <pt x="262" y="157" on="0"/>
        <pt x="319" y="201" on="0"/>
        <pt x="369" y="319" on="0"/>
        <pt x="387" y="428" on="1"/>
        <pt x="395" y="406" on="0"/>
        <pt x="403" y="355" on="0"/>
        <pt x="404" y="300" on="0"/>
        <pt x="397" y="240" on="0"/>
        <pt x="390" y="208" on="1"/>
        <pt x="377" y="149" on="0"/>
        <pt x="312" y="49" on="0"/>
        <pt x="224" y="-10" on="0"/>
      </contour>
      <contour>
        <pt x="382" y="542" on="1"/>
        <pt x="396" y="544" on="0"/>
        <pt x="413" y="545" on="0"/>
        <pt x="424" y="545" on="1"/>
        <pt x="465" y="545" on="0"/>
        <pt x="511" y="522" on="0"/>
        <pt x="530" y="481" on="0"/>
        <pt x="530" y="453" on="1"/>
        <pt x="530" y="387" on="0"/>
        <pt x="530" y="268" on="0"/>
        <pt x="530" y="157" on="0"/>
        <pt x="530" y="101" on="1"/>
        <pt x="530" y="76" on="0"/>
        <pt x="540" y="20" on="0"/>
        <pt x="550" y="2" on="1"/>
        <pt x="539" y="0" on="0"/>
        <pt x="516" y="-4" on="0"/>
        <pt x="505" y="-4" on="1"/>
        <pt x="469" y="-4" on="0"/>
        <pt x="413" y="27" on="0"/>
        <pt x="382" y="105" on="0"/>
        <pt x="382" y="173" on="1"/>
        <pt x="382" y="237" on="0"/>
        <pt x="382" y="367" on="0"/>
        <pt x="382" y="490" on="0"/>
      </contour>
      <contour>
        <pt x="391" y="161" on="1"/>
        <pt x="365" y="161" on="1"/>
        <pt x="408" y="295" on="1"/>
        <pt x="430" y="292" on="1"/>
      </contour>
    </TTGlyph>
    <TTGlyph name="u.italic" xMin="46" yMin="-10" xMax="579" yMax="548">
      <contour>
        <pt x="176" y="-10" on="1"/>
        <pt x="154" y="-10" on="0"/>
        <pt x="115" y="20" on="0"/>
        <pt x="85" y="70" on="0"/>
        <pt x="67" y="129" on="0"/>
        <pt x="67" y="158" on="1"/>
        <pt x="67" y="214" on="0"/>
        <pt x="67" y="327" on="0"/>
        <pt x="67" y="383" on="1"/>
        <pt x="67" y="431" on="0"/>
        <pt x="58" y="498" on="0"/>
        <pt x="46" y="542" on="1"/>
        <pt x="61" y="545" on="0"/>
        <pt x="88" y="548" on="0"/>
        <pt x="104" y="548" on="1"/>
        <pt x="168" y="548" on="0"/>
        <pt x="233" y="493" on="0"/>
        <pt x="233" y="413" on="1"/>
        <pt x="233" y="358" on="0"/>
        <pt x="216" y="234" on="0"/>
        <pt x="202" y="169" on="1"/>
        <pt x="217" y="157" on="0"/>
        <pt x="233" y="157" on="1"/>
        <pt x="260" y="157" on="0"/>
        <pt x="312" y="201" on="0"/>
        <pt x="359" y="319" on="0"/>
        <pt x="377" y="428" on="1"/>
        <pt x="385" y="406" on="0"/>
        <pt x="393" y="355" on="0"/>
        <pt x="394" y="300" on="0"/>
        <pt x="387" y="240" on="0"/>
        <pt x="380" y="208" on="1"/>
        <pt x="367" y="149" on="0"/>
        <pt x="306" y="49" on="0"/>
        <pt x="222" y="-10" on="0"/>
      </contour>
      <contour>
        <pt x="484" y="-10" on="1"/>
        <pt x="451" y="-10" on="0"/>
        <pt x="400" y="33" on="0"/>
        <pt x="372" y="109" on="0"/>
        <pt x="372" y="158" on="1"/>
        <pt x="372" y="222" on="0"/>
        <pt x="372" y="350" on="0"/>
        <pt x="372" y="478" on="0"/>
        <pt x="372" y="542" on="1"/>
        <pt x="386" y="544" on="0"/>
        <pt x="403" y="545" on="0"/>
        <pt x="414" y="545" on="1"/>
        <pt x="455" y="545" on="0"/>
        <pt x="501" y="522" on="0"/>
        <pt x="520" y="481" on="0"/>
        <pt x="520" y="453" on="1"/>
        <pt x="520" y="380" on="0"/>
        <pt x="520" y="234" on="0"/>
        <pt x="520" y="161" on="1"/>
        <pt x="520" y="157" on="0"/>
        <pt x="520" y="147" on="0"/>
        <pt x="521" y="142" on="1"/>
        <pt x="522" y="142" on="0"/>
        <pt x="525" y="142" on="0"/>
        <pt x="526" y="142" on="1"/>
        <pt x="550" y="142" on="0"/>
        <pt x="569" y="162" on="1"/>
        <pt x="575" y="162" on="1"/>
        <pt x="577" y="152" on="0"/>
        <pt x="579" y="128" on="0"/>
        <pt x="579" y="117" on="1"/>
        <pt x="579" y="86" on="0"/>
        <pt x="559" y="31" on="0"/>
        <pt x="545" y="17" on="1"/>
        <pt x="518" y="-10" on="0"/>
      </contour>
      <contour>
        <pt x="381" y="161" on="1"/>
        <pt x="355" y="161" on="1"/>
        <pt x="398" y="295" on="1"/>
        <pt x="420" y="292" on="1"/>
      </contour>
    </TTGlyph>
    <TTGlyph name="v" xMin="48" yMin="-10" xMax="548" yMax="549">
      <contour>
        <pt x="109" y="549" on="1"/>
        <pt x="150" y="549" on="0"/>
        <pt x="203" y="522" on="0"/>
        <pt x="207" y="484" on="1"/>
        <pt x="220" y="341" on="0"/>
        <pt x="259" y="162" on="0"/>
        <pt x="288" y="106" on="1"/>
        <pt x="289" y="106" on="1"/>
        <pt x="324" y="159" on="0"/>
        <pt x="373" y="287" on="0"/>
        <pt x="395" y="444" on="0"/>
        <pt x="391" y="540" on="1"/>
        <pt x="408" y="545" on="0"/>
        <pt x="442" y="549" on="0"/>
        <pt x="458" y="549" on="1"/>
        <pt x="507" y="549" on="0"/>
        <pt x="548" y="498" on="0"/>
        <pt x="544" y="449" on="1"/>
        <pt x="535" y="346" on="0"/>
        <pt x="485" y="170" on="0"/>
        <pt x="408" y="36" on="0"/>
        <pt x="357" y="-5" on="1"/>
        <pt x="334" y="-10" on="0"/>
        <pt x="314" y="-10" on="1"/>
        <pt x="292" y="-10" on="0"/>
        <pt x="244" y="6" on="0"/>
        <pt x="212" y="37" on="1"/>
        <pt x="143" y="106" on="0"/>
        <pt x="66" y="358" on="0"/>
        <pt x="48" y="540" on="1"/>
        <pt x="61" y="545" on="0"/>
        <pt x="96" y="549" on="0"/>
      </contour>
      <contour>
        <pt x="267" y="56" on="1"/>
        <pt x="267" y="112" on="1"/>
        <pt x="310" y="112" on="1"/>
        <pt x="310" y="56" on="1"/>
      </contour>
    </TTGlyph>
    <TTGlyph name="v.italic" xMin="18" yMin="-9" xMax="561" yMax="552">
      <contour>
        <pt x="428" y="552" on="1"/>
        <pt x="477" y="552" on="0"/>
        <pt x="509" y="520" on="1"/>
        <pt x="535" y="494" on="0"/>
        <pt x="561" y="403" on="0"/>
        <pt x="561" y="341" on="1"/>
        <pt x="561" y="328" on="1"/>
        <pt x="561" y="231" on="0"/>
        <pt x="495" y="79" on="0"/>
        <pt x="382" y="-9" on="0"/>
        <pt x="309" y="-9" on="1"/>
        <pt x="304" y="-9" on="1"/>
        <pt x="258" y="-9" on="0"/>
        <pt x="175" y="37" on="0"/>
        <pt x="123" y="113" on="0"/>
        <pt x="123" y="157" on="1"/>
        <pt x="123" y="201" on="0"/>
        <pt x="123" y="287" on="0"/>
        <pt x="123" y="374" on="0"/>
        <pt x="123" y="417" on="1"/>
        <pt x="109" y="389" on="0"/>
        <pt x="81" y="351" on="0"/>
        <pt x="64" y="351" on="1"/>
        <pt x="45" y="351" on="0"/>
        <pt x="19" y="398" on="0"/>
        <pt x="18" y="452" on="1"/>
        <pt x="18" y="466" on="0"/>
        <pt x="22" y="495" on="0"/>
        <pt x="26" y="514" on="1"/>
        <pt x="56" y="531" on="0"/>
        <pt x="117" y="551" on="0"/>
        <pt x="141" y="551" on="1"/>
        <pt x="178" y="551" on="0"/>
        <pt x="234" y="516" on="0"/>
        <pt x="265" y="463" on="0"/>
        <pt x="265" y="436" on="1"/>
        <pt x="265" y="386" on="0"/>
        <pt x="265" y="287" on="0"/>
        <pt x="265" y="187" on="0"/>
        <pt x="265" y="137" on="1"/>
        <pt x="265" y="127" on="0"/>
        <pt x="266" y="108" on="0"/>
        <pt x="267" y="100" on="1"/>
        <pt x="269" y="100" on="1"/>
        <pt x="304" y="102" on="0"/>
        <pt x="368" y="151" on="0"/>
        <pt x="409" y="246" on="0"/>
        <pt x="409" y="317" on="1"/>
        <pt x="409" y="328" on="1"/>
        <pt x="409" y="377" on="0"/>
        <pt x="397" y="447" on="0"/>
        <pt x="369" y="506" on="0"/>
        <pt x="346" y="535" on="1"/>
        <pt x="345" y="541" on="1"/>
        <pt x="363" y="547" on="0"/>
        <pt x="403" y="552" on="0"/>
      </contour>
      <contour>
        <pt x="146" y="405" on="1"/>
        <pt x="108" y="405" on="1"/>
        <pt x="130" y="453" on="1"/>
        <pt x="146" y="450" on="1"/>
      </contour>
      <contour>
        <pt x="241" y="44" on="1"/>
        <pt x="246" y="117" on="1"/>
        <pt x="291" y="89" on="1"/>
        <pt x="284" y="44" on="1"/>
      </contour>
    </TTGlyph>
    <TTGlyph name="w" xMin="28" yMin="-10" xMax="569" yMax="552">
      <contour>
        <pt x="252" y="425" on="1"/>
        <pt x="269" y="425" on="1"/>
        <pt x="306" y="425" on="0"/>
        <pt x="347" y="398" on="0"/>
        <pt x="347" y="375" on="1"/>
        <pt x="347" y="295" on="0"/>
        <pt x="373" y="173" on="0"/>
        <pt x="396" y="128" on="1"/>
        <pt x="399" y="128" on="1"/>
        <pt x="407" y="154" on="0"/>
        <pt x="417" y="220" on="0"/>
        <pt x="422" y="316" on="0"/>
        <pt x="425" y="453" on="0"/>
        <pt x="425" y="549" on="1"/>
        <pt x="431" y="551" on="0"/>
        <pt x="444" y="552" on="0"/>
        <pt x="453" y="552" on="1"/>
        <pt x="503" y="552" on="0"/>
        <pt x="569" y="516" on="0"/>
        <pt x="569" y="478" on="1"/>
        <pt x="569" y="360" on="0"/>
        <pt x="551" y="181" on="0"/>
        <pt x="504" y="46" on="0"/>
        <pt x="460" y="-7" on="1"/>
        <pt x="451" y="-9" on="0"/>
        <pt x="432" y="-10" on="0"/>
        <pt x="424" y="-10" on="1"/>
        <pt x="394" y="-10" on="0"/>
        <pt x="379" y="8" on="1"/>
        <pt x="355" y="37" on="0"/>
        <pt x="316" y="133" on="0"/>
        <pt x="300" y="204" on="1"/>
        <pt x="298" y="204" on="1"/>
        <pt x="285" y="138" on="0"/>
        <pt x="247" y="42" on="0"/>
        <pt x="218" y="-4" on="1"/>
        <pt x="206" y="-10" on="0"/>
        <pt x="180" y="-10" on="1"/>
        <pt x="150" y="-10" on="0"/>
        <pt x="128" y="12" on="1"/>
        <pt x="89" y="52" on="0"/>
        <pt x="45" y="186" on="0"/>
        <pt x="28" y="396" on="0"/>
        <pt x="28" y="549" on="1"/>
        <pt x="36" y="551" on="0"/>
        <pt x="54" y="552" on="0"/>
        <pt x="65" y="552" on="1"/>
        <pt x="115" y="552" on="0"/>
        <pt x="172" y="516" on="0"/>
        <pt x="172" y="481" on="1"/>
        <pt x="172" y="339" on="0"/>
        <pt x="184" y="173" on="0"/>
        <pt x="197" y="128" on="1"/>
        <pt x="202" y="128" on="1"/>
        <pt x="219" y="162" on="0"/>
        <pt x="241" y="242" on="0"/>
        <pt x="252" y="350" on="0"/>
      </contour>
      <contour>
        <pt x="287" y="195" on="1"/>
        <pt x="287" y="256" on="1"/>
        <pt x="310" y="256" on="1"/>
        <pt x="310" y="195" on="1"/>
      </contour>
      <contour>
        <pt x="187" y="54" on="1"/>
        <pt x="187" y="130" on="1"/>
        <pt x="210" y="130" on="1"/>
        <pt x="210" y="54" on="1"/>
      </contour>
      <contour>
        <pt x="387" y="56" on="1"/>
        <pt x="387" y="132" on="1"/>
        <pt x="410" y="132" on="1"/>
        <pt x="410" y="56" on="1"/>
      </contour>
    </TTGlyph>
    <TTGlyph name="w.italic" xMin="27" yMin="-10" xMax="564" yMax="551">
      <contour>
        <pt x="266" y="420" on="1"/>
        <pt x="273" y="422" on="0"/>
        <pt x="284" y="425" on="0"/>
        <pt x="293" y="425" on="1"/>
        <pt x="318" y="425" on="0"/>
        <pt x="341" y="391" on="0"/>
        <pt x="341" y="362" on="1"/>
        <pt x="341" y="333" on="0"/>
        <pt x="341" y="274" on="0"/>
        <pt x="341" y="216" on="0"/>
        <pt x="341" y="187" on="1"/>
        <pt x="341" y="159" on="0"/>
        <pt x="359" y="120" on="0"/>
        <pt x="374" y="106" on="1"/>
        <pt x="375" y="106" on="1"/>
        <pt x="390" y="122" on="0"/>
        <pt x="413" y="186" on="0"/>
        <pt x="427" y="270" on="0"/>
        <pt x="427" y="315" on="1"/>
        <pt x="427" y="328" on="1"/>
        <pt x="427" y="373" on="0"/>
        <pt x="415" y="449" on="0"/>
        <pt x="391" y="511" on="0"/>
        <pt x="373" y="534" on="1"/>
        <pt x="372" y="540" on="1"/>
        <pt x="390" y="546" on="0"/>
        <pt x="425" y="551" on="0"/>
        <pt x="441" y="551" on="1"/>
        <pt x="482" y="551" on="0"/>
        <pt x="510" y="523" on="1"/>
        <pt x="535" y="498" on="0"/>
        <pt x="564" y="402" on="0"/>
        <pt x="564" y="329" on="1"/>
        <pt x="564" y="318" on="1"/>
        <pt x="564" y="222" on="0"/>
        <pt x="527" y="74" on="0"/>
        <pt x="454" y="-10" on="0"/>
        <pt x="399" y="-10" on="1"/>
        <pt x="394" y="-10" on="1"/>
        <pt x="361" y="-10" on="0"/>
        <pt x="302" y="41" on="0"/>
        <pt x="266" y="118" on="0"/>
        <pt x="266" y="156" on="1"/>
        <pt x="266" y="200" on="0"/>
        <pt x="266" y="288" on="0"/>
        <pt x="266" y="376" on="0"/>
      </contour>
      <contour>
        <pt x="283" y="183" on="1"/>
        <pt x="289" y="170" on="0"/>
        <pt x="292" y="147" on="0"/>
        <pt x="292" y="139" on="1"/>
        <pt x="291" y="99" on="0"/>
        <pt x="256" y="31" on="0"/>
        <pt x="204" y="-10" on="0"/>
        <pt x="175" y="-10" on="1"/>
        <pt x="170" y="-10" on="1"/>
        <pt x="133" y="-10" on="0"/>
        <pt x="77" y="46" on="0"/>
        <pt x="47" y="132" on="0"/>
        <pt x="47" y="176" on="1"/>
        <pt x="47" y="220" on="0"/>
        <pt x="47" y="308" on="0"/>
        <pt x="47" y="397" on="0"/>
        <pt x="47" y="441" on="1"/>
        <pt x="47" y="473" on="0"/>
        <pt x="38" y="521" on="0"/>
        <pt x="27" y="540" on="1"/>
        <pt x="37" y="543" on="0"/>
        <pt x="59" y="546" on="0"/>
        <pt x="70" y="546" on="1"/>
        <pt x="109" y="546" on="0"/>
        <pt x="161" y="517" on="0"/>
        <pt x="188" y="462" on="0"/>
        <pt x="188" y="423" on="1"/>
        <pt x="188" y="383" on="0"/>
        <pt x="188" y="302" on="0"/>
        <pt x="188" y="221" on="0"/>
        <pt x="188" y="180" on="1"/>
        <pt x="188" y="156" on="0"/>
        <pt x="195" y="120" on="0"/>
        <pt x="201" y="106" on="1"/>
        <pt x="202" y="106" on="1"/>
        <pt x="222" y="117" on="0"/>
        <pt x="269" y="157" on="0"/>
      </contour>
      <contour>
        <pt x="152" y="78" on="1"/>
        <pt x="154" y="109" on="1"/>
        <pt x="225" y="109" on="1"/>
        <pt x="175" y="65" on="1"/>
      </contour>
      <contour>
        <pt x="300" y="107" on="1"/>
        <pt x="300" y="80" on="1"/>
        <pt x="270" y="80" on="1"/>
        <pt x="269" y="105" on="1"/>
      </contour>
      <contour>
        <pt x="370" y="64" on="1"/>
        <pt x="347" y="109" on="1"/>
        <pt x="425" y="109" on="1"/>
        <pt x="397" y="56" on="1"/>
      </contour>
    </TTGlyph>
    <TTGlyph name="x" xMin="31" yMin="-12" xMax="587" yMax="552">
      <contour>
        <pt x="490" y="-12" on="1"/>
        <pt x="444" y="-12" on="0"/>
        <pt x="396" y="13" on="0"/>
        <pt x="371" y="41" on="1"/>
        <pt x="349" y="66" on="0"/>
        <pt x="305" y="117" on="0"/>
        <pt x="284" y="143" on="1"/>
        <pt x="272" y="158" on="0"/>
        <pt x="249" y="188" on="0"/>
        <pt x="238" y="203" on="1"/>
        <pt x="180" y="282" on="0"/>
        <pt x="78" y="452" on="0"/>
        <pt x="34" y="542" on="1"/>
        <pt x="63" y="550" on="0"/>
        <pt x="103" y="550" on="1"/>
        <pt x="155" y="550" on="0"/>
        <pt x="232" y="528" on="0"/>
        <pt x="246" y="498" on="1"/>
        <pt x="267" y="454" on="0"/>
        <pt x="310" y="366" on="0"/>
        <pt x="336" y="324" on="1"/>
        <pt x="347" y="308" on="0"/>
        <pt x="368" y="275" on="0"/>
        <pt x="378" y="258" on="1"/>
        <pt x="425" y="190" on="0"/>
        <pt x="531" y="69" on="0"/>
        <pt x="587" y="18" on="1"/>
        <pt x="569" y="3" on="0"/>
        <pt x="522" y="-12" on="0"/>
      </contour>
      <contour>
        <pt x="435" y="552" on="1"/>
        <pt x="485" y="552" on="0"/>
        <pt x="554" y="524" on="0"/>
        <pt x="554" y="492" on="1"/>
        <pt x="554" y="485" on="0"/>
        <pt x="551" y="470" on="0"/>
        <pt x="547" y="461" on="1"/>
        <pt x="519" y="397" on="0"/>
        <pt x="438" y="269" on="0"/>
        <pt x="379" y="196" on="1"/>
        <pt x="368" y="183" on="0"/>
        <pt x="338" y="156" on="0"/>
        <pt x="326" y="142" on="1"/>
        <pt x="295" y="107" on="0"/>
        <pt x="228" y="30" on="0"/>
        <pt x="187" y="-10" on="1"/>
        <pt x="174" y="-10" on="1"/>
        <pt x="114" y="-10" on="0"/>
        <pt x="31" y="23" on="0"/>
        <pt x="31" y="49" on="1"/>
        <pt x="31" y="60" on="0"/>
        <pt x="40" y="78" on="0"/>
        <pt x="59" y="91" on="1"/>
        <pt x="118" y="133" on="0"/>
        <pt x="207" y="220" on="0"/>
        <pt x="244" y="263" on="1"/>
        <pt x="257" y="278" on="0"/>
        <pt x="290" y="305" on="0"/>
        <pt x="300" y="320" on="1"/>
        <pt x="333" y="372" on="0"/>
        <pt x="389" y="485" on="0"/>
        <pt x="411" y="552" on="1"/>
      </contour>
      <contour>
        <pt x="330" y="114" on="1"/>
        <pt x="284" y="114" on="1"/>
        <pt x="301" y="194" on="1"/>
        <pt x="317" y="191" on="1"/>
      </contour>
      <contour>
        <pt x="302" y="356" on="1"/>
        <pt x="348" y="356" on="1"/>
        <pt x="329" y="277" on="1"/>
        <pt x="313" y="280" on="1"/>
      </contour>
    </TTGlyph>
    <TTGlyph name="x.italic" xMin="24" yMin="-10" xMax="579" yMax="550">
      <contour>
        <pt x="476" y="-10" on="1"/>
        <pt x="453" y="-10" on="0"/>
        <pt x="395" y="10" on="0"/>
        <pt x="347" y="45" on="0"/>
        <pt x="337" y="65" on="1"/>
        <pt x="316" y="110" on="0"/>
        <pt x="259" y="233" on="0"/>
        <pt x="197" y="369" on="0"/>
        <pt x="166" y="435" on="1"/>
        <pt x="124" y="355" on="0"/>
        <pt x="81" y="355" on="1"/>
        <pt x="53" y="355" on="0"/>
        <pt x="24" y="403" on="0"/>
        <pt x="24" y="458" on="1"/>
        <pt x="24" y="472" on="0"/>
        <pt x="28" y="501" on="0"/>
        <pt x="32" y="520" on="1"/>
        <pt x="58" y="534" on="0"/>
        <pt x="124" y="550" on="0"/>
        <pt x="161" y="550" on="1"/>
        <pt x="189" y="550" on="0"/>
        <pt x="241" y="531" on="0"/>
        <pt x="283" y="497" on="0"/>
        <pt x="293" y="474" on="1"/>
        <pt x="308" y="443" on="0"/>
        <pt x="349" y="352" on="0"/>
        <pt x="397" y="251" on="0"/>
        <pt x="419" y="202" on="1"/>
        <pt x="428" y="183" on="0"/>
        <pt x="445" y="145" on="0"/>
        <pt x="453" y="128" on="1"/>
        <pt x="491" y="136" on="0"/>
        <pt x="543" y="167" on="0"/>
        <pt x="568" y="191" on="1"/>
        <pt x="574" y="191" on="1"/>
        <pt x="576" y="180" on="0"/>
        <pt x="579" y="152" on="0"/>
        <pt x="579" y="132" on="1"/>
        <pt x="579" y="89" on="0"/>
        <pt x="561" y="34" on="0"/>
        <pt x="543" y="16" on="1"/>
        <pt x="530" y="3" on="0"/>
        <pt x="495" y="-10" on="0"/>
      </contour>
      <contour>
        <pt x="452" y="547" on="1"/>
        <pt x="479" y="547" on="0"/>
        <pt x="531" y="532" on="0"/>
        <pt x="565" y="503" on="0"/>
        <pt x="565" y="480" on="1"/>
        <pt x="565" y="473" on="0"/>
        <pt x="561" y="445" on="0"/>
        <pt x="553" y="425" on="1"/>
        <pt x="532" y="375" on="0"/>
        <pt x="433" y="280" on="0"/>
        <pt x="371" y="241" on="1"/>
        <pt x="358" y="233" on="0"/>
        <pt x="331" y="252" on="0"/>
        <pt x="325" y="274" on="1"/>
        <pt x="353" y="309" on="0"/>
        <pt x="391" y="396" on="0"/>
        <pt x="408" y="491" on="0"/>
        <pt x="403" y="540" on="1"/>
        <pt x="421" y="547" on="0"/>
      </contour>
      <contour>
        <pt x="153" y="-10" on="1"/>
        <pt x="124" y="-10" on="0"/>
        <pt x="64" y="14" on="0"/>
        <pt x="35" y="45" on="1"/>
        <pt x="67" y="106" on="0"/>
        <pt x="186" y="228" on="0"/>
        <pt x="255" y="279" on="1"/>
        <pt x="270" y="290" on="0"/>
        <pt x="298" y="270" on="0"/>
        <pt x="305" y="253" on="1"/>
        <pt x="283" y="225" on="0"/>
        <pt x="258" y="157" on="0"/>
        <pt x="243" y="89" on="0"/>
        <pt x="228" y="31" on="0"/>
        <pt x="216" y="14" on="1"/>
        <pt x="207" y="1" on="0"/>
        <pt x="175" y="-10" on="0"/>
      </contour>
      <contour>
        <pt x="178" y="430" on="1"/>
        <pt x="151" y="430" on="1"/>
        <pt x="169" y="489" on="1"/>
        <pt x="184" y="486" on="1"/>
      </contour>
      <contour>
        <pt x="288" y="195" on="1"/>
        <pt x="259" y="195" on="1"/>
        <pt x="281" y="239" on="1"/>
        <pt x="297" y="236" on="1"/>
      </contour>
      <contour>
        <pt x="339" y="334" on="1"/>
        <pt x="375" y="334" on="1"/>
        <pt x="344" y="288" on="1"/>
        <pt x="328" y="291" on="1"/>
      </contour>
    </TTGlyph>
    <TTGlyph name="y" xMin="38" yMin="-210" xMax="560" yMax="548">
      <contour>
        <pt x="449" y="548" on="1"/>
        <pt x="499" y="548" on="0"/>
        <pt x="560" y="510" on="0"/>
        <pt x="555" y="460" on="1"/>
        <pt x="539" y="248" on="0"/>
        <pt x="432" y="-47" on="0"/>
        <pt x="358" y="-121" on="1"/>
        <pt x="316" y="-163" on="0"/>
        <pt x="232" y="-210" on="0"/>
        <pt x="189" y="-210" on="1"/>
        <pt x="169" y="-210" on="0"/>
        <pt x="138" y="-198" on="0"/>
        <pt x="124" y="-184" on="1"/>
        <pt x="109" y="-169" on="0"/>
        <pt x="91" y="-105" on="0"/>
        <pt x="91" y="-65" on="1"/>
        <pt x="91" y="-61" on="1"/>
        <pt x="97" y="-61" on="1"/>
        <pt x="102" y="-61" on="0"/>
        <pt x="111" y="-61" on="0"/>
        <pt x="116" y="-61" on="1"/>
        <pt x="159" y="-61" on="0"/>
        <pt x="257" y="-31" on="0"/>
        <pt x="294" y="6" on="1"/>
        <pt x="322" y="34" on="0"/>
        <pt x="367" y="175" on="0"/>
        <pt x="391" y="395" on="0"/>
        <pt x="388" y="540" on="1"/>
        <pt x="408" y="545" on="0"/>
        <pt x="436" y="548" on="0"/>
      </contour>
      <contour>
        <pt x="100" y="547" on="1"/>
        <pt x="153" y="547" on="0"/>
        <pt x="211" y="516" on="0"/>
        <pt x="213" y="479" on="1"/>
        <pt x="220" y="378" on="0"/>
        <pt x="262" y="227" on="0"/>
        <pt x="293" y="177" on="1"/>
        <pt x="304" y="158" on="0"/>
        <pt x="333" y="126" on="0"/>
        <pt x="348" y="110" on="1"/>
        <pt x="367" y="93" on="1"/>
        <pt x="369" y="63" on="0"/>
        <pt x="364" y="37" on="0"/>
        <pt x="354" y="30" on="0"/>
        <pt x="346" y="30" on="1"/>
        <pt x="339" y="30" on="1"/>
        <pt x="296" y="30" on="0"/>
        <pt x="219" y="66" on="0"/>
        <pt x="186" y="99" on="1"/>
        <pt x="159" y="126" on="0"/>
        <pt x="113" y="195" on="0"/>
        <pt x="74" y="295" on="0"/>
        <pt x="46" y="439" on="0"/>
        <pt x="38" y="540" on="1"/>
        <pt x="69" y="547" on="0"/>
      </contour>
      <contour>
        <pt x="317" y="51" on="1"/>
        <pt x="319" y="117" on="1"/>
        <pt x="362" y="117" on="1"/>
        <pt x="360" y="51" on="1"/>
      </contour>
    </TTGlyph>
    <TTGlyph name="y.italic" xMin="56" yMin="-200" xMax="536" yMax="548">
      <contour>
        <pt x="186" y="30" on="1"/>
        <pt x="164" y="30" on="0"/>
        <pt x="125" y="55" on="0"/>
        <pt x="95" y="96" on="0"/>
        <pt x="77" y="144" on="0"/>
        <pt x="77" y="168" on="1"/>
        <pt x="77" y="222" on="0"/>
        <pt x="77" y="329" on="0"/>
        <pt x="77" y="383" on="1"/>
        <pt x="77" y="431" on="0"/>
        <pt x="68" y="498" on="0"/>
        <pt x="56" y="542" on="1"/>
        <pt x="71" y="545" on="0"/>
        <pt x="98" y="548" on="0"/>
        <pt x="114" y="548" on="1"/>
        <pt x="157" y="548" on="0"/>
        <pt x="214" y="525" on="0"/>
        <pt x="243" y="467" on="0"/>
        <pt x="243" y="413" on="1"/>
        <pt x="243" y="360" on="0"/>
        <pt x="225" y="241" on="0"/>
        <pt x="212" y="179" on="1"/>
        <pt x="227" y="167" on="0"/>
        <pt x="243" y="167" on="1"/>
        <pt x="261" y="167" on="0"/>
        <pt x="304" y="188" on="0"/>
        <pt x="350" y="244" on="0"/>
        <pt x="392" y="346" on="0"/>
        <pt x="408" y="426" on="1"/>
        <pt x="415" y="402" on="0"/>
        <pt x="416" y="336" on="0"/>
        <pt x="407" y="258" on="0"/>
        <pt x="398" y="215" on="1"/>
        <pt x="389" y="177" on="0"/>
        <pt x="347" y="110" on="0"/>
        <pt x="288" y="59" on="0"/>
        <pt x="220" y="30" on="0"/>
      </contour>
      <contour>
        <pt x="251" y="-50" on="1"/>
        <pt x="282" y="-50" on="0"/>
        <pt x="342" y="-44" on="0"/>
        <pt x="370" y="-37" on="1"/>
        <pt x="379" y="-15" on="0"/>
        <pt x="385" y="34" on="0"/>
        <pt x="385" y="70" on="1"/>
        <pt x="385" y="188" on="0"/>
        <pt x="385" y="422" on="0"/>
        <pt x="385" y="540" on="1"/>
        <pt x="396" y="543" on="0"/>
        <pt x="426" y="548" on="0"/>
        <pt x="443" y="548" on="1"/>
        <pt x="477" y="548" on="0"/>
        <pt x="517" y="531" on="0"/>
        <pt x="535" y="494" on="0"/>
        <pt x="535" y="464" on="1"/>
        <pt x="535" y="394" on="0"/>
        <pt x="535" y="254" on="0"/>
        <pt x="535" y="114" on="0"/>
        <pt x="535" y="44" on="1"/>
        <pt x="536" y="-22" on="0"/>
        <pt x="461" y="-133" on="0"/>
        <pt x="328" y="-200" on="0"/>
        <pt x="242" y="-200" on="1"/>
        <pt x="207" y="-200" on="0"/>
        <pt x="150" y="-183" on="0"/>
        <pt x="137" y="-170" on="1"/>
        <pt x="121" y="-154" on="0"/>
        <pt x="105" y="-92" on="0"/>
        <pt x="105" y="-59" on="1"/>
        <pt x="105" y="-48" on="0"/>
        <pt x="107" y="-30" on="0"/>
        <pt x="109" y="-21" on="1"/>
        <pt x="115" y="-21" on="1"/>
        <pt x="144" y="-34" on="0"/>
        <pt x="209" y="-50" on="0"/>
      </contour>
      <contour>
        <pt x="395" y="161" on="1"/>
        <pt x="369" y="161" on="1"/>
        <pt x="418" y="295" on="1"/>
        <pt x="440" y="292" on="1"/>
      </contour>
    </TTGlyph>
    <TTGlyph name="z" xMin="50" yMin="0" xMax="550" yMax="540">
      <contour>
        <pt x="55" y="540" on="1"/>
        <pt x="452" y="540" on="1"/>
        <pt x="482" y="540" on="0"/>
        <pt x="526" y="499" on="0"/>
        <pt x="550" y="441" on="0"/>
        <pt x="550" y="415" on="1"/>
        <pt x="550" y="407" on="1"/>
        <pt x="550" y="394" on="0"/>
        <pt x="511" y="345" on="0"/>
        <pt x="445" y="285" on="0"/>
        <pt x="361" y="223" on="0"/>
        <pt x="268" y="167" on="0"/>
        <pt x="223" y="147" on="1"/>
        <pt x="224" y="144" on="1"/>
        <pt x="269" y="146" on="0"/>
        <pt x="358" y="150" on="0"/>
        <pt x="400" y="150" on="1"/>
        <pt x="475" y="150" on="1"/>
        <pt x="519" y="150" on="0"/>
        <pt x="550" y="113" on="0"/>
        <pt x="550" y="63" on="1"/>
        <pt x="550" y="46" on="0"/>
        <pt x="546" y="13" on="0"/>
        <pt x="543" y="0" on="1"/>
        <pt x="115" y="0" on="1"/>
        <pt x="90" y="0" on="0"/>
        <pt x="62" y="35" on="0"/>
        <pt x="50" y="93" on="0"/>
        <pt x="50" y="125" on="1"/>
        <pt x="50" y="140" on="1"/>
        <pt x="142" y="193" on="0"/>
        <pt x="303" y="321" on="0"/>
        <pt x="369" y="394" on="1"/>
        <pt x="368" y="397" on="1"/>
        <pt x="322" y="393" on="0"/>
        <pt x="235" y="390" on="0"/>
        <pt x="200" y="390" on="1"/>
        <pt x="122" y="390" on="1"/>
        <pt x="82" y="390" on="0"/>
        <pt x="50" y="448" on="0"/>
        <pt x="50" y="500" on="1"/>
        <pt x="50" y="511" on="0"/>
        <pt x="52" y="531" on="0"/>
      </contour>
      <contour>
        <pt x="365" y="359" on="1"/>
        <pt x="365" y="450" on="1"/>
        <pt x="396" y="447" on="1"/>
        <pt x="395" y="356" on="1"/>
      </contour>
      <contour>
        <pt x="203" y="97" on="1"/>
        <pt x="201" y="188" on="1"/>
        <pt x="232" y="187" on="1"/>
        <pt x="233" y="96" on="1"/>
      </contour>
    </TTGlyph>
    <TTGlyph name="z.italic" xMin="45" yMin="-10" xMax="568" yMax="601">
      <contour>
        <pt x="105" y="540" on="1"/>
        <pt x="452" y="540" on="1"/>
        <pt x="481" y="540" on="0"/>
        <pt x="525" y="507" on="0"/>
        <pt x="550" y="458" on="0"/>
        <pt x="550" y="435" on="1"/>
        <pt x="550" y="427" on="1"/>
        <pt x="550" y="405" on="0"/>
        <pt x="503" y="324" on="0"/>
        <pt x="423" y="223" on="0"/>
        <pt x="326" y="121" on="0"/>
        <pt x="225" y="33" on="0"/>
        <pt x="181" y="6" on="1"/>
        <pt x="169" y="-1" on="0"/>
        <pt x="142" y="-9" on="0"/>
        <pt x="128" y="-9" on="1"/>
        <pt x="102" y="-9" on="0"/>
        <pt x="56" y="39" on="0"/>
        <pt x="45" y="91" on="1"/>
        <pt x="120" y="131" on="0"/>
        <pt x="252" y="231" on="0"/>
        <pt x="363" y="349" on="0"/>
        <pt x="405" y="415" on="1"/>
        <pt x="405" y="417" on="1"/>
        <pt x="350" y="410" on="0"/>
        <pt x="252" y="400" on="0"/>
        <pt x="210" y="400" on="1"/>
        <pt x="182" y="400" on="1"/>
        <pt x="137" y="400" on="0"/>
        <pt x="100" y="452" on="0"/>
        <pt x="100" y="500" on="1"/>
        <pt x="100" y="511" on="0"/>
        <pt x="102" y="531" on="0"/>
      </contour>
      <contour>
        <pt x="564" y="179" on="1"/>
        <pt x="566" y="169" on="0"/>
        <pt x="568" y="150" on="0"/>
        <pt x="568" y="141" on="1"/>
        <pt x="568" y="99" on="0"/>
        <pt x="551" y="45" on="0"/>
        <pt x="534" y="28" on="1"/>
        <pt x="516" y="10" on="0"/>
        <pt x="467" y="-10" on="0"/>
        <pt x="429" y="-10" on="1"/>
        <pt x="357" y="-10" on="0"/>
        <pt x="247" y="38" on="0"/>
        <pt x="194" y="84" on="1"/>
        <pt x="181" y="96" on="0"/>
        <pt x="180" y="136" on="0"/>
        <pt x="210" y="166" on="1"/>
        <pt x="239" y="157" on="0"/>
        <pt x="308" y="143" on="0"/>
        <pt x="379" y="135" on="0"/>
        <pt x="409" y="135" on="1"/>
        <pt x="456" y="135" on="0"/>
        <pt x="527" y="156" on="0"/>
        <pt x="557" y="179" on="1"/>
      </contour>
      <contour>
        <pt x="198" y="341" on="1"/>
        <pt x="176" y="335" on="0"/>
        <pt x="140" y="335" on="1"/>
        <pt x="94" y="335" on="0"/>
        <pt x="58" y="363" on="0"/>
        <pt x="58" y="397" on="1"/>
        <pt x="58" y="453" on="0"/>
        <pt x="84" y="555" on="0"/>
        <pt x="106" y="601" on="1"/>
        <pt x="112" y="601" on="1"/>
        <pt x="155" y="601" on="0"/>
        <pt x="223" y="572" on="0"/>
        <pt x="223" y="547" on="1"/>
        <pt x="223" y="516" on="0"/>
        <pt x="211" y="462" on="0"/>
        <pt x="198" y="394" on="0"/>
      </contour>
      <contour>
        <pt x="319" y="87" on="1"/>
        <pt x="319" y="187" on="1"/>
        <pt x="348" y="187" on="1"/>
        <pt x="348" y="88" on="1"/>
      </contour>
      <contour>
        <pt x="418" y="375" on="1"/>
        <pt x="379" y="468" on="1"/>
        <pt x="408" y="476" on="1"/>
        <pt x="447" y="382" on="1"/>
      </contour>
    </TTGlyph>
</ttFont>
